<?xml version="1.0" encoding="utf-8" standalone="no"?>
<!DOCTYPE svg PUBLIC "-//W3C//DTD SVG 1.1//EN"
  "http://www.w3.org/Graphics/SVG/1.1/DTD/svg11.dtd">
<svg xmlns:xlink="http://www.w3.org/1999/xlink" width="1440pt" height="360pt" viewBox="0 0 1440 360" xmlns="http://www.w3.org/2000/svg" version="1.1">
 <metadata>
  <rdf:RDF xmlns:dc="http://purl.org/dc/elements/1.1/" xmlns:cc="http://creativecommons.org/ns#" xmlns:rdf="http://www.w3.org/1999/02/22-rdf-syntax-ns#">
   <cc:Work>
    <dc:type rdf:resource="http://purl.org/dc/dcmitype/StillImage"/>
    <dc:date>2023-12-13T17:48:37.867226</dc:date>
    <dc:format>image/svg+xml</dc:format>
    <dc:creator>
     <cc:Agent>
      <dc:title>Matplotlib v3.8.1, https://matplotlib.org/</dc:title>
     </cc:Agent>
    </dc:creator>
   </cc:Work>
  </rdf:RDF>
 </metadata>
 <defs>
  <style type="text/css">*{stroke-linejoin: round; stroke-linecap: butt}</style>
 </defs>
 <g id="figure_1">
  <g id="patch_1">
   <path d="M 0 360 
L 1440 360 
L 1440 0 
L 0 0 
z
" style="fill: #ffffff"/>
  </g>
  <g id="axes_1">
   <g id="patch_2">
    <path d="M 180 315 
L 1296 315 
L 1296 43.2 
L 180 43.2 
z
" style="fill: #ffffff"/>
   </g>
   <g id="matplotlib.axis_1">
    <g id="xtick_1">
     <g id="line2d_1">
      <defs>
       <path id="m3c30bff4d1" d="M 0 0 
L 0 3.5 
" style="stroke: #262626; stroke-width: 0.8"/>
      </defs>
      <g>
       <use xlink:href="#m3c30bff4d1" x="230.727273" y="315" style="fill: #262626; stroke: #262626; stroke-width: 0.8"/>
      </g>
     </g>
     <g id="text_1">
      <text style="fill: #262626; font: 10px 'Arial', 'DejaVu Sans', 'Liberation Sans', 'Bitstream Vera Sans', sans-serif" transform="translate(233.486648 360.540625) rotate(-90)">Internal</text>
     </g>
    </g>
    <g id="xtick_2">
     <g id="line2d_2">
      <g>
       <use xlink:href="#m3c30bff4d1" x="332.181818" y="315" style="fill: #262626; stroke: #262626; stroke-width: 0.8"/>
      </g>
     </g>
     <g id="text_2">
      <text style="fill: #262626; font: 10px 'Arial', 'DejaVu Sans', 'Liberation Sans', 'Bitstream Vera Sans', sans-serif" transform="translate(334.941193 354.842188) rotate(-90)">Nirmal</text>
     </g>
    </g>
    <g id="xtick_3">
     <g id="line2d_3">
      <g>
       <use xlink:href="#m3c30bff4d1" x="433.636364" y="315" style="fill: #262626; stroke: #262626; stroke-width: 0.8"/>
      </g>
     </g>
     <g id="text_3">
      <text style="fill: #262626; font: 10px 'Arial', 'DejaVu Sans', 'Liberation Sans', 'Bitstream Vera Sans', sans-serif" transform="translate(436.395739 356.60625) rotate(-90)">Bindea</text>
     </g>
    </g>
    <g id="xtick_4">
     <g id="line2d_4">
      <g>
       <use xlink:href="#m3c30bff4d1" x="535.090909" y="315" style="fill: #262626; stroke: #262626; stroke-width: 0.8"/>
      </g>
     </g>
     <g id="text_4">
      <text style="fill: #262626; font: 10px 'Arial', 'DejaVu Sans', 'Liberation Sans', 'Bitstream Vera Sans', sans-serif" transform="translate(537.850284 346.610937) rotate(-90)">xCell</text>
     </g>
    </g>
    <g id="xtick_5">
     <g id="line2d_5">
      <g>
       <use xlink:href="#m3c30bff4d1" x="636.545455" y="315" style="fill: #262626; stroke: #262626; stroke-width: 0.8"/>
      </g>
     </g>
     <g id="text_5">
      <text style="fill: #262626; font: 10px 'Arial', 'DejaVu Sans', 'Liberation Sans', 'Bitstream Vera Sans', sans-serif" transform="translate(639.165767 398.804688) rotate(-90)">Gene_Ontology</text>
     </g>
    </g>
    <g id="xtick_6">
     <g id="line2d_6">
      <g>
       <use xlink:href="#m3c30bff4d1" x="738" y="315" style="fill: #262626; stroke: #262626; stroke-width: 0.8"/>
      </g>
     </g>
     <g id="text_6">
      <text style="fill: #262626; font: 10px 'Arial', 'DejaVu Sans', 'Liberation Sans', 'Bitstream Vera Sans', sans-serif" transform="translate(740.620312 466.79375) rotate(-90)">Human_Phenotype_Ontology</text>
     </g>
    </g>
    <g id="xtick_7">
     <g id="line2d_7">
      <g>
       <use xlink:href="#m3c30bff4d1" x="839.454545" y="315" style="fill: #262626; stroke: #262626; stroke-width: 0.8"/>
      </g>
     </g>
     <g id="text_7">
      <text style="fill: #262626; font: 10px 'Arial', 'DejaVu Sans', 'Liberation Sans', 'Bitstream Vera Sans', sans-serif" transform="translate(842.21392 390.409375) rotate(-90)">WikiPathways</text>
     </g>
    </g>
    <g id="xtick_8">
     <g id="line2d_8">
      <g>
       <use xlink:href="#m3c30bff4d1" x="940.909091" y="315" style="fill: #262626; stroke: #262626; stroke-width: 0.8"/>
      </g>
     </g>
     <g id="text_8">
      <text style="fill: #262626; font: 10px 'Arial', 'DejaVu Sans', 'Liberation Sans', 'Bitstream Vera Sans', sans-serif" transform="translate(943.529403 419.5875) rotate(-90)">MSigDb_Single_Cell</text>
     </g>
    </g>
    <g id="xtick_9">
     <g id="line2d_9">
      <g>
       <use xlink:href="#m3c30bff4d1" x="1042.363636" y="315" style="fill: #262626; stroke: #262626; stroke-width: 0.8"/>
      </g>
     </g>
     <g id="text_9">
      <text style="fill: #262626; font: 10px 'Arial', 'DejaVu Sans', 'Liberation Sans', 'Bitstream Vera Sans', sans-serif" transform="translate(1044.983949 393.545313) rotate(-90)">MSigDb_Other</text>
     </g>
    </g>
    <g id="xtick_10">
     <g id="line2d_10">
      <g>
       <use xlink:href="#m3c30bff4d1" x="1143.818182" y="315" style="fill: #262626; stroke: #262626; stroke-width: 0.8"/>
      </g>
     </g>
     <g id="text_10">
      <text style="fill: #262626; font: 10px 'Arial', 'DejaVu Sans', 'Liberation Sans', 'Bitstream Vera Sans', sans-serif" transform="translate(1146.438494 438.428125) rotate(-90)">MSigDb_Dif_Expression</text>
     </g>
    </g>
    <g id="xtick_11">
     <g id="line2d_11">
      <g>
       <use xlink:href="#m3c30bff4d1" x="1245.272727" y="315" style="fill: #262626; stroke: #262626; stroke-width: 0.8"/>
      </g>
     </g>
     <g id="text_11">
      <text style="fill: #262626; font: 10px 'Arial', 'DejaVu Sans', 'Liberation Sans', 'Bitstream Vera Sans', sans-serif" transform="translate(1247.89304 394.564062) rotate(-90)">Random_FGES</text>
     </g>
    </g>
    <g id="text_12">
     <text style="fill: #262626; font: 10px 'Arial', 'DejaVu Sans', 'Liberation Sans', 'Bitstream Vera Sans', sans-serif; text-anchor: middle" x="738" y="478.392188" transform="rotate(-0 738 478.392188)">goi_selected_labels</text>
    </g>
   </g>
   <g id="matplotlib.axis_2">
    <g id="ytick_1">
     <g id="line2d_12">
      <defs>
       <path id="mf4c7a7309e" d="M 0 0 
L -3.5 0 
" style="stroke: #262626; stroke-width: 0.8"/>
      </defs>
      <g>
       <use xlink:href="#mf4c7a7309e" x="180" y="290.78328" style="fill: #262626; stroke: #262626; stroke-width: 0.8"/>
      </g>
     </g>
     <g id="text_13">
      <text style="fill: #262626; font: 10px 'Arial', 'DejaVu Sans', 'Liberation Sans', 'Bitstream Vera Sans', sans-serif; text-anchor: end" x="173" y="294.582499" transform="rotate(-0 173 294.582499)">−5000</text>
     </g>
    </g>
    <g id="ytick_2">
     <g id="line2d_13">
      <g>
       <use xlink:href="#mf4c7a7309e" x="180" y="255.975146" style="fill: #262626; stroke: #262626; stroke-width: 0.8"/>
      </g>
     </g>
     <g id="text_14">
      <text style="fill: #262626; font: 10px 'Arial', 'DejaVu Sans', 'Liberation Sans', 'Bitstream Vera Sans', sans-serif; text-anchor: end" x="173" y="259.774365" transform="rotate(-0 173 259.774365)">−2500</text>
     </g>
    </g>
    <g id="ytick_3">
     <g id="line2d_14">
      <g>
       <use xlink:href="#mf4c7a7309e" x="180" y="221.167011" style="fill: #262626; stroke: #262626; stroke-width: 0.8"/>
      </g>
     </g>
     <g id="text_15">
      <text style="fill: #262626; font: 10px 'Arial', 'DejaVu Sans', 'Liberation Sans', 'Bitstream Vera Sans', sans-serif; text-anchor: end" x="173" y="224.96623" transform="rotate(-0 173 224.96623)">0</text>
     </g>
    </g>
    <g id="ytick_4">
     <g id="line2d_15">
      <g>
       <use xlink:href="#mf4c7a7309e" x="180" y="186.358877" style="fill: #262626; stroke: #262626; stroke-width: 0.8"/>
      </g>
     </g>
     <g id="text_16">
      <text style="fill: #262626; font: 10px 'Arial', 'DejaVu Sans', 'Liberation Sans', 'Bitstream Vera Sans', sans-serif; text-anchor: end" x="173" y="190.158095" transform="rotate(-0 173 190.158095)">2500</text>
     </g>
    </g>
    <g id="ytick_5">
     <g id="line2d_16">
      <g>
       <use xlink:href="#mf4c7a7309e" x="180" y="151.550742" style="fill: #262626; stroke: #262626; stroke-width: 0.8"/>
      </g>
     </g>
     <g id="text_17">
      <text style="fill: #262626; font: 10px 'Arial', 'DejaVu Sans', 'Liberation Sans', 'Bitstream Vera Sans', sans-serif; text-anchor: end" x="173" y="155.349961" transform="rotate(-0 173 155.349961)">5000</text>
     </g>
    </g>
    <g id="ytick_6">
     <g id="line2d_17">
      <g>
       <use xlink:href="#mf4c7a7309e" x="180" y="116.742607" style="fill: #262626; stroke: #262626; stroke-width: 0.8"/>
      </g>
     </g>
     <g id="text_18">
      <text style="fill: #262626; font: 10px 'Arial', 'DejaVu Sans', 'Liberation Sans', 'Bitstream Vera Sans', sans-serif; text-anchor: end" x="173" y="120.541826" transform="rotate(-0 173 120.541826)">7500</text>
     </g>
    </g>
    <g id="ytick_7">
     <g id="line2d_18">
      <g>
       <use xlink:href="#mf4c7a7309e" x="180" y="81.934473" style="fill: #262626; stroke: #262626; stroke-width: 0.8"/>
      </g>
     </g>
     <g id="text_19">
      <text style="fill: #262626; font: 10px 'Arial', 'DejaVu Sans', 'Liberation Sans', 'Bitstream Vera Sans', sans-serif; text-anchor: end" x="173" y="85.733691" transform="rotate(-0 173 85.733691)">10000</text>
     </g>
    </g>
    <g id="ytick_8">
     <g id="line2d_19">
      <g>
       <use xlink:href="#mf4c7a7309e" x="180" y="47.126338" style="fill: #262626; stroke: #262626; stroke-width: 0.8"/>
      </g>
     </g>
     <g id="text_20">
      <text style="fill: #262626; font: 10px 'Arial', 'DejaVu Sans', 'Liberation Sans', 'Bitstream Vera Sans', sans-serif; text-anchor: end" x="173" y="50.925557" transform="rotate(-0 173 50.925557)">12500</text>
     </g>
    </g>
    <g id="text_21">
     <text style="fill: #262626; font: 10px 'Arial', 'DejaVu Sans', 'Liberation Sans', 'Bitstream Vera Sans', sans-serif; text-anchor: middle" x="133.090625" y="179.1" transform="rotate(-90 133.090625 179.1)">Unscaled ssGSEA score</text>
    </g>
   </g>
   <g id="PolyCollection_1">
    <defs>
     <path id="m121112b752" d="M 230.734487 -140.002685 
L 230.720059 -140.002685 
L 230.708551 -141.434036 
L 230.691504 -142.865386 
L 230.67696 -144.296736 
L 230.675171 -145.728087 
L 230.687551 -147.159437 
L 230.704978 -148.590788 
L 230.71806 -150.022138 
L 230.72447 -151.453488 
L 230.726645 -152.884839 
L 230.727169 -154.316189 
L 230.72726 -155.74754 
L 230.727272 -157.17889 
L 230.727273 -158.61024 
L 230.727273 -160.041591 
L 230.727273 -161.472941 
L 230.727273 -162.904292 
L 230.727273 -164.335642 
L 230.727273 -165.766992 
L 230.727273 -167.198343 
L 230.727273 -168.629693 
L 230.727273 -170.061044 
L 230.727273 -171.492394 
L 230.727273 -172.923744 
L 230.727273 -174.355095 
L 230.727273 -175.786445 
L 230.727273 -177.217796 
L 230.727273 -178.649146 
L 230.727273 -180.080496 
L 230.727273 -181.511847 
L 230.727273 -182.943197 
L 230.727273 -184.374548 
L 230.727273 -185.805898 
L 230.727273 -187.237248 
L 230.727273 -188.668599 
L 230.727273 -190.099949 
L 230.727271 -191.5313 
L 230.727254 -192.96265 
L 230.727122 -194.394 
L 230.726381 -195.825351 
L 230.723322 -197.256701 
L 230.714156 -198.688052 
L 230.694405 -200.119402 
L 230.664524 -201.550753 
L 230.634639 -202.982103 
L 230.618592 -204.413453 
L 230.620545 -205.844804 
L 230.632707 -207.276154 
L 230.647996 -208.707505 
L 230.666671 -210.138855 
L 230.688309 -211.570205 
L 230.706646 -213.001556 
L 230.714649 -214.432906 
L 230.707937 -215.864257 
L 230.683961 -217.295607 
L 230.644436 -218.726957 
L 230.596136 -220.158308 
L 230.539704 -221.589658 
L 230.461414 -223.021009 
L 230.352203 -224.452359 
L 230.233218 -225.883709 
L 230.141502 -227.31506 
L 230.081418 -228.74641 
L 229.99505 -230.177761 
L 229.785517 -231.609111 
L 229.389622 -233.040461 
L 228.848131 -234.471812 
L 228.267349 -235.903162 
L 227.672041 -237.334513 
L 226.967041 -238.765863 
L 226.098628 -240.197213 
L 225.154758 -241.628564 
L 224.25081 -243.059914 
L 223.410172 -244.491265 
L 222.592222 -245.922615 
L 221.766654 -247.353965 
L 220.932745 -248.785316 
L 220.095958 -250.216666 
L 219.242119 -251.648017 
L 218.334472 -253.079367 
L 217.338676 -254.510717 
L 216.250649 -255.942068 
L 215.093039 -257.373418 
L 213.898939 -258.804769 
L 212.75469 -260.236119 
L 211.854011 -261.667469 
L 211.400877 -263.09882 
L 211.40582 -264.53017 
L 211.595862 -265.961521 
L 211.51098 -267.392871 
L 210.751657 -268.824221 
L 209.371194 -270.255572 
L 208.244868 -271.686922 
L 208.87128 -273.118273 
L 212.246507 -274.549623 
L 217.716143 -275.980973 
L 223.313535 -277.412324 
L 227.36912 -278.843674 
L 229.532447 -280.275025 
L 230.396346 -281.706375 
L 231.058199 -281.706375 
L 231.058199 -281.706375 
L 231.922098 -280.275025 
L 234.085426 -278.843674 
L 238.14101 -277.412324 
L 243.738402 -275.980973 
L 249.208038 -274.549623 
L 252.583265 -273.118273 
L 253.209677 -271.686922 
L 252.083351 -270.255572 
L 250.702889 -268.824221 
L 249.943565 -267.392871 
L 249.858684 -265.961521 
L 250.048725 -264.53017 
L 250.053668 -263.09882 
L 249.600534 -261.667469 
L 248.699856 -260.236119 
L 247.555607 -258.804769 
L 246.361507 -257.373418 
L 245.203897 -255.942068 
L 244.11587 -254.510717 
L 243.120073 -253.079367 
L 242.212427 -251.648017 
L 241.358587 -250.216666 
L 240.521801 -248.785316 
L 239.687892 -247.353965 
L 238.862324 -245.922615 
L 238.044373 -244.491265 
L 237.203736 -243.059914 
L 236.299788 -241.628564 
L 235.355918 -240.197213 
L 234.487504 -238.765863 
L 233.782504 -237.334513 
L 233.187197 -235.903162 
L 232.606414 -234.471812 
L 232.064924 -233.040461 
L 231.669028 -231.609111 
L 231.459496 -230.177761 
L 231.373128 -228.74641 
L 231.313044 -227.31506 
L 231.221327 -225.883709 
L 231.102343 -224.452359 
L 230.993132 -223.021009 
L 230.914842 -221.589658 
L 230.858409 -220.158308 
L 230.810109 -218.726957 
L 230.770585 -217.295607 
L 230.746608 -215.864257 
L 230.739897 -214.432906 
L 230.747899 -213.001556 
L 230.766237 -211.570205 
L 230.787874 -210.138855 
L 230.806549 -208.707505 
L 230.821838 -207.276154 
L 230.834 -205.844804 
L 230.835953 -204.413453 
L 230.819906 -202.982103 
L 230.790022 -201.550753 
L 230.760141 -200.119402 
L 230.74039 -198.688052 
L 230.731224 -197.256701 
L 230.728165 -195.825351 
L 230.727423 -194.394 
L 230.727292 -192.96265 
L 230.727274 -191.5313 
L 230.727273 -190.099949 
L 230.727273 -188.668599 
L 230.727273 -187.237248 
L 230.727273 -185.805898 
L 230.727273 -184.374548 
L 230.727273 -182.943197 
L 230.727273 -181.511847 
L 230.727273 -180.080496 
L 230.727273 -178.649146 
L 230.727273 -177.217796 
L 230.727273 -175.786445 
L 230.727273 -174.355095 
L 230.727273 -172.923744 
L 230.727273 -171.492394 
L 230.727273 -170.061044 
L 230.727273 -168.629693 
L 230.727273 -167.198343 
L 230.727273 -165.766992 
L 230.727273 -164.335642 
L 230.727273 -162.904292 
L 230.727273 -161.472941 
L 230.727273 -160.041591 
L 230.727273 -158.61024 
L 230.727274 -157.17889 
L 230.727285 -155.74754 
L 230.727376 -154.316189 
L 230.7279 -152.884839 
L 230.730075 -151.453488 
L 230.736486 -150.022138 
L 230.749568 -148.590788 
L 230.766995 -147.159437 
L 230.779375 -145.728087 
L 230.777585 -144.296736 
L 230.763042 -142.865386 
L 230.745994 -141.434036 
L 230.734487 -140.002685 
z
" style="stroke: #000000; stroke-width: 1.5"/>
    </defs>
    <g clip-path="url(#pbb73cb03a0)">
     <use xlink:href="#m121112b752" x="0" y="360" style="fill: #df2020; stroke: #000000; stroke-width: 1.5"/>
    </g>
   </g>
   <g id="PolyCollection_2">
    <defs>
     <path id="md02f844ecb" d="M 332.187065 -112.550921 
L 332.176571 -112.550921 
L 332.173334 -114.303707 
L 332.168672 -116.056493 
L 332.162282 -117.80928 
L 332.15394 -119.562066 
L 332.143565 -121.314852 
L 332.131263 -123.067638 
L 332.117328 -124.820424 
L 332.102201 -126.57321 
L 332.086364 -128.325996 
L 332.070186 -130.078783 
L 332.053742 -131.831569 
L 332.036623 -133.584355 
L 332.017776 -135.337141 
L 331.995395 -137.089927 
L 331.966889 -138.842713 
L 331.928948 -140.5955 
L 331.877719 -142.348286 
L 331.809083 -144.101072 
L 331.719017 -145.853858 
L 331.603994 -147.606644 
L 331.461382 -149.35943 
L 331.289802 -151.112216 
L 331.089427 -152.865003 
L 330.862232 -154.617789 
L 330.612181 -156.370575 
L 330.34531 -158.123361 
L 330.069612 -159.876147 
L 329.794604 -161.628933 
L 329.530528 -163.38172 
L 329.28725 -165.134506 
L 329.073066 -166.887292 
L 328.893746 -168.640078 
L 328.752118 -170.392864 
L 328.648331 -172.14565 
L 328.580672 -173.898437 
L 328.546638 -175.651223 
L 328.543821 -177.404009 
L 328.570341 -179.156795 
L 328.624723 -180.909581 
L 328.705421 -182.662367 
L 328.810293 -184.415153 
L 328.936322 -186.16794 
L 329.079713 -187.920726 
L 329.23627 -189.673512 
L 329.401849 -191.426298 
L 329.57263 -193.179084 
L 329.745072 -194.93187 
L 329.915578 -196.684657 
L 330.080022 -198.437443 
L 330.233358 -200.190229 
L 330.369498 -201.943015 
L 330.481542 -203.695801 
L 330.562316 -205.448587 
L 330.605083 -207.201374 
L 330.604256 -208.95416 
L 330.55596 -210.706946 
L 330.458374 -212.459732 
L 330.311847 -214.212518 
L 330.118857 -215.965304 
L 329.883883 -217.71809 
L 329.613261 -219.470877 
L 329.315036 -221.223663 
L 328.998761 -222.976449 
L 328.675135 -224.729235 
L 328.35536 -226.482021 
L 328.050117 -228.234807 
L 327.768119 -229.987594 
L 327.514375 -231.74038 
L 327.288368 -233.493166 
L 327.082506 -235.245952 
L 326.881243 -236.998738 
L 326.661255 -238.751524 
L 326.393028 -240.50431 
L 326.044101 -242.257097 
L 325.584053 -244.009883 
L 324.991029 -245.762669 
L 324.259106 -247.515455 
L 323.405223 -249.268241 
L 322.473815 -251.021027 
L 321.537092 -252.773814 
L 320.689399 -254.5266 
L 320.035314 -256.279386 
L 319.673012 -258.032172 
L 319.67617 -259.784958 
L 320.078786 -261.537744 
L 320.867008 -263.290531 
L 321.980375 -265.043317 
L 323.322372 -266.796103 
L 324.777553 -268.548889 
L 326.230883 -270.301675 
L 327.58469 -272.054461 
L 328.7698 -273.807247 
L 329.749474 -275.560034 
L 330.516783 -277.31282 
L 331.087548 -279.065606 
L 331.491481 -280.818392 
L 331.763818 -282.571178 
L 331.938923 -284.323964 
L 332.04638 -286.076751 
L 332.317256 -286.076751 
L 332.317256 -286.076751 
L 332.424713 -284.323964 
L 332.599818 -282.571178 
L 332.872155 -280.818392 
L 333.276088 -279.065606 
L 333.846854 -277.31282 
L 334.614162 -275.560034 
L 335.593836 -273.807247 
L 336.778947 -272.054461 
L 338.132753 -270.301675 
L 339.586084 -268.548889 
L 341.041265 -266.796103 
L 342.383261 -265.043317 
L 343.496629 -263.290531 
L 344.28485 -261.537744 
L 344.687467 -259.784958 
L 344.690624 -258.032172 
L 344.328322 -256.279386 
L 343.674238 -254.5266 
L 342.826544 -252.773814 
L 341.889821 -251.021027 
L 340.958413 -249.268241 
L 340.10453 -247.515455 
L 339.372607 -245.762669 
L 338.779583 -244.009883 
L 338.319536 -242.257097 
L 337.970608 -240.50431 
L 337.702381 -238.751524 
L 337.482393 -236.998738 
L 337.28113 -235.245952 
L 337.075269 -233.493166 
L 336.849262 -231.74038 
L 336.595518 -229.987594 
L 336.31352 -228.234807 
L 336.008276 -226.482021 
L 335.688502 -224.729235 
L 335.364875 -222.976449 
L 335.0486 -221.223663 
L 334.750376 -219.470877 
L 334.479754 -217.71809 
L 334.244779 -215.965304 
L 334.051789 -214.212518 
L 333.905263 -212.459732 
L 333.807676 -210.706946 
L 333.75938 -208.95416 
L 333.758553 -207.201374 
L 333.801321 -205.448587 
L 333.882095 -203.695801 
L 333.994138 -201.943015 
L 334.130278 -200.190229 
L 334.283614 -198.437443 
L 334.448059 -196.684657 
L 334.618565 -194.93187 
L 334.791007 -193.179084 
L 334.961787 -191.426298 
L 335.127367 -189.673512 
L 335.283924 -187.920726 
L 335.427314 -186.16794 
L 335.553344 -184.415153 
L 335.658215 -182.662367 
L 335.738913 -180.909581 
L 335.793295 -179.156795 
L 335.819815 -177.404009 
L 335.816999 -175.651223 
L 335.782964 -173.898437 
L 335.715306 -172.14565 
L 335.611518 -170.392864 
L 335.46989 -168.640078 
L 335.29057 -166.887292 
L 335.076386 -165.134506 
L 334.833108 -163.38172 
L 334.569033 -161.628933 
L 334.294024 -159.876147 
L 334.018326 -158.123361 
L 333.751456 -156.370575 
L 333.501404 -154.617789 
L 333.274209 -152.865003 
L 333.073834 -151.112216 
L 332.902254 -149.35943 
L 332.759643 -147.606644 
L 332.64462 -145.853858 
L 332.554553 -144.101072 
L 332.485917 -142.348286 
L 332.434688 -140.5955 
L 332.396748 -138.842713 
L 332.368241 -137.089927 
L 332.34586 -135.337141 
L 332.327013 -133.584355 
L 332.309894 -131.831569 
L 332.29345 -130.078783 
L 332.277272 -128.325996 
L 332.261435 -126.57321 
L 332.246308 -124.820424 
L 332.232374 -123.067638 
L 332.220071 -121.314852 
L 332.209697 -119.562066 
L 332.201354 -117.80928 
L 332.194964 -116.056493 
L 332.190303 -114.303707 
L 332.187065 -112.550921 
z
" style="stroke: #000000; stroke-width: 1.5"/>
    </defs>
    <g clip-path="url(#pbb73cb03a0)">
     <use xlink:href="#md02f844ecb" x="0" y="360" style="fill: #784878; stroke: #000000; stroke-width: 1.5"/>
    </g>
   </g>
   <g id="PolyCollection_3">
    <defs>
     <path id="mf75fc3a988" d="M 433.640316 -131.203767 
L 433.632411 -131.203767 
L 433.629884 -132.589488 
L 433.626245 -133.975208 
L 433.621284 -135.360929 
L 433.614851 -136.74665 
L 433.606879 -138.132371 
L 433.597369 -139.518091 
L 433.586324 -140.903812 
L 433.573638 -142.289533 
L 433.558924 -143.675253 
L 433.541282 -145.060974 
L 433.518972 -146.446695 
L 433.489012 -147.832416 
L 433.446692 -149.218136 
L 433.385139 -150.603857 
L 433.295104 -151.989578 
L 433.165206 -153.375298 
L 432.982841 -154.761019 
L 432.735802 -156.14674 
L 432.414427 -157.532461 
L 432.013891 -158.918181 
L 431.536132 -160.303902 
L 430.990987 -161.689623 
L 430.396349 -163.075343 
L 429.777383 -164.461064 
L 429.165048 -165.846785 
L 428.594121 -167.232506 
L 428.100841 -168.618226 
L 427.720086 -170.003947 
L 427.482052 -171.389668 
L 427.40856 -172.775389 
L 427.509477 -174.161109 
L 427.78006 -175.54683 
L 428.200133 -176.932551 
L 428.735726 -178.318271 
L 429.343247 -179.703992 
L 429.975447 -181.089713 
L 430.587891 -182.475434 
L 431.144403 -183.861154 
L 431.620286 -185.246875 
L 432.002801 -186.632596 
L 432.289223 -188.018316 
L 432.483388 -189.404037 
L 432.591924 -190.789758 
L 432.621185 -192.175479 
L 432.575477 -193.561199 
L 432.456664 -194.94692 
L 432.264828 -196.332641 
L 431.99948 -197.718362 
L 431.660797 -199.104082 
L 431.250555 -200.489803 
L 430.772614 -201.875524 
L 430.233029 -203.261244 
L 429.63991 -204.646965 
L 429.003211 -206.032686 
L 428.334513 -207.418407 
L 427.646822 -208.804127 
L 426.954314 -210.189848 
L 426.271944 -211.575569 
L 425.614788 -212.961289 
L 424.997045 -214.34701 
L 424.430671 -215.732731 
L 423.923808 -217.118452 
L 423.479376 -218.504172 
L 423.094408 -219.889893 
L 422.760732 -221.275614 
L 422.467326 -222.661334 
L 422.204089 -224.047055 
L 421.966086 -225.432776 
L 421.756837 -226.818497 
L 421.589296 -228.204217 
L 421.483884 -229.589938 
L 421.464006 -230.975659 
L 421.550517 -232.36138 
L 421.757033 -233.7471 
L 422.087584 -235.132821 
L 422.537141 -236.518542 
L 423.094344 -237.904262 
L 423.744968 -239.289983 
L 424.474579 -240.675704 
L 425.269388 -242.061425 
L 426.115307 -243.447145 
L 426.996047 -244.832866 
L 427.891521 -246.218587 
L 428.777616 -247.604307 
L 429.627777 -248.990028 
L 430.416034 -250.375749 
L 431.120558 -251.76147 
L 431.72662 -253.14719 
L 432.228129 -254.532911 
L 432.62744 -255.918632 
L 432.933691 -257.304352 
L 433.160313 -258.690073 
L 433.322449 -260.075794 
L 433.434837 -261.461515 
L 433.510451 -262.847235 
L 433.559879 -264.232956 
L 433.591273 -265.618677 
L 433.610625 -267.004398 
L 433.622176 -268.390118 
L 433.650551 -268.390118 
L 433.650551 -268.390118 
L 433.662103 -267.004398 
L 433.681454 -265.618677 
L 433.712848 -264.232956 
L 433.762276 -262.847235 
L 433.83789 -261.461515 
L 433.950278 -260.075794 
L 434.112414 -258.690073 
L 434.339036 -257.304352 
L 434.645287 -255.918632 
L 435.044599 -254.532911 
L 435.546108 -253.14719 
L 436.152169 -251.76147 
L 436.856693 -250.375749 
L 437.64495 -248.990028 
L 438.495111 -247.604307 
L 439.381206 -246.218587 
L 440.27668 -244.832866 
L 441.15742 -243.447145 
L 442.00334 -242.061425 
L 442.798148 -240.675704 
L 443.527759 -239.289983 
L 444.178383 -237.904262 
L 444.735586 -236.518542 
L 445.185143 -235.132821 
L 445.515694 -233.7471 
L 445.72221 -232.36138 
L 445.808722 -230.975659 
L 445.788843 -229.589938 
L 445.683431 -228.204217 
L 445.515891 -226.818497 
L 445.306641 -225.432776 
L 445.068639 -224.047055 
L 444.805402 -222.661334 
L 444.511995 -221.275614 
L 444.178319 -219.889893 
L 443.793351 -218.504172 
L 443.348919 -217.118452 
L 442.842056 -215.732731 
L 442.275682 -214.34701 
L 441.657939 -212.961289 
L 441.000783 -211.575569 
L 440.318413 -210.189848 
L 439.625905 -208.804127 
L 438.938214 -207.418407 
L 438.269516 -206.032686 
L 437.632817 -204.646965 
L 437.039698 -203.261244 
L 436.500113 -201.875524 
L 436.022173 -200.489803 
L 435.61193 -199.104082 
L 435.273248 -197.718362 
L 435.0079 -196.332641 
L 434.816064 -194.94692 
L 434.69725 -193.561199 
L 434.651542 -192.175479 
L 434.680803 -190.789758 
L 434.789339 -189.404037 
L 434.983504 -188.018316 
L 435.269926 -186.632596 
L 435.652442 -185.246875 
L 436.128324 -183.861154 
L 436.684836 -182.475434 
L 437.29728 -181.089713 
L 437.929481 -179.703992 
L 438.537001 -178.318271 
L 439.072595 -176.932551 
L 439.492667 -175.54683 
L 439.763251 -174.161109 
L 439.864168 -172.775389 
L 439.790676 -171.389668 
L 439.552642 -170.003947 
L 439.171886 -168.618226 
L 438.678606 -167.232506 
L 438.10768 -165.846785 
L 437.495344 -164.461064 
L 436.876379 -163.075343 
L 436.28174 -161.689623 
L 435.736596 -160.303902 
L 435.258836 -158.918181 
L 434.8583 -157.532461 
L 434.536925 -156.14674 
L 434.289886 -154.761019 
L 434.107521 -153.375298 
L 433.977624 -151.989578 
L 433.887589 -150.603857 
L 433.826036 -149.218136 
L 433.783715 -147.832416 
L 433.753755 -146.446695 
L 433.731446 -145.060974 
L 433.713803 -143.675253 
L 433.699089 -142.289533 
L 433.686403 -140.903812 
L 433.675358 -139.518091 
L 433.665848 -138.132371 
L 433.657877 -136.74665 
L 433.651443 -135.360929 
L 433.646482 -133.975208 
L 433.642844 -132.589488 
L 433.640316 -131.203767 
z
" style="stroke: #000000; stroke-width: 1.5"/>
    </defs>
    <g clip-path="url(#pbb73cb03a0)">
     <use xlink:href="#mf75fc3a988" x="0" y="360" style="fill: #df8020; stroke: #000000; stroke-width: 1.5"/>
    </g>
   </g>
   <g id="PolyCollection_4">
    <defs>
     <path id="m4cf29cfa1b" d="M 535.10071 -92.01798 
L 535.081108 -92.01798 
L 535.07178 -93.994858 
L 535.055609 -95.971737 
L 535.029083 -97.948615 
L 534.987782 -99.925493 
L 534.926645 -101.902371 
L 534.840646 -103.879249 
L 534.726004 -105.856127 
L 534.581893 -107.833005 
L 534.412253 -109.809883 
L 534.226984 -111.786761 
L 534.04165 -113.763639 
L 533.875261 -115.740517 
L 533.746444 -117.717395 
L 533.669233 -119.694273 
L 533.65004 -121.671151 
L 533.686955 -123.648029 
L 533.771442 -125.624907 
L 533.891409 -127.601785 
L 534.034174 -129.578663 
L 534.188215 -131.555541 
L 534.343562 -133.532419 
L 534.491448 -135.509297 
L 534.624069 -137.486175 
L 534.734854 -139.463053 
L 534.8191 -141.439931 
L 534.874506 -143.416809 
L 534.901303 -145.393687 
L 534.902001 -147.370565 
L 534.880962 -149.347443 
L 534.843899 -151.324321 
L 534.797251 -153.301199 
L 534.747316 -155.278077 
L 534.699235 -157.254955 
L 534.656122 -159.231833 
L 534.618709 -161.208711 
L 534.585609 -163.185589 
L 534.554021 -165.162467 
L 534.520556 -167.139345 
L 534.481941 -169.116223 
L 534.435637 -171.093101 
L 534.380398 -173.069979 
L 534.316699 -175.046857 
L 534.246743 -177.023735 
L 534.173722 -179.000613 
L 534.100274 -180.977491 
L 534.026493 -182.954369 
L 533.948153 -184.931247 
L 533.855941 -186.908125 
L 533.736181 -188.885003 
L 533.573063 -190.861881 
L 533.351747 -192.838759 
L 533.061318 -194.815637 
L 532.696585 -196.792515 
L 532.258216 -198.769393 
L 531.751392 -200.746271 
L 531.183645 -202.723149 
L 530.562527 -204.700027 
L 529.89356 -206.676905 
L 529.178803 -208.653783 
L 528.416747 -210.630661 
L 527.604548 -212.607539 
L 526.74321 -214.584417 
L 525.844788 -216.561295 
L 524.938723 -218.538173 
L 524.073424 -220.515051 
L 523.310477 -222.491929 
L 522.712093 -224.468807 
L 522.326043 -226.445685 
L 522.174063 -228.422564 
L 522.248514 -230.399442 
L 522.518454 -232.37632 
L 522.942293 -234.353198 
L 523.481779 -236.330076 
L 524.112029 -238.306954 
L 524.824398 -240.283832 
L 525.621933 -242.26071 
L 526.509836 -244.237588 
L 527.484888 -246.214466 
L 528.527929 -248.191344 
L 529.602108 -250.168222 
L 530.657508 -252.1451 
L 531.640424 -254.121978 
L 532.50407 -256.098856 
L 533.21728 -258.075734 
L 533.768804 -260.052612 
L 534.166651 -262.02949 
L 534.433526 -264.006368 
L 534.600314 -265.983246 
L 534.699512 -267.960124 
L 534.759934 -269.937002 
L 534.803325 -271.91388 
L 534.843059 -273.890758 
L 534.884745 -275.867636 
L 534.928255 -277.844514 
L 534.970435 -279.821392 
L 535.007629 -281.79827 
L 535.037366 -283.775148 
L 535.05896 -285.752026 
L 535.07324 -287.728904 
L 535.108578 -287.728904 
L 535.108578 -287.728904 
L 535.122858 -285.752026 
L 535.144452 -283.775148 
L 535.17419 -281.79827 
L 535.211384 -279.821392 
L 535.253563 -277.844514 
L 535.297073 -275.867636 
L 535.338759 -273.890758 
L 535.378493 -271.91388 
L 535.421884 -269.937002 
L 535.482306 -267.960124 
L 535.581504 -265.983246 
L 535.748292 -264.006368 
L 536.015167 -262.02949 
L 536.413014 -260.052612 
L 536.964538 -258.075734 
L 537.677748 -256.098856 
L 538.541395 -254.121978 
L 539.52431 -252.1451 
L 540.57971 -250.168222 
L 541.653889 -248.191344 
L 542.69693 -246.214466 
L 543.671983 -244.237588 
L 544.559885 -242.26071 
L 545.35742 -240.283832 
L 546.069789 -238.306954 
L 546.700039 -236.330076 
L 547.239525 -234.353198 
L 547.663365 -232.37632 
L 547.933304 -230.399442 
L 548.007755 -228.422564 
L 547.855775 -226.445685 
L 547.469725 -224.468807 
L 546.871342 -222.491929 
L 546.108395 -220.515051 
L 545.243096 -218.538173 
L 544.33703 -216.561295 
L 543.438608 -214.584417 
L 542.57727 -212.607539 
L 541.765071 -210.630661 
L 541.003015 -208.653783 
L 540.288258 -206.676905 
L 539.619291 -204.700027 
L 538.998173 -202.723149 
L 538.430426 -200.746271 
L 537.923602 -198.769393 
L 537.485233 -196.792515 
L 537.1205 -194.815637 
L 536.830071 -192.838759 
L 536.608755 -190.861881 
L 536.445638 -188.885003 
L 536.325878 -186.908125 
L 536.233665 -184.931247 
L 536.155326 -182.954369 
L 536.081544 -180.977491 
L 536.008097 -179.000613 
L 535.935075 -177.023735 
L 535.865119 -175.046857 
L 535.80142 -173.069979 
L 535.746181 -171.093101 
L 535.699877 -169.116223 
L 535.661263 -167.139345 
L 535.627797 -165.162467 
L 535.59621 -163.185589 
L 535.563109 -161.208711 
L 535.525696 -159.231833 
L 535.482583 -157.254955 
L 535.434502 -155.278077 
L 535.384567 -153.301199 
L 535.337919 -151.324321 
L 535.300856 -149.347443 
L 535.279817 -147.370565 
L 535.280515 -145.393687 
L 535.307312 -143.416809 
L 535.362718 -141.439931 
L 535.446964 -139.463053 
L 535.557749 -137.486175 
L 535.69037 -135.509297 
L 535.838257 -133.532419 
L 535.993603 -131.555541 
L 536.147644 -129.578663 
L 536.290409 -127.601785 
L 536.410376 -125.624907 
L 536.494863 -123.648029 
L 536.531778 -121.671151 
L 536.512585 -119.694273 
L 536.435374 -117.717395 
L 536.306557 -115.740517 
L 536.140168 -113.763639 
L 535.954835 -111.786761 
L 535.769565 -109.809883 
L 535.599926 -107.833005 
L 535.455814 -105.856127 
L 535.341172 -103.879249 
L 535.255173 -101.902371 
L 535.194036 -99.925493 
L 535.152735 -97.948615 
L 535.126209 -95.971737 
L 535.110038 -93.994858 
L 535.10071 -92.01798 
z
" style="stroke: #000000; stroke-width: 1.5"/>
    </defs>
    <g clip-path="url(#pbb73cb03a0)">
     <use xlink:href="#m4cf29cfa1b" x="0" y="360" style="fill: #30e136; stroke: #000000; stroke-width: 1.5"/>
    </g>
   </g>
   <g id="PolyCollection_5">
    <defs>
     <path id="m2ebb361a7c" d="M 636.562075 -110.809904 
L 636.528834 -110.809904 
L 636.51238 -112.512958 
L 636.484775 -114.216012 
L 636.442447 -115.919065 
L 636.38293 -117.622119 
L 636.305806 -119.325173 
L 636.213 -121.028227 
L 636.108069 -122.731281 
L 635.994599 -124.434334 
L 635.874383 -126.137388 
L 635.746398 -127.840442 
L 635.607408 -129.543496 
L 635.4543 -131.24655 
L 635.287148 -132.949603 
L 635.111319 -134.652657 
L 634.937224 -136.355711 
L 634.777699 -138.058765 
L 634.644374 -139.761819 
L 634.544775 -141.464872 
L 634.480929 -143.167926 
L 634.44922 -144.87098 
L 634.440981 -146.574034 
L 634.443982 -148.277088 
L 634.445288 -149.980141 
L 634.435158 -151.683195 
L 634.410356 -153.386249 
L 634.374685 -155.089303 
L 634.335748 -156.792357 
L 634.298985 -158.49541 
L 634.261663 -160.198464 
L 634.209587 -161.901518 
L 634.118038 -163.604572 
L 633.956746 -165.307626 
L 633.697387 -167.010679 
L 633.321297 -168.713733 
L 632.824991 -170.416787 
L 632.221448 -172.119841 
L 631.536344 -173.822895 
L 630.800215 -175.525948 
L 630.039346 -177.229002 
L 629.269125 -178.932056 
L 628.492891 -180.63511 
L 627.707272 -182.338164 
L 626.91228 -184.041217 
L 626.12224 -185.744271 
L 625.372695 -187.447325 
L 624.719431 -189.150379 
L 624.228705 -190.853433 
L 623.961594 -192.556486 
L 623.958206 -194.25954 
L 624.227518 -195.962594 
L 624.745772 -197.665648 
L 625.462505 -199.368702 
L 626.310672 -201.071755 
L 627.217089 -202.774809 
L 628.11112 -204.477863 
L 628.931449 -206.180917 
L 629.631584 -207.883971 
L 630.184074 -209.587024 
L 630.582514 -211.290078 
L 630.840446 -212.993132 
L 630.987434 -214.696186 
L 631.063569 -216.39924 
L 631.113641 -218.102293 
L 631.181404 -219.805347 
L 631.303934 -221.508401 
L 631.50657 -223.211455 
L 631.799622 -224.914508 
L 632.17812 -226.617562 
L 632.624782 -228.320616 
L 633.115044 -230.02367 
L 633.622215 -231.726724 
L 634.121287 -233.429777 
L 634.591015 -235.132831 
L 635.014776 -236.835885 
L 635.380921 -238.538939 
L 635.682974 -240.241993 
L 635.919642 -241.945046 
L 636.094419 -243.6481 
L 636.214646 -245.351154 
L 636.290147 -247.054208 
L 636.33172 -248.757262 
L 636.349843 -250.460315 
L 636.35377 -252.163369 
L 636.350978 -253.866423 
L 636.346821 -255.569477 
L 636.344365 -257.272531 
L 636.344613 -258.975584 
L 636.347272 -260.678638 
L 636.351907 -262.381692 
L 636.358883 -264.084746 
L 636.369525 -265.7878 
L 636.385329 -267.490853 
L 636.406783 -269.193907 
L 636.432619 -270.896961 
L 636.460031 -272.600015 
L 636.48571 -274.303069 
L 636.507042 -276.006122 
L 636.522827 -277.709176 
L 636.533271 -279.41223 
L 636.557638 -279.41223 
L 636.557638 -279.41223 
L 636.568082 -277.709176 
L 636.583867 -276.006122 
L 636.605199 -274.303069 
L 636.630878 -272.600015 
L 636.65829 -270.896961 
L 636.684126 -269.193907 
L 636.70558 -267.490853 
L 636.721384 -265.7878 
L 636.732026 -264.084746 
L 636.739002 -262.381692 
L 636.743637 -260.678638 
L 636.746296 -258.975584 
L 636.746544 -257.272531 
L 636.744088 -255.569477 
L 636.739931 -253.866423 
L 636.737139 -252.163369 
L 636.741066 -250.460315 
L 636.759189 -248.757262 
L 636.800763 -247.054208 
L 636.876263 -245.351154 
L 636.99649 -243.6481 
L 637.171267 -241.945046 
L 637.407935 -240.241993 
L 637.709988 -238.538939 
L 638.076133 -236.835885 
L 638.499894 -235.132831 
L 638.969623 -233.429777 
L 639.468694 -231.726724 
L 639.975865 -230.02367 
L 640.466127 -228.320616 
L 640.912789 -226.617562 
L 641.291287 -224.914508 
L 641.584339 -223.211455 
L 641.786975 -221.508401 
L 641.909505 -219.805347 
L 641.977268 -218.102293 
L 642.02734 -216.39924 
L 642.103475 -214.696186 
L 642.250463 -212.993132 
L 642.508395 -211.290078 
L 642.906835 -209.587024 
L 643.459325 -207.883971 
L 644.15946 -206.180917 
L 644.979789 -204.477863 
L 645.87382 -202.774809 
L 646.780237 -201.071755 
L 647.628404 -199.368702 
L 648.345137 -197.665648 
L 648.863391 -195.962594 
L 649.132703 -194.25954 
L 649.129315 -192.556486 
L 648.862204 -190.853433 
L 648.371478 -189.150379 
L 647.718214 -187.447325 
L 646.968669 -185.744271 
L 646.178629 -184.041217 
L 645.383637 -182.338164 
L 644.598019 -180.63511 
L 643.821785 -178.932056 
L 643.051563 -177.229002 
L 642.290694 -175.525948 
L 641.554565 -173.822895 
L 640.869461 -172.119841 
L 640.265918 -170.416787 
L 639.769612 -168.713733 
L 639.393523 -167.010679 
L 639.134163 -165.307626 
L 638.972871 -163.604572 
L 638.881322 -161.901518 
L 638.829247 -160.198464 
L 638.791925 -158.49541 
L 638.755161 -156.792357 
L 638.716224 -155.089303 
L 638.680553 -153.386249 
L 638.655751 -151.683195 
L 638.645621 -149.980141 
L 638.646927 -148.277088 
L 638.649928 -146.574034 
L 638.641689 -144.87098 
L 638.60998 -143.167926 
L 638.546134 -141.464872 
L 638.446535 -139.761819 
L 638.31321 -138.058765 
L 638.153685 -136.355711 
L 637.97959 -134.652657 
L 637.803761 -132.949603 
L 637.636609 -131.24655 
L 637.483501 -129.543496 
L 637.344511 -127.840442 
L 637.216526 -126.137388 
L 637.09631 -124.434334 
L 636.98284 -122.731281 
L 636.877909 -121.028227 
L 636.785103 -119.325173 
L 636.707979 -117.622119 
L 636.648462 -115.919065 
L 636.606134 -114.216012 
L 636.578529 -112.512958 
L 636.562075 -110.809904 
z
" style="stroke: #000000; stroke-width: 1.5"/>
    </defs>
    <g clip-path="url(#pbb73cb03a0)">
     <use xlink:href="#m2ebb361a7c" x="0" y="360" style="fill: #57e4be; stroke: #000000; stroke-width: 1.5"/>
    </g>
   </g>
   <g id="PolyCollection_6">
    <defs>
     <path id="m02a10bdd64" d="M 738.011175 -175.530524 
L 737.988825 -175.530524 
L 737.979586 -176.351881 
L 737.964487 -177.173238 
L 737.941069 -177.994595 
L 737.906557 -178.815952 
L 737.858163 -179.637309 
L 737.793475 -180.458666 
L 737.710826 -181.280023 
L 737.609497 -182.10138 
L 737.489632 -182.922737 
L 737.351838 -183.744093 
L 737.196602 -184.56545 
L 737.023736 -185.386807 
L 736.832057 -186.208164 
L 736.619353 -187.029521 
L 736.382478 -187.850878 
L 736.117327 -188.672235 
L 735.818551 -189.493592 
L 735.479152 -190.314949 
L 735.090486 -191.136306 
L 734.643275 -191.957663 
L 734.129984 -192.77902 
L 733.54827 -193.600377 
L 732.904482 -194.421734 
L 732.215857 -195.243091 
L 731.510271 -196.064448 
L 730.823321 -196.885805 
L 730.193393 -197.707162 
L 729.656013 -198.528518 
L 729.238674 -199.349875 
L 728.956888 -200.171232 
L 728.811782 -200.992589 
L 728.78945 -201.813946 
L 728.862378 -202.635303 
L 728.993176 -203.45666 
L 729.140318 -204.278017 
L 729.264814 -205.099374 
L 729.336126 -205.920731 
L 729.335728 -206.742088 
L 729.257527 -207.563445 
L 729.10555 -208.384802 
L 728.890193 -209.206159 
L 728.624511 -210.027516 
L 728.321527 -210.848873 
L 727.992699 -211.67023 
L 727.647062 -212.491587 
L 727.290486 -213.312944 
L 726.924822 -214.1343 
L 726.547116 -214.955657 
L 726.149419 -215.777014 
L 725.719733 -216.598371 
L 725.244516 -217.419728 
L 724.712849 -218.241085 
L 724.121752 -219.062442 
L 723.481342 -219.883799 
L 722.817837 -220.705156 
L 722.172408 -221.526513 
L 721.595039 -222.34787 
L 721.134565 -223.169227 
L 720.828034 -223.990584 
L 720.693269 -224.811941 
L 720.72735 -225.633298 
L 720.911237 -226.454655 
L 721.218194 -227.276012 
L 721.622442 -228.097369 
L 722.105044 -228.918726 
L 722.655723 -229.740082 
L 723.271113 -230.561439 
L 723.950893 -231.382796 
L 724.693365 -232.204153 
L 725.491652 -233.02551 
L 726.331375 -233.846867 
L 727.190433 -234.668224 
L 728.041213 -235.489581 
L 728.854901 -236.310938 
L 729.606802 -237.132295 
L 730.281037 -237.953652 
L 730.873161 -238.775009 
L 731.390037 -239.596366 
L 731.847371 -240.417723 
L 732.26599 -241.23908 
L 732.667937 -242.060437 
L 733.073 -242.881794 
L 733.495844 -243.703151 
L 733.943848 -244.524508 
L 734.415942 -245.345864 
L 734.902914 -246.167221 
L 735.389413 -246.988578 
L 735.857293 -247.809935 
L 736.289377 -248.631292 
L 736.672517 -249.452649 
L 736.999206 -250.274006 
L 737.267605 -251.095363 
L 737.480439 -251.91672 
L 737.643451 -252.738077 
L 737.763949 -253.559434 
L 737.849721 -254.380791 
L 737.908315 -255.202148 
L 737.94658 -256.023505 
L 737.97037 -256.844862 
L 738.02963 -256.844862 
L 738.02963 -256.844862 
L 738.05342 -256.023505 
L 738.091685 -255.202148 
L 738.150279 -254.380791 
L 738.236051 -253.559434 
L 738.356549 -252.738077 
L 738.519561 -251.91672 
L 738.732395 -251.095363 
L 739.000794 -250.274006 
L 739.327483 -249.452649 
L 739.710623 -248.631292 
L 740.142707 -247.809935 
L 740.610587 -246.988578 
L 741.097086 -246.167221 
L 741.584058 -245.345864 
L 742.056152 -244.524508 
L 742.504156 -243.703151 
L 742.927 -242.881794 
L 743.332063 -242.060437 
L 743.73401 -241.23908 
L 744.152629 -240.417723 
L 744.609963 -239.596366 
L 745.126839 -238.775009 
L 745.718963 -237.953652 
L 746.393198 -237.132295 
L 747.145099 -236.310938 
L 747.958787 -235.489581 
L 748.809567 -234.668224 
L 749.668625 -233.846867 
L 750.508348 -233.02551 
L 751.306635 -232.204153 
L 752.049107 -231.382796 
L 752.728887 -230.561439 
L 753.344277 -229.740082 
L 753.894956 -228.918726 
L 754.377558 -228.097369 
L 754.781806 -227.276012 
L 755.088763 -226.454655 
L 755.27265 -225.633298 
L 755.306731 -224.811941 
L 755.171966 -223.990584 
L 754.865435 -223.169227 
L 754.404961 -222.34787 
L 753.827592 -221.526513 
L 753.182163 -220.705156 
L 752.518658 -219.883799 
L 751.878248 -219.062442 
L 751.287151 -218.241085 
L 750.755484 -217.419728 
L 750.280267 -216.598371 
L 749.850581 -215.777014 
L 749.452884 -214.955657 
L 749.075178 -214.1343 
L 748.709514 -213.312944 
L 748.352938 -212.491587 
L 748.007301 -211.67023 
L 747.678473 -210.848873 
L 747.375489 -210.027516 
L 747.109807 -209.206159 
L 746.89445 -208.384802 
L 746.742473 -207.563445 
L 746.664272 -206.742088 
L 746.663874 -205.920731 
L 746.735186 -205.099374 
L 746.859682 -204.278017 
L 747.006824 -203.45666 
L 747.137622 -202.635303 
L 747.21055 -201.813946 
L 747.188218 -200.992589 
L 747.043112 -200.171232 
L 746.761326 -199.349875 
L 746.343987 -198.528518 
L 745.806607 -197.707162 
L 745.176679 -196.885805 
L 744.489729 -196.064448 
L 743.784143 -195.243091 
L 743.095518 -194.421734 
L 742.45173 -193.600377 
L 741.870016 -192.77902 
L 741.356725 -191.957663 
L 740.909514 -191.136306 
L 740.520848 -190.314949 
L 740.181449 -189.493592 
L 739.882673 -188.672235 
L 739.617522 -187.850878 
L 739.380647 -187.029521 
L 739.167943 -186.208164 
L 738.976264 -185.386807 
L 738.803398 -184.56545 
L 738.648162 -183.744093 
L 738.510368 -182.922737 
L 738.390503 -182.10138 
L 738.289174 -181.280023 
L 738.206525 -180.458666 
L 738.141837 -179.637309 
L 738.093443 -178.815952 
L 738.058931 -177.994595 
L 738.035513 -177.173238 
L 738.020414 -176.351881 
L 738.011175 -175.530524 
z
" style="stroke: #000000; stroke-width: 1.5"/>
    </defs>
    <g clip-path="url(#pbb73cb03a0)">
     <use xlink:href="#m02a10bdd64" x="0" y="360" style="fill: #221fd6; stroke: #000000; stroke-width: 1.5"/>
    </g>
   </g>
   <g id="PolyCollection_7">
    <defs>
     <path id="m0fdcd50c59" d="M 839.458004 -146.119493 
L 839.451087 -146.119493 
L 839.448903 -147.532077 
L 839.445951 -148.944661 
L 839.442321 -150.357245 
L 839.438311 -151.769829 
L 839.434414 -153.182414 
L 839.431235 -154.594998 
L 839.42934 -156.007582 
L 839.429091 -157.420166 
L 839.430523 -158.83275 
L 839.433318 -160.245334 
L 839.436868 -161.657919 
L 839.440369 -163.070503 
L 839.442867 -164.483087 
L 839.443144 -165.895671 
L 839.439399 -167.308255 
L 839.428698 -168.720839 
L 839.40624 -170.133424 
L 839.364606 -171.546008 
L 839.293235 -172.958592 
L 839.178479 -174.371176 
L 839.004609 -175.78376 
L 838.755917 -177.196344 
L 838.419723 -178.608929 
L 837.989587 -180.021513 
L 837.467659 -181.434097 
L 836.865153 -182.846681 
L 836.200407 -184.259265 
L 835.49487 -185.671849 
L 834.768182 -187.084434 
L 834.033947 -188.497018 
L 833.297596 -189.909602 
L 832.557027 -191.322186 
L 831.805829 -192.73477 
L 831.038053 -194.147354 
L 830.253041 -195.559939 
L 829.458754 -196.972523 
L 828.672451 -198.385107 
L 827.918468 -199.797691 
L 827.22393 -201.210275 
L 826.614116 -202.622859 
L 826.10941 -204.035444 
L 825.725004 -205.448028 
L 825.473089 -206.860612 
L 825.365924 -208.273196 
L 825.417573 -209.68578 
L 825.642682 -211.098364 
L 826.052099 -212.510949 
L 826.646722 -213.923533 
L 827.411861 -215.336117 
L 828.314376 -216.748701 
L 829.303981 -218.161285 
L 830.318834 -219.573869 
L 831.294403 -220.986454 
L 832.173705 -222.399038 
L 832.916674 -223.811622 
L 833.506523 -225.224206 
L 833.951638 -226.63679 
L 834.28255 -228.049374 
L 834.544723 -229.461959 
L 834.788782 -230.874543 
L 835.060278 -232.287127 
L 835.391037 -233.699711 
L 835.793756 -235.112295 
L 836.260757 -236.524879 
L 836.766975 -237.937464 
L 837.276243 -239.350048 
L 837.749146 -240.762632 
L 838.150367 -242.175216 
L 838.453812 -243.5878 
L 838.644686 -245.000384 
L 838.718834 -246.412969 
L 838.680388 -247.825553 
L 838.539082 -249.238137 
L 838.308246 -250.650721 
L 838.003927 -252.063305 
L 837.644948 -253.475889 
L 837.253222 -254.888474 
L 836.853468 -256.301058 
L 836.471613 -257.713642 
L 836.131799 -259.126226 
L 835.852705 -260.53881 
L 835.644659 -261.951394 
L 835.50908 -263.363978 
L 835.441017 -264.776563 
L 835.434082 -266.189147 
L 835.485642 -267.601731 
L 835.599573 -269.014315 
L 835.784786 -270.426899 
L 836.049718 -271.839483 
L 836.395164 -273.252068 
L 836.808945 -274.664652 
L 837.265203 -276.077236 
L 837.728969 -277.48982 
L 838.164172 -278.902404 
L 838.541814 -280.314988 
L 838.845292 -281.727573 
L 839.071461 -283.140157 
L 839.227962 -284.552741 
L 839.328615 -285.965325 
L 839.580476 -285.965325 
L 839.580476 -285.965325 
L 839.681129 -284.552741 
L 839.83763 -283.140157 
L 840.063799 -281.727573 
L 840.367277 -280.314988 
L 840.744918 -278.902404 
L 841.180122 -277.48982 
L 841.643888 -276.077236 
L 842.100146 -274.664652 
L 842.513927 -273.252068 
L 842.859373 -271.839483 
L 843.124305 -270.426899 
L 843.309518 -269.014315 
L 843.423449 -267.601731 
L 843.475009 -266.189147 
L 843.468074 -264.776563 
L 843.400011 -263.363978 
L 843.264432 -261.951394 
L 843.056386 -260.53881 
L 842.777292 -259.126226 
L 842.437478 -257.713642 
L 842.055623 -256.301058 
L 841.655868 -254.888474 
L 841.264143 -253.475889 
L 840.905163 -252.063305 
L 840.600845 -250.650721 
L 840.370009 -249.238137 
L 840.228703 -247.825553 
L 840.190257 -246.412969 
L 840.264405 -245.000384 
L 840.455279 -243.5878 
L 840.758723 -242.175216 
L 841.159945 -240.762632 
L 841.632848 -239.350048 
L 842.142116 -237.937464 
L 842.648334 -236.524879 
L 843.115334 -235.112295 
L 843.518054 -233.699711 
L 843.848813 -232.287127 
L 844.120308 -230.874543 
L 844.364368 -229.461959 
L 844.626541 -228.049374 
L 844.957453 -226.63679 
L 845.402568 -225.224206 
L 845.992417 -223.811622 
L 846.735386 -222.399038 
L 847.614688 -220.986454 
L 848.590257 -219.573869 
L 849.60511 -218.161285 
L 850.594715 -216.748701 
L 851.49723 -215.336117 
L 852.262369 -213.923533 
L 852.856992 -212.510949 
L 853.266409 -211.098364 
L 853.491518 -209.68578 
L 853.543167 -208.273196 
L 853.436002 -206.860612 
L 853.184087 -205.448028 
L 852.799681 -204.035444 
L 852.294975 -202.622859 
L 851.685161 -201.210275 
L 850.990622 -199.797691 
L 850.23664 -198.385107 
L 849.450337 -196.972523 
L 848.65605 -195.559939 
L 847.871038 -194.147354 
L 847.103262 -192.73477 
L 846.352064 -191.322186 
L 845.611495 -189.909602 
L 844.875144 -188.497018 
L 844.140909 -187.084434 
L 843.414221 -185.671849 
L 842.708684 -184.259265 
L 842.043938 -182.846681 
L 841.441432 -181.434097 
L 840.919504 -180.021513 
L 840.489367 -178.608929 
L 840.153174 -177.196344 
L 839.904482 -175.78376 
L 839.730612 -174.371176 
L 839.615856 -172.958592 
L 839.544485 -171.546008 
L 839.502851 -170.133424 
L 839.480393 -168.720839 
L 839.469692 -167.308255 
L 839.465947 -165.895671 
L 839.466224 -164.483087 
L 839.468721 -163.070503 
L 839.472223 -161.657919 
L 839.475773 -160.245334 
L 839.478568 -158.83275 
L 839.48 -157.420166 
L 839.479751 -156.007582 
L 839.477856 -154.594998 
L 839.474677 -153.182414 
L 839.47078 -151.769829 
L 839.466769 -150.357245 
L 839.46314 -148.944661 
L 839.460188 -147.532077 
L 839.458004 -146.119493 
z
" style="stroke: #000000; stroke-width: 1.5"/>
    </defs>
    <g clip-path="url(#pbb73cb03a0)">
     <use xlink:href="#m0fdcd50c59" x="0" y="360" style="fill: #2080df; stroke: #000000; stroke-width: 1.5"/>
    </g>
   </g>
   <g id="PolyCollection_8">
    <defs>
     <path id="mdeee9975e5" d="M 940.912182 -81.67089 
L 940.906 -81.67089 
L 940.903745 -83.784232 
L 940.900314 -85.897574 
L 940.895372 -88.010916 
L 940.888606 -90.124258 
L 940.879754 -92.2376 
L 940.868624 -94.350942 
L 940.855076 -96.464284 
L 940.838988 -98.577626 
L 940.820197 -100.690968 
L 940.798445 -102.80431 
L 940.77334 -104.917652 
L 940.744356 -107.030994 
L 940.710863 -109.144336 
L 940.67222 -111.257678 
L 940.627931 -113.37102 
L 940.577878 -115.484363 
L 940.522618 -117.597705 
L 940.46368 -119.711047 
L 940.403708 -121.824389 
L 940.346274 -123.937731 
L 940.295279 -126.051073 
L 940.253996 -128.164415 
L 940.224066 -130.277757 
L 940.204841 -132.391099 
L 940.193392 -134.504441 
L 940.185227 -136.617783 
L 940.17546 -138.731125 
L 940.160013 -140.844467 
L 940.136503 -142.957809 
L 940.104625 -145.071151 
L 940.066073 -147.184493 
L 940.02405 -149.297835 
L 939.982382 -151.411177 
L 939.944251 -153.524519 
L 939.910699 -155.637861 
L 939.879293 -157.751203 
L 939.843537 -159.864545 
L 939.793489 -161.977887 
L 939.717708 -164.091229 
L 939.606075 -166.204571 
L 939.452723 -168.317913 
L 939.258164 -170.431255 
L 939.030026 -172.544597 
L 938.782235 -174.657939 
L 938.53289 -176.771281 
L 938.301359 -178.884623 
L 938.105157 -180.997965 
L 937.95712 -183.111307 
L 937.863297 -185.224649 
L 937.821911 -187.337991 
L 937.82362 -189.451333 
L 937.853123 -191.564675 
L 937.891843 -193.678017 
L 937.921122 -195.791359 
L 937.925189 -197.904701 
L 937.893238 -200.018043 
L 937.820253 -202.131385 
L 937.706615 -204.244727 
L 937.556822 -206.358069 
L 937.377851 -208.471411 
L 937.17763 -210.584753 
L 936.96397 -212.698095 
L 936.744125 -214.811437 
L 936.524909 -216.924779 
L 936.31313 -219.038121 
L 936.115911 -221.151463 
L 935.940406 -223.264805 
L 935.792564 -225.378147 
L 935.674942 -227.491489 
L 935.584074 -229.604831 
L 935.508428 -231.718174 
L 935.428121 -233.831516 
L 935.317206 -235.944858 
L 935.148517 -238.0582 
L 934.900007 -240.171542 
L 934.560844 -242.284884 
L 934.135536 -244.398226 
L 933.645066 -246.511568 
L 933.12509 -248.62491 
L 932.622027 -250.738252 
L 932.188153 -252.851594 
L 931.876436 -254.964936 
L 931.735348 -257.078278 
L 931.803504 -259.19162 
L 932.10417 -261.304962 
L 932.640216 -263.418304 
L 933.390769 -265.531646 
L 934.311131 -267.644988 
L 935.337145 -269.75833 
L 936.393979 -271.871672 
L 937.407714 -273.985014 
L 938.316878 -276.098356 
L 939.080834 -278.211698 
L 939.682963 -280.32504 
L 940.12839 -282.438382 
L 940.437769 -284.551724 
L 940.639586 -286.665066 
L 940.763258 -288.778408 
L 940.834466 -290.89175 
L 940.983716 -290.89175 
L 940.983716 -290.89175 
L 941.054924 -288.778408 
L 941.178596 -286.665066 
L 941.380412 -284.551724 
L 941.689792 -282.438382 
L 942.135218 -280.32504 
L 942.737347 -278.211698 
L 943.501304 -276.098356 
L 944.410468 -273.985014 
L 945.424203 -271.871672 
L 946.481037 -269.75833 
L 947.507051 -267.644988 
L 948.427413 -265.531646 
L 949.177966 -263.418304 
L 949.714012 -261.304962 
L 950.014678 -259.19162 
L 950.082833 -257.078278 
L 949.941746 -254.964936 
L 949.630029 -252.851594 
L 949.196154 -250.738252 
L 948.693092 -248.62491 
L 948.173116 -246.511568 
L 947.682646 -244.398226 
L 947.257338 -242.284884 
L 946.918175 -240.171542 
L 946.669665 -238.0582 
L 946.500976 -235.944858 
L 946.390061 -233.831516 
L 946.309754 -231.718174 
L 946.234108 -229.604831 
L 946.14324 -227.491489 
L 946.025617 -225.378147 
L 945.877776 -223.264805 
L 945.702271 -221.151463 
L 945.505052 -219.038121 
L 945.293273 -216.924779 
L 945.074057 -214.811437 
L 944.854211 -212.698095 
L 944.640552 -210.584753 
L 944.440331 -208.471411 
L 944.26136 -206.358069 
L 944.111567 -204.244727 
L 943.997928 -202.131385 
L 943.924944 -200.018043 
L 943.892992 -197.904701 
L 943.89706 -195.791359 
L 943.926339 -193.678017 
L 943.965059 -191.564675 
L 943.994561 -189.451333 
L 943.99627 -187.337991 
L 943.954885 -185.224649 
L 943.861062 -183.111307 
L 943.713025 -180.997965 
L 943.516823 -178.884623 
L 943.285292 -176.771281 
L 943.035947 -174.657939 
L 942.788156 -172.544597 
L 942.560018 -170.431255 
L 942.365458 -168.317913 
L 942.212107 -166.204571 
L 942.100474 -164.091229 
L 942.024693 -161.977887 
L 941.974645 -159.864545 
L 941.938888 -157.751203 
L 941.907483 -155.637861 
L 941.87393 -153.524519 
L 941.8358 -151.411177 
L 941.794131 -149.297835 
L 941.752108 -147.184493 
L 941.713557 -145.071151 
L 941.681679 -142.957809 
L 941.658169 -140.844467 
L 941.642722 -138.731125 
L 941.632955 -136.617783 
L 941.62479 -134.504441 
L 941.613341 -132.391099 
L 941.594116 -130.277757 
L 941.564186 -128.164415 
L 941.522903 -126.051073 
L 941.471908 -123.937731 
L 941.414474 -121.824389 
L 941.354501 -119.711047 
L 941.295564 -117.597705 
L 941.240304 -115.484363 
L 941.190251 -113.37102 
L 941.145962 -111.257678 
L 941.107319 -109.144336 
L 941.073826 -107.030994 
L 941.044841 -104.917652 
L 941.019737 -102.80431 
L 940.997985 -100.690968 
L 940.979193 -98.577626 
L 940.963106 -96.464284 
L 940.949558 -94.350942 
L 940.938428 -92.2376 
L 940.929576 -90.124258 
L 940.922809 -88.010916 
L 940.917868 -85.897574 
L 940.914437 -83.784232 
L 940.912182 -81.67089 
z
" style="stroke: #000000; stroke-width: 1.5"/>
    </defs>
    <g clip-path="url(#pbb73cb03a0)">
     <use xlink:href="#mdeee9975e5" x="0" y="360" style="fill: #d78fee; stroke: #000000; stroke-width: 1.5"/>
    </g>
   </g>
   <g id="PolyCollection_9">
    <defs>
     <path id="me2761cebc4" d="M 1042.373808 -56.393235 
L 1042.353465 -56.393235 
L 1042.343884 -58.747798 
L 1042.327117 -61.10236 
L 1042.299354 -63.456923 
L 1042.255905 -65.811486 
L 1042.191719 -68.166049 
L 1042.102348 -70.520612 
L 1041.98529 -72.875174 
L 1041.841441 -75.229737 
L 1041.676231 -77.5843 
L 1041.499961 -79.938863 
L 1041.326991 -82.293425 
L 1041.173755 -84.647988 
L 1041.055955 -87.002551 
L 1040.985602 -89.357114 
L 1040.96869 -91.711677 
L 1041.004125 -94.066239 
L 1041.084172 -96.420802 
L 1041.196246 -98.775365 
L 1041.325541 -101.129928 
L 1041.457772 -103.484491 
L 1041.581397 -105.839053 
L 1041.688873 -108.193616 
L 1041.776828 -110.548179 
L 1041.845355 -112.902742 
L 1041.896813 -115.257305 
L 1041.934584 -117.611867 
L 1041.962122 -119.96643 
L 1041.98243 -122.320993 
L 1041.997899 -124.675556 
L 1042.010325 -127.030119 
L 1042.020909 -129.384681 
L 1042.030105 -131.739244 
L 1042.037249 -134.093807 
L 1042.039997 -136.44837 
L 1042.033613 -138.802932 
L 1042.010301 -141.157495 
L 1041.958898 -143.512058 
L 1041.86545 -145.866621 
L 1041.715176 -148.221184 
L 1041.495969 -150.575746 
L 1041.202879 -152.930309 
L 1040.842099 -155.284872 
L 1040.432531 -157.639435 
L 1040.003459 -159.993998 
L 1039.588324 -162.34856 
L 1039.21659 -164.703123 
L 1038.906946 -167.057686 
L 1038.664786 -169.412249 
L 1038.484882 -171.766812 
L 1038.357439 -174.121374 
L 1038.274037 -176.475937 
L 1038.230214 -178.8305 
L 1038.223657 -181.185063 
L 1038.249638 -183.539626 
L 1038.29687 -185.894188 
L 1038.34652 -188.248751 
L 1038.375078 -190.603314 
L 1038.359562 -192.957877 
L 1038.282335 -195.312439 
L 1038.133314 -197.667002 
L 1037.909066 -200.021565 
L 1037.610179 -202.376128 
L 1037.239289 -204.730691 
L 1036.801729 -207.085253 
L 1036.309119 -209.439816 
L 1035.784184 -211.794379 
L 1035.263675 -214.148942 
L 1034.796419 -216.503505 
L 1034.435288 -218.858067 
L 1034.224815 -221.21263 
L 1034.188793 -223.567193 
L 1034.323104 -225.921756 
L 1034.597443 -228.276319 
L 1034.965953 -230.630881 
L 1035.382744 -232.985444 
L 1035.815931 -235.340007 
L 1036.254413 -237.69457 
L 1036.705057 -240.049133 
L 1037.182351 -242.403695 
L 1037.695906 -244.758258 
L 1038.241634 -247.112821 
L 1038.80017 -249.467384 
L 1039.342394 -251.821946 
L 1039.83881 -254.176509 
L 1040.268359 -256.531072 
L 1040.623286 -258.885635 
L 1040.908885 -261.240198 
L 1041.13924 -263.59476 
L 1041.331284 -265.949323 
L 1041.499571 -268.303886 
L 1041.653236 -270.658449 
L 1041.795521 -273.013012 
L 1041.925255 -275.367574 
L 1042.039231 -277.722137 
L 1042.134446 -280.0767 
L 1042.209552 -282.431263 
L 1042.265294 -284.785826 
L 1042.304156 -287.140388 
L 1042.32959 -289.494951 
L 1042.397683 -289.494951 
L 1042.397683 -289.494951 
L 1042.423117 -287.140388 
L 1042.461979 -284.785826 
L 1042.517721 -282.431263 
L 1042.592827 -280.0767 
L 1042.688042 -277.722137 
L 1042.802017 -275.367574 
L 1042.931752 -273.013012 
L 1043.074037 -270.658449 
L 1043.227702 -268.303886 
L 1043.395988 -265.949323 
L 1043.588033 -263.59476 
L 1043.818387 -261.240198 
L 1044.103986 -258.885635 
L 1044.458913 -256.531072 
L 1044.888463 -254.176509 
L 1045.384879 -251.821946 
L 1045.927103 -249.467384 
L 1046.485639 -247.112821 
L 1047.031367 -244.758258 
L 1047.544922 -242.403695 
L 1048.022216 -240.049133 
L 1048.47286 -237.69457 
L 1048.911342 -235.340007 
L 1049.344528 -232.985444 
L 1049.76132 -230.630881 
L 1050.12983 -228.276319 
L 1050.404169 -225.921756 
L 1050.53848 -223.567193 
L 1050.502458 -221.21263 
L 1050.291985 -218.858067 
L 1049.930854 -216.503505 
L 1049.463598 -214.148942 
L 1048.943089 -211.794379 
L 1048.418153 -209.439816 
L 1047.925544 -207.085253 
L 1047.487983 -204.730691 
L 1047.117093 -202.376128 
L 1046.818207 -200.021565 
L 1046.593959 -197.667002 
L 1046.444938 -195.312439 
L 1046.367711 -192.957877 
L 1046.352195 -190.603314 
L 1046.380753 -188.248751 
L 1046.430402 -185.894188 
L 1046.477635 -183.539626 
L 1046.503616 -181.185063 
L 1046.497058 -178.8305 
L 1046.453236 -176.475937 
L 1046.369834 -174.121374 
L 1046.242391 -171.766812 
L 1046.062486 -169.412249 
L 1045.820327 -167.057686 
L 1045.510683 -164.703123 
L 1045.138949 -162.34856 
L 1044.723814 -159.993998 
L 1044.294742 -157.639435 
L 1043.885174 -155.284872 
L 1043.524393 -152.930309 
L 1043.231304 -150.575746 
L 1043.012097 -148.221184 
L 1042.861822 -145.866621 
L 1042.768375 -143.512058 
L 1042.716972 -141.157495 
L 1042.69366 -138.802932 
L 1042.687276 -136.44837 
L 1042.690024 -134.093807 
L 1042.697168 -131.739244 
L 1042.706363 -129.384681 
L 1042.716948 -127.030119 
L 1042.729374 -124.675556 
L 1042.744843 -122.320993 
L 1042.765151 -119.96643 
L 1042.792689 -117.611867 
L 1042.83046 -115.257305 
L 1042.881917 -112.902742 
L 1042.950445 -110.548179 
L 1043.0384 -108.193616 
L 1043.145875 -105.839053 
L 1043.269501 -103.484491 
L 1043.401732 -101.129928 
L 1043.531026 -98.775365 
L 1043.643101 -96.420802 
L 1043.723147 -94.066239 
L 1043.758583 -91.711677 
L 1043.741671 -89.357114 
L 1043.671317 -87.002551 
L 1043.553517 -84.647988 
L 1043.400282 -82.293425 
L 1043.227312 -79.938863 
L 1043.051042 -77.5843 
L 1042.885832 -75.229737 
L 1042.741983 -72.875174 
L 1042.624924 -70.520612 
L 1042.535554 -68.166049 
L 1042.471368 -65.811486 
L 1042.427919 -63.456923 
L 1042.400156 -61.10236 
L 1042.383389 -58.747798 
L 1042.373808 -56.393235 
z
" style="stroke: #000000; stroke-width: 1.5"/>
    </defs>
    <g clip-path="url(#pbb73cb03a0)">
     <use xlink:href="#me2761cebc4" x="0" y="360" style="fill: #107070; stroke: #000000; stroke-width: 1.5"/>
    </g>
   </g>
   <g id="PolyCollection_10">
    <defs>
     <path id="m572a8f91cc" d="M 1143.822599 -94.044266 
L 1143.813764 -94.044266 
L 1143.809556 -95.739453 
L 1143.802751 -97.434639 
L 1143.792728 -99.129825 
L 1143.779168 -100.825012 
L 1143.762148 -102.520198 
L 1143.742121 -104.215385 
L 1143.719813 -105.910571 
L 1143.696038 -107.605757 
L 1143.67137 -109.300944 
L 1143.645564 -110.99613 
L 1143.616904 -112.691317 
L 1143.581923 -114.386503 
L 1143.536009 -116.081689 
L 1143.474981 -117.776876 
L 1143.397009 -119.472062 
L 1143.303921 -121.167248 
L 1143.201107 -122.862435 
L 1143.095877 -124.557621 
L 1142.99478 -126.252808 
L 1142.90097 -127.947994 
L 1142.813058 -129.64318 
L 1142.726492 -131.338367 
L 1142.637115 -133.033553 
L 1142.544652 -134.72874 
L 1142.45328 -136.423926 
L 1142.36816 -138.119112 
L 1142.289948 -139.814299 
L 1142.211231 -141.509485 
L 1142.11778 -143.204671 
L 1141.994287 -144.899858 
L 1141.831377 -146.595044 
L 1141.630103 -148.290231 
L 1141.401732 -149.985417 
L 1141.16312 -151.680603 
L 1140.929812 -153.37579 
L 1140.709683 -155.070976 
L 1140.499494 -156.766163 
L 1140.285819 -158.461349 
L 1140.050623 -160.156535 
L 1139.779973 -161.851722 
L 1139.472128 -163.546908 
L 1139.139906 -165.242094 
L 1138.804046 -166.937281 
L 1138.479494 -168.632467 
L 1138.162075 -170.327654 
L 1137.824317 -172.02284 
L 1137.424654 -173.718026 
L 1136.926364 -175.413213 
L 1136.31673 -177.108399 
L 1135.616506 -178.803586 
L 1134.874789 -180.498772 
L 1134.151969 -182.193958 
L 1133.499497 -183.889145 
L 1132.946711 -185.584331 
L 1132.500752 -187.279517 
L 1132.157657 -188.974704 
L 1131.916008 -190.66989 
L 1131.783745 -192.365077 
L 1131.774842 -194.060263 
L 1131.900411 -195.755449 
L 1132.16205 -197.450636 
L 1132.551523 -199.145822 
L 1133.0546 -200.841008 
L 1133.654306 -202.536195 
L 1134.331567 -204.231381 
L 1135.06519 -205.926568 
L 1135.833648 -207.621754 
L 1136.618234 -209.31694 
L 1137.404703 -211.012127 
L 1138.181473 -212.707313 
L 1138.935655 -214.4025 
L 1139.650186 -216.097686 
L 1140.304514 -217.792872 
L 1140.878663 -219.488059 
L 1141.358519 -221.183245 
L 1141.739912 -222.878431 
L 1142.02999 -224.573618 
L 1142.245537 -226.268804 
L 1142.408855 -227.963991 
L 1142.542541 -229.659177 
L 1142.664746 -231.354363 
L 1142.786174 -233.04955 
L 1142.909384 -234.744736 
L 1143.030361 -236.439923 
L 1143.141868 -238.135109 
L 1143.237543 -239.830295 
L 1143.315133 -241.525482 
L 1143.37743 -243.220668 
L 1143.430597 -244.915854 
L 1143.481056 -246.611041 
L 1143.532797 -248.306227 
L 1143.586333 -250.001414 
L 1143.639358 -251.6966 
L 1143.688321 -253.391786 
L 1143.73 -255.086973 
L 1143.76253 -256.782159 
L 1143.785722 -258.477346 
L 1143.800774 -260.172532 
L 1143.809636 -261.867718 
L 1143.826728 -261.867718 
L 1143.826728 -261.867718 
L 1143.83559 -260.172532 
L 1143.850641 -258.477346 
L 1143.873833 -256.782159 
L 1143.906364 -255.086973 
L 1143.948042 -253.391786 
L 1143.997005 -251.6966 
L 1144.050031 -250.001414 
L 1144.103566 -248.306227 
L 1144.155308 -246.611041 
L 1144.205767 -244.915854 
L 1144.258933 -243.220668 
L 1144.321231 -241.525482 
L 1144.39882 -239.830295 
L 1144.494495 -238.135109 
L 1144.606003 -236.439923 
L 1144.72698 -234.744736 
L 1144.85019 -233.04955 
L 1144.971618 -231.354363 
L 1145.093823 -229.659177 
L 1145.227509 -227.963991 
L 1145.390827 -226.268804 
L 1145.606374 -224.573618 
L 1145.896452 -222.878431 
L 1146.277845 -221.183245 
L 1146.757701 -219.488059 
L 1147.33185 -217.792872 
L 1147.986178 -216.097686 
L 1148.700709 -214.4025 
L 1149.45489 -212.707313 
L 1150.231661 -211.012127 
L 1151.01813 -209.31694 
L 1151.802716 -207.621754 
L 1152.571173 -205.926568 
L 1153.304796 -204.231381 
L 1153.982058 -202.536195 
L 1154.581764 -200.841008 
L 1155.084841 -199.145822 
L 1155.474314 -197.450636 
L 1155.735953 -195.755449 
L 1155.861521 -194.060263 
L 1155.852618 -192.365077 
L 1155.720356 -190.66989 
L 1155.478706 -188.974704 
L 1155.135612 -187.279517 
L 1154.689653 -185.584331 
L 1154.136867 -183.889145 
L 1153.484395 -182.193958 
L 1152.761575 -180.498772 
L 1152.019857 -178.803586 
L 1151.319633 -177.108399 
L 1150.71 -175.413213 
L 1150.211709 -173.718026 
L 1149.812047 -172.02284 
L 1149.474289 -170.327654 
L 1149.156869 -168.632467 
L 1148.832318 -166.937281 
L 1148.496457 -165.242094 
L 1148.164236 -163.546908 
L 1147.856391 -161.851722 
L 1147.585741 -160.156535 
L 1147.350544 -158.461349 
L 1147.13687 -156.766163 
L 1146.92668 -155.070976 
L 1146.706552 -153.37579 
L 1146.473244 -151.680603 
L 1146.234632 -149.985417 
L 1146.006261 -148.290231 
L 1145.804987 -146.595044 
L 1145.642077 -144.899858 
L 1145.518583 -143.204671 
L 1145.425133 -141.509485 
L 1145.346416 -139.814299 
L 1145.268204 -138.119112 
L 1145.183083 -136.423926 
L 1145.091711 -134.72874 
L 1144.999249 -133.033553 
L 1144.909872 -131.338367 
L 1144.823305 -129.64318 
L 1144.735393 -127.947994 
L 1144.641584 -126.252808 
L 1144.540487 -124.557621 
L 1144.435257 -122.862435 
L 1144.332443 -121.167248 
L 1144.239354 -119.472062 
L 1144.161383 -117.776876 
L 1144.100354 -116.081689 
L 1144.054441 -114.386503 
L 1144.019459 -112.691317 
L 1143.9908 -110.99613 
L 1143.964994 -109.300944 
L 1143.940325 -107.605757 
L 1143.916551 -105.910571 
L 1143.894242 -104.215385 
L 1143.874216 -102.520198 
L 1143.857196 -100.825012 
L 1143.843636 -99.129825 
L 1143.833612 -97.434639 
L 1143.826807 -95.739453 
L 1143.822599 -94.044266 
z
" style="stroke: #000000; stroke-width: 1.5"/>
    </defs>
    <g clip-path="url(#pbb73cb03a0)">
     <use xlink:href="#m572a8f91cc" x="0" y="360" style="fill: #95aa8f; stroke: #000000; stroke-width: 1.5"/>
    </g>
   </g>
   <g id="PolyCollection_11">
    <defs>
     <path id="m630811f012" d="M 1245.285975 -137.780582 
L 1245.25948 -137.780582 
L 1245.23666 -138.596928 
L 1245.199511 -139.413275 
L 1245.153597 -140.229621 
L 1245.09074 -141.045967 
L 1244.966757 -141.862313 
L 1244.722989 -142.678659 
L 1244.32366 -143.495005 
L 1243.732584 -144.311351 
L 1242.874028 -145.127697 
L 1241.673778 -145.944043 
L 1240.065024 -146.760389 
L 1237.878036 -147.576735 
L 1234.912187 -148.393081 
L 1231.245883 -149.209427 
L 1227.260204 -150.025773 
L 1223.256907 -150.842119 
L 1219.224065 -151.658465 
L 1215.046836 -152.474812 
L 1210.905943 -153.291158 
L 1207.410465 -154.107504 
L 1205.252295 -154.92385 
L 1204.690909 -155.740196 
L 1205.328115 -156.556542 
L 1206.378519 -157.372888 
L 1207.248221 -158.189234 
L 1207.926458 -159.00558 
L 1208.935531 -159.821926 
L 1210.932015 -160.638272 
L 1214.210247 -161.454618 
L 1218.501592 -162.270964 
L 1223.15572 -163.08731 
L 1227.428416 -163.903656 
L 1230.79045 -164.720002 
L 1233.198842 -165.536348 
L 1235.023603 -166.352695 
L 1236.63423 -167.169041 
L 1238.116204 -167.985387 
L 1239.371404 -168.801733 
L 1240.347438 -169.618079 
L 1241.06297 -170.434425 
L 1241.509709 -171.250771 
L 1241.713095 -172.067117 
L 1241.85228 -172.883463 
L 1242.151957 -173.699809 
L 1242.65426 -174.516155 
L 1243.20574 -175.332501 
L 1243.658672 -176.148847 
L 1243.993753 -176.965193 
L 1244.260315 -177.781539 
L 1244.486006 -178.597885 
L 1244.664815 -179.414232 
L 1244.793443 -180.230578 
L 1244.887189 -181.046924 
L 1244.957225 -181.86327 
L 1244.994059 -182.679616 
L 1244.988774 -183.495962 
L 1244.964464 -184.312308 
L 1244.970316 -185.128654 
L 1245.032777 -185.945 
L 1245.126148 -186.761346 
L 1245.205152 -187.577692 
L 1245.249439 -188.394038 
L 1245.266767 -189.210384 
L 1245.271601 -190.02673 
L 1245.272563 -190.843076 
L 1245.272626 -191.659422 
L 1245.2721 -192.475769 
L 1245.269435 -193.292115 
L 1245.260282 -194.108461 
L 1245.238916 -194.924807 
L 1245.206697 -195.741153 
L 1245.180037 -196.557499 
L 1245.1792 -197.373845 
L 1245.204892 -198.190191 
L 1245.237362 -199.006537 
L 1245.259474 -199.822883 
L 1245.269157 -200.639229 
L 1245.272036 -201.455575 
L 1245.272631 -202.271921 
L 1245.272718 -203.088267 
L 1245.272727 -203.904613 
L 1245.272727 -204.720959 
L 1245.272727 -205.537305 
L 1245.272727 -206.353652 
L 1245.272727 -207.169998 
L 1245.272727 -207.986344 
L 1245.272727 -208.80269 
L 1245.272719 -209.619036 
L 1245.27264 -210.435382 
L 1245.272092 -211.251728 
L 1245.269395 -212.068074 
L 1245.260167 -212.88442 
L 1245.238692 -213.700766 
L 1245.206434 -214.517112 
L 1245.17991 -215.333458 
L 1245.179317 -216.149804 
L 1245.205154 -216.96615 
L 1245.23759 -217.782496 
L 1245.259594 -218.598842 
L 1245.285861 -218.598842 
L 1245.285861 -218.598842 
L 1245.307865 -217.782496 
L 1245.340301 -216.96615 
L 1245.366138 -216.149804 
L 1245.365544 -215.333458 
L 1245.339021 -214.517112 
L 1245.306762 -213.700766 
L 1245.285287 -212.88442 
L 1245.276059 -212.068074 
L 1245.273363 -211.251728 
L 1245.272814 -210.435382 
L 1245.272736 -209.619036 
L 1245.272728 -208.80269 
L 1245.272727 -207.986344 
L 1245.272727 -207.169998 
L 1245.272727 -206.353652 
L 1245.272727 -205.537305 
L 1245.272727 -204.720959 
L 1245.272728 -203.904613 
L 1245.272737 -203.088267 
L 1245.272823 -202.271921 
L 1245.273419 -201.455575 
L 1245.276297 -200.639229 
L 1245.285981 -199.822883 
L 1245.308093 -199.006537 
L 1245.340562 -198.190191 
L 1245.366254 -197.373845 
L 1245.365417 -196.557499 
L 1245.338757 -195.741153 
L 1245.306538 -194.924807 
L 1245.285172 -194.108461 
L 1245.27602 -193.292115 
L 1245.273355 -192.475769 
L 1245.272829 -191.659422 
L 1245.272892 -190.843076 
L 1245.273854 -190.02673 
L 1245.278687 -189.210384 
L 1245.296015 -188.394038 
L 1245.340303 -187.577692 
L 1245.419307 -186.761346 
L 1245.512677 -185.945 
L 1245.575139 -185.128654 
L 1245.580991 -184.312308 
L 1245.556681 -183.495962 
L 1245.551395 -182.679616 
L 1245.588229 -181.86327 
L 1245.658265 -181.046924 
L 1245.752011 -180.230578 
L 1245.880639 -179.414232 
L 1246.059449 -178.597885 
L 1246.28514 -177.781539 
L 1246.551702 -176.965193 
L 1246.886782 -176.148847 
L 1247.339714 -175.332501 
L 1247.891195 -174.516155 
L 1248.393498 -173.699809 
L 1248.693174 -172.883463 
L 1248.832359 -172.067117 
L 1249.035746 -171.250771 
L 1249.482484 -170.434425 
L 1250.198016 -169.618079 
L 1251.174051 -168.801733 
L 1252.42925 -167.985387 
L 1253.911225 -167.169041 
L 1255.521851 -166.352695 
L 1257.346613 -165.536348 
L 1259.755004 -164.720002 
L 1263.117039 -163.903656 
L 1267.389735 -163.08731 
L 1272.043863 -162.270964 
L 1276.335208 -161.454618 
L 1279.613439 -160.638272 
L 1281.609924 -159.821926 
L 1282.618996 -159.00558 
L 1283.297234 -158.189234 
L 1284.166935 -157.372888 
L 1285.21734 -156.556542 
L 1285.854545 -155.740196 
L 1285.293159 -154.92385 
L 1283.13499 -154.107504 
L 1279.639512 -153.291158 
L 1275.498619 -152.474812 
L 1271.32139 -151.658465 
L 1267.288547 -150.842119 
L 1263.285251 -150.025773 
L 1259.299572 -149.209427 
L 1255.633267 -148.393081 
L 1252.667419 -147.576735 
L 1250.48043 -146.760389 
L 1248.871677 -145.944043 
L 1247.671427 -145.127697 
L 1246.812871 -144.311351 
L 1246.221794 -143.495005 
L 1245.822466 -142.678659 
L 1245.578697 -141.862313 
L 1245.454715 -141.045967 
L 1245.391858 -140.229621 
L 1245.345944 -139.413275 
L 1245.308794 -138.596928 
L 1245.285975 -137.780582 
z
" style="stroke: #000000; stroke-width: 1.5"/>
    </defs>
    <g clip-path="url(#pbb73cb03a0)">
     <use xlink:href="#m630811f012" x="0" y="360" style="stroke: #000000; stroke-width: 1.5"/>
    </g>
   </g>
   <g id="line2d_20">
    <path d="M 230.727273 130.060407 
L 230.727273 83.466667 
" clip-path="url(#pbb73cb03a0)" style="fill: none; stroke: #000000; stroke-width: 1.5; stroke-linecap: round"/>
   </g>
   <g id="line2d_21">
    <path d="M 230.727273 106.122702 
L 230.727273 89.671658 
" clip-path="url(#pbb73cb03a0)" style="fill: none; stroke: #000000; stroke-width: 4.5; stroke-linecap: round"/>
   </g>
   <g id="line2d_22">
    <path d="M 332.181818 231.603692 
L 332.181818 89.768636 
" clip-path="url(#pbb73cb03a0)" style="fill: none; stroke: #000000; stroke-width: 1.5; stroke-linecap: round"/>
   </g>
   <g id="line2d_23">
    <path d="M 332.181818 160.30488 
L 332.181818 100.517075 
" clip-path="url(#pbb73cb03a0)" style="fill: none; stroke: #000000; stroke-width: 4.5; stroke-linecap: round"/>
   </g>
   <g id="line2d_24">
    <path d="M 433.636364 199.77671 
L 433.636364 103.099146 
" clip-path="url(#pbb73cb03a0)" style="fill: none; stroke: #000000; stroke-width: 1.5; stroke-linecap: round"/>
   </g>
   <g id="line2d_25">
    <path d="M 433.636364 156.625651 
L 433.636364 126.549762 
" clip-path="url(#pbb73cb03a0)" style="fill: none; stroke: #000000; stroke-width: 4.5; stroke-linecap: round"/>
   </g>
   <g id="line2d_26">
    <path d="M 535.090909 183.447594 
L 535.090909 86.145338 
" clip-path="url(#pbb73cb03a0)" style="fill: none; stroke: #000000; stroke-width: 1.5; stroke-linecap: round"/>
   </g>
   <g id="line2d_27">
    <path d="M 535.090909 147.067029 
L 535.090909 122.694686 
" clip-path="url(#pbb73cb03a0)" style="fill: none; stroke: #000000; stroke-width: 4.5; stroke-linecap: round"/>
   </g>
   <g id="line2d_28">
    <path d="M 636.545455 217.670694 
L 636.545455 114.949116 
" clip-path="url(#pbb73cb03a0)" style="fill: none; stroke: #000000; stroke-width: 1.5; stroke-linecap: round"/>
   </g>
   <g id="line2d_29">
    <path d="M 636.545455 179.257838 
L 636.545455 153.319006 
" clip-path="url(#pbb73cb03a0)" style="fill: none; stroke: #000000; stroke-width: 4.5; stroke-linecap: round"/>
   </g>
   <g id="line2d_30">
    <path d="M 738 178.118305 
L 738 109.50631 
" clip-path="url(#pbb73cb03a0)" style="fill: none; stroke: #000000; stroke-width: 1.5; stroke-linecap: round"/>
   </g>
   <g id="line2d_31">
    <path d="M 738 150.963447 
L 738 130.300674 
" clip-path="url(#pbb73cb03a0)" style="fill: none; stroke: #000000; stroke-width: 4.5; stroke-linecap: round"/>
   </g>
   <g id="line2d_32">
    <path d="M 839.454545 180.040476 
L 839.454545 93.285919 
" clip-path="url(#pbb73cb03a0)" style="fill: none; stroke: #000000; stroke-width: 1.5; stroke-linecap: round"/>
   </g>
   <g id="line2d_33">
    <path d="M 839.454545 158.015127 
L 839.454545 132.099025 
" clip-path="url(#pbb73cb03a0)" style="fill: none; stroke: #000000; stroke-width: 4.5; stroke-linecap: round"/>
   </g>
   <g id="line2d_34">
    <path d="M 940.909091 230.671695 
L 940.909091 85.496398 
" clip-path="url(#pbb73cb03a0)" style="fill: none; stroke: #000000; stroke-width: 1.5; stroke-linecap: round"/>
   </g>
   <g id="line2d_35">
    <path d="M 940.909091 154.275049 
L 940.909091 102.940888 
" clip-path="url(#pbb73cb03a0)" style="fill: none; stroke: #000000; stroke-width: 4.5; stroke-linecap: round"/>
   </g>
   <g id="line2d_36">
    <path d="M 1042.363636 248.895701 
L 1042.363636 89.311814 
" clip-path="url(#pbb73cb03a0)" style="fill: none; stroke: #000000; stroke-width: 1.5; stroke-linecap: round"/>
   </g>
   <g id="line2d_37">
    <path d="M 1042.363636 179.286486 
L 1042.363636 132.120041 
" clip-path="url(#pbb73cb03a0)" style="fill: none; stroke: #000000; stroke-width: 4.5; stroke-linecap: round"/>
   </g>
   <g id="line2d_38">
    <path d="M 1143.818182 226.082462 
L 1143.818182 117.195233 
" clip-path="url(#pbb73cb03a0)" style="fill: none; stroke: #000000; stroke-width: 1.5; stroke-linecap: round"/>
   </g>
   <g id="line2d_39">
    <path d="M 1143.818182 185.278076 
L 1143.818182 158.028062 
" clip-path="url(#pbb73cb03a0)" style="fill: none; stroke: #000000; stroke-width: 4.5; stroke-linecap: round"/>
   </g>
   <g id="line2d_40">
    <path d="M 1245.272727 216.884757 
L 1245.272727 187.840864 
" clip-path="url(#pbb73cb03a0)" style="fill: none; stroke: #000000; stroke-width: 1.5; stroke-linecap: round"/>
   </g>
   <g id="line2d_41">
    <path d="M 1245.272727 206.141371 
L 1245.272727 198.697131 
" clip-path="url(#pbb73cb03a0)" style="fill: none; stroke: #000000; stroke-width: 4.5; stroke-linecap: round"/>
   </g>
   <g id="line2d_42">
    <path clip-path="url(#pbb73cb03a0)" style="fill: none; stroke-dasharray: 5.55,2.4; stroke-dashoffset: 0; stroke: #ff0000; stroke-opacity: 0.2; stroke-width: 1.5"/>
   </g>
   <g id="line2d_43">
    <path clip-path="url(#pbb73cb03a0)" style="fill: none; stroke-dasharray: 5.55,2.4; stroke-dashoffset: 0; stroke: #ff0000; stroke-opacity: 0.2; stroke-width: 1.5"/>
   </g>
   <g id="patch_3">
    <path d="M 180 315 
L 180 43.2 
" style="fill: none; stroke: #262626; stroke-width: 0.8; stroke-linejoin: miter; stroke-linecap: square"/>
   </g>
   <g id="patch_4">
    <path d="M 1296 315 
L 1296 43.2 
" style="fill: none; stroke: #262626; stroke-width: 0.8; stroke-linejoin: miter; stroke-linecap: square"/>
   </g>
   <g id="patch_5">
    <path d="M 180 315 
L 1296 315 
" style="fill: none; stroke: #262626; stroke-width: 0.8; stroke-linejoin: miter; stroke-linecap: square"/>
   </g>
   <g id="patch_6">
    <path d="M 180 43.2 
L 1296 43.2 
" style="fill: none; stroke: #262626; stroke-width: 0.8; stroke-linejoin: miter; stroke-linecap: square"/>
   </g>
   <g id="PathCollection_1">
    <defs>
     <path id="maa4748beb0" d="M 0 1.5 
C 0.397805 1.5 0.77937 1.341951 1.06066 1.06066 
C 1.341951 0.77937 1.5 0.397805 1.5 0 
C 1.5 -0.397805 1.341951 -0.77937 1.06066 -1.06066 
C 0.77937 -1.341951 0.397805 -1.5 0 -1.5 
C -0.397805 -1.5 -0.77937 -1.341951 -1.06066 -1.06066 
C -1.341951 -0.77937 -1.5 -0.397805 -1.5 0 
C -1.5 0.397805 -1.341951 0.77937 -1.06066 1.06066 
C -0.77937 1.341951 -0.397805 1.5 0 1.5 
z
" style="stroke: #000000"/>
    </defs>
    <g clip-path="url(#pbb73cb03a0)">
     <use xlink:href="#maa4748beb0" x="230.727273" y="97.366889" style="fill: #ffffff; stroke: #000000"/>
    </g>
   </g>
   <g id="PathCollection_2">
    <g clip-path="url(#pbb73cb03a0)">
     <use xlink:href="#maa4748beb0" x="332.181818" y="114.798114" style="fill: #ffffff; stroke: #000000"/>
    </g>
   </g>
   <g id="PathCollection_3">
    <g clip-path="url(#pbb73cb03a0)">
     <use xlink:href="#maa4748beb0" x="433.636364" y="138.416755" style="fill: #ffffff; stroke: #000000"/>
    </g>
   </g>
   <g id="PathCollection_4">
    <g clip-path="url(#pbb73cb03a0)">
     <use xlink:href="#maa4748beb0" x="535.090909" y="133.740473" style="fill: #ffffff; stroke: #000000"/>
    </g>
   </g>
   <g id="PathCollection_5">
    <g clip-path="url(#pbb73cb03a0)">
     <use xlink:href="#maa4748beb0" x="636.545455" y="166.64872" style="fill: #ffffff; stroke: #000000"/>
    </g>
   </g>
   <g id="PathCollection_6">
    <g clip-path="url(#pbb73cb03a0)">
     <use xlink:href="#maa4748beb0" x="738" y="138.358204" style="fill: #ffffff; stroke: #000000"/>
    </g>
   </g>
   <g id="PathCollection_7">
    <g clip-path="url(#pbb73cb03a0)">
     <use xlink:href="#maa4748beb0" x="839.454545" y="148.246224" style="fill: #ffffff; stroke: #000000"/>
    </g>
   </g>
   <g id="PathCollection_8">
    <g clip-path="url(#pbb73cb03a0)">
     <use xlink:href="#maa4748beb0" x="940.909091" y="124.140669" style="fill: #ffffff; stroke: #000000"/>
    </g>
   </g>
   <g id="PathCollection_9">
    <g clip-path="url(#pbb73cb03a0)">
     <use xlink:href="#maa4748beb0" x="1042.363636" y="145.628966" style="fill: #ffffff; stroke: #000000"/>
    </g>
   </g>
   <g id="PathCollection_10">
    <g clip-path="url(#pbb73cb03a0)">
     <use xlink:href="#maa4748beb0" x="1143.818182" y="170.015081" style="fill: #ffffff; stroke: #000000"/>
    </g>
   </g>
   <g id="PathCollection_11">
    <g clip-path="url(#pbb73cb03a0)">
     <use xlink:href="#maa4748beb0" x="1245.272727" y="202.626118" style="fill: #ffffff; stroke: #000000"/>
    </g>
   </g>
   <g id="patch_7">
    <path d="M 322.036364 71.397412 
L 322.036364 67.82 
L 240.872727 67.82 
L 240.872727 71.397412 
" style="fill: none; stroke: #000000; stroke-linecap: round"/>
   </g>
   <g id="text_22">
    <text style="fill: #262626; font: 16px 'Arial', 'DejaVu Sans', 'Liberation Sans', 'Bitstream Vera Sans', sans-serif; text-anchor: middle" x="281.454545" y="67.748333" transform="rotate(-0 281.454545 67.748333)">***</text>
   </g>
   <g id="patch_8">
    <path d="M 423.490909 71.397412 
L 423.490909 67.82 
L 342.327273 67.82 
L 342.327273 71.397412 
" style="fill: none; stroke: #000000; stroke-linecap: round"/>
   </g>
   <g id="text_23">
    <text style="fill: #262626; font: 16px 'Arial', 'DejaVu Sans', 'Liberation Sans', 'Bitstream Vera Sans', sans-serif; text-anchor: middle" x="382.909091" y="67.748333" transform="rotate(-0 382.909091 67.748333)">***</text>
   </g>
   <g id="patch_9">
    <path d="M 524.945455 71.397412 
L 524.945455 67.82 
L 443.781818 67.82 
L 443.781818 71.397412 
" style="fill: none; stroke: #000000; stroke-linecap: round"/>
   </g>
   <g id="text_24">
    <text style="fill: #262626; font: 16px 'Arial', 'DejaVu Sans', 'Liberation Sans', 'Bitstream Vera Sans', sans-serif; text-anchor: middle" x="484.363636" y="67.748333" transform="rotate(-0 484.363636 67.748333)">***</text>
   </g>
   <g id="patch_10">
    <path d="M 626.4 71.397412 
L 626.4 67.82 
L 545.236364 67.82 
L 545.236364 71.397412 
" style="fill: none; stroke: #000000; stroke-linecap: round"/>
   </g>
   <g id="text_25">
    <text style="fill: #262626; font: 16px 'Arial', 'DejaVu Sans', 'Liberation Sans', 'Bitstream Vera Sans', sans-serif; text-anchor: middle" x="585.818182" y="67.748333" transform="rotate(-0 585.818182 67.748333)">***</text>
   </g>
   <g id="patch_11">
    <path d="M 727.854545 71.397412 
L 727.854545 67.82 
L 646.690909 67.82 
L 646.690909 71.397412 
" style="fill: none; stroke: #000000; stroke-linecap: round"/>
   </g>
   <g id="text_26">
    <text style="fill: #262626; font: 16px 'Arial', 'DejaVu Sans', 'Liberation Sans', 'Bitstream Vera Sans', sans-serif; text-anchor: middle" x="687.272727" y="67.748333" transform="rotate(-0 687.272727 67.748333)">***</text>
   </g>
   <g id="patch_12">
    <path d="M 829.309091 71.397412 
L 829.309091 67.82 
L 748.145455 67.82 
L 748.145455 71.397412 
" style="fill: none; stroke: #000000; stroke-linecap: round"/>
   </g>
   <g id="text_27">
    <text style="fill: #262626; font: 16px 'Arial', 'DejaVu Sans', 'Liberation Sans', 'Bitstream Vera Sans', sans-serif; text-anchor: middle" x="788.727273" y="67.748333" transform="rotate(-0 788.727273 67.748333)">***</text>
   </g>
   <g id="patch_13">
    <path d="M 930.763636 71.397412 
L 930.763636 67.82 
L 849.6 67.82 
L 849.6 71.397412 
" style="fill: none; stroke: #000000; stroke-linecap: round"/>
   </g>
   <g id="text_28">
    <text style="fill: #262626; font: 16px 'Arial', 'DejaVu Sans', 'Liberation Sans', 'Bitstream Vera Sans', sans-serif; text-anchor: middle" x="890.181818" y="67.748333" transform="rotate(-0 890.181818 67.748333)">***</text>
   </g>
   <g id="patch_14">
    <path d="M 1032.218182 71.397412 
L 1032.218182 67.82 
L 951.054545 67.82 
L 951.054545 71.397412 
" style="fill: none; stroke: #000000; stroke-linecap: round"/>
   </g>
   <g id="text_29">
    <text style="fill: #262626; font: 16px 'Arial', 'DejaVu Sans', 'Liberation Sans', 'Bitstream Vera Sans', sans-serif; text-anchor: middle" x="991.636364" y="67.748333" transform="rotate(-0 991.636364 67.748333)">***</text>
   </g>
   <g id="patch_15">
    <path d="M 1133.672727 71.397412 
L 1133.672727 67.82 
L 1052.509091 67.82 
L 1052.509091 71.397412 
" style="fill: none; stroke: #000000; stroke-linecap: round"/>
   </g>
   <g id="text_30">
    <text style="fill: #262626; font: 16px 'Arial', 'DejaVu Sans', 'Liberation Sans', 'Bitstream Vera Sans', sans-serif; text-anchor: middle" x="1093.090909" y="67.748333" transform="rotate(-0 1093.090909 67.748333)">***</text>
   </g>
   <g id="patch_16">
    <path d="M 1235.127273 71.397412 
L 1235.127273 67.82 
L 1153.963636 67.82 
L 1153.963636 71.397412 
" style="fill: none; stroke: #000000; stroke-linecap: round"/>
   </g>
   <g id="text_31">
    <text style="fill: #262626; font: 16px 'Arial', 'DejaVu Sans', 'Liberation Sans', 'Bitstream Vera Sans', sans-serif; text-anchor: middle" x="1194.545455" y="67.748333" transform="rotate(-0 1194.545455 67.748333)">***</text>
   </g>
   <g id="text_32">
    <g id="text_33">
     <g id="text_34">
      <text style="fill: #262626; font: 12px 'Arial', 'DejaVu Sans', 'Liberation Sans', 'Bitstream Vera Sans', sans-serif; text-anchor: middle" x="738" y="37.2" transform="rotate(-0 738 37.2)">Comparison of cell type Fges, GOI</text>
     </g>
    </g>
   </g>
   <defs>
    <clipPath id="pbb73cb03a0">
     <rect x="180" y="43.2" width="1116" height="271.8"/>
    </clipPath>
   </defs>
  </g>
 </g>
</svg>
