<?xml version="1.0" encoding="utf-8" standalone="no"?>
<!DOCTYPE svg PUBLIC "-//W3C//DTD SVG 1.1//EN"
  "http://www.w3.org/Graphics/SVG/1.1/DTD/svg11.dtd">
<svg xmlns:xlink="http://www.w3.org/1999/xlink" width="1440pt" height="360pt" viewBox="0 0 1440 360" xmlns="http://www.w3.org/2000/svg" version="1.1">
 <metadata>
  <rdf:RDF xmlns:dc="http://purl.org/dc/elements/1.1/" xmlns:cc="http://creativecommons.org/ns#" xmlns:rdf="http://www.w3.org/1999/02/22-rdf-syntax-ns#">
   <cc:Work>
    <dc:type rdf:resource="http://purl.org/dc/dcmitype/StillImage"/>
    <dc:date>2023-10-16T18:33:13.134663</dc:date>
    <dc:format>image/svg+xml</dc:format>
    <dc:creator>
     <cc:Agent>
      <dc:title>Matplotlib v3.5.2, https://matplotlib.org/</dc:title>
     </cc:Agent>
    </dc:creator>
   </cc:Work>
  </rdf:RDF>
 </metadata>
 <defs>
  <style type="text/css">*{stroke-linejoin: round; stroke-linecap: butt}</style>
 </defs>
 <g id="figure_1">
  <g id="patch_1">
   <path d="M 0 360 
L 1440 360 
L 1440 0 
L 0 0 
z
" style="fill: #ffffff"/>
  </g>
  <g id="axes_1">
   <g id="patch_2">
    <path d="M 180 315 
L 1296 315 
L 1296 43.2 
L 180 43.2 
z
" style="fill: #ffffff"/>
   </g>
   <g id="matplotlib.axis_1">
    <g id="xtick_1">
     <g id="line2d_1">
      <defs>
       <path id="m123c5c0cd9" d="M 0 0 
L 0 3.5 
" style="stroke: #262626; stroke-width: 0.8"/>
      </defs>
      <g>
       <use xlink:href="#m123c5c0cd9" x="222.923077" y="315" style="fill: #262626; stroke: #262626; stroke-width: 0.8"/>
      </g>
     </g>
     <g id="text_1">
      <text style="fill: #262626; font: 10px 'sans-serif'" transform="translate(225.682452 382.957812)rotate(-90)">BostonGene</text>
     </g>
    </g>
    <g id="xtick_2">
     <g id="line2d_2">
      <g>
       <use xlink:href="#m123c5c0cd9" x="308.769231" y="315" style="fill: #262626; stroke: #262626; stroke-width: 0.8"/>
      </g>
     </g>
     <g id="text_2">
      <text style="fill: #262626; font: 10px 'sans-serif'" transform="translate(311.528606 354.842188)rotate(-90)">Nirmal</text>
     </g>
    </g>
    <g id="xtick_3">
     <g id="line2d_3">
      <g>
       <use xlink:href="#m123c5c0cd9" x="394.615385" y="315" style="fill: #262626; stroke: #262626; stroke-width: 0.8"/>
      </g>
     </g>
     <g id="text_3">
      <text style="fill: #262626; font: 10px 'sans-serif'" transform="translate(397.37476 365.028125)rotate(-90)">BioCarta</text>
     </g>
    </g>
    <g id="xtick_4">
     <g id="line2d_4">
      <g>
       <use xlink:href="#m123c5c0cd9" x="480.461538" y="315" style="fill: #262626; stroke: #262626; stroke-width: 0.8"/>
      </g>
     </g>
     <g id="text_4">
      <text style="fill: #262626; font: 10px 'sans-serif'" transform="translate(483.220913 372.210938)rotate(-90)">Reactome</text>
     </g>
    </g>
    <g id="xtick_5">
     <g id="line2d_5">
      <g>
       <use xlink:href="#m123c5c0cd9" x="566.307692" y="315" style="fill: #262626; stroke: #262626; stroke-width: 0.8"/>
      </g>
     </g>
     <g id="text_5">
      <text style="fill: #262626; font: 10px 'sans-serif'" transform="translate(569.067067 346.610937)rotate(-90)">xCell</text>
     </g>
    </g>
    <g id="xtick_6">
     <g id="line2d_6">
      <g>
       <use xlink:href="#m123c5c0cd9" x="652.153846" y="315" style="fill: #262626; stroke: #262626; stroke-width: 0.8"/>
      </g>
     </g>
     <g id="text_6">
      <text style="fill: #262626; font: 10px 'sans-serif'" transform="translate(654.913221 356.60625)rotate(-90)">Bindea</text>
     </g>
    </g>
    <g id="xtick_7">
     <g id="line2d_7">
      <g>
       <use xlink:href="#m123c5c0cd9" x="738" y="315" style="fill: #262626; stroke: #262626; stroke-width: 0.8"/>
      </g>
     </g>
     <g id="text_7">
      <text style="fill: #262626; font: 10px 'sans-serif'" transform="translate(740.620312 393.545313)rotate(-90)">MSigDb_Other</text>
     </g>
    </g>
    <g id="xtick_8">
     <g id="line2d_8">
      <g>
       <use xlink:href="#m123c5c0cd9" x="823.846154" y="315" style="fill: #262626; stroke: #262626; stroke-width: 0.8"/>
      </g>
     </g>
     <g id="text_8">
      <text style="fill: #262626; font: 10px 'sans-serif'" transform="translate(826.605529 390.409375)rotate(-90)">WikiPathways</text>
     </g>
    </g>
    <g id="xtick_9">
     <g id="line2d_9">
      <g>
       <use xlink:href="#m123c5c0cd9" x="909.692308" y="315" style="fill: #262626; stroke: #262626; stroke-width: 0.8"/>
      </g>
     </g>
     <g id="text_9">
      <text style="fill: #262626; font: 10px 'sans-serif'" transform="translate(912.451683 350.373438)rotate(-90)">KEGG</text>
     </g>
    </g>
    <g id="xtick_10">
     <g id="line2d_10">
      <g>
       <use xlink:href="#m123c5c0cd9" x="995.538462" y="315" style="fill: #262626; stroke: #262626; stroke-width: 0.8"/>
      </g>
     </g>
     <g id="text_10">
      <text style="fill: #262626; font: 10px 'sans-serif'" transform="translate(998.158774 466.79375)rotate(-90)">Human_Phenotype_Ontology</text>
     </g>
    </g>
    <g id="xtick_11">
     <g id="line2d_11">
      <g>
       <use xlink:href="#m123c5c0cd9" x="1081.384615" y="315" style="fill: #262626; stroke: #262626; stroke-width: 0.8"/>
      </g>
     </g>
     <g id="text_11">
      <text style="fill: #262626; font: 10px 'sans-serif'" transform="translate(1084.004928 398.804688)rotate(-90)">Gene_Ontology</text>
     </g>
    </g>
    <g id="xtick_12">
     <g id="line2d_12">
      <g>
       <use xlink:href="#m123c5c0cd9" x="1167.230769" y="315" style="fill: #262626; stroke: #262626; stroke-width: 0.8"/>
      </g>
     </g>
     <g id="text_12">
      <text style="fill: #262626; font: 10px 'sans-serif'" transform="translate(1169.851082 438.428125)rotate(-90)">MSigDb_Dif_Expression</text>
     </g>
    </g>
    <g id="xtick_13">
     <g id="line2d_13">
      <g>
       <use xlink:href="#m123c5c0cd9" x="1253.076923" y="315" style="fill: #262626; stroke: #262626; stroke-width: 0.8"/>
      </g>
     </g>
     <g id="text_13">
      <text style="fill: #262626; font: 10px 'sans-serif'" transform="translate(1255.697236 394.564062)rotate(-90)">Random_FGES</text>
     </g>
    </g>
   </g>
   <g id="matplotlib.axis_2">
    <g id="ytick_1">
     <g id="line2d_14">
      <defs>
       <path id="mdf08e12f57" d="M 0 0 
L -3.5 0 
" style="stroke: #262626; stroke-width: 0.8"/>
      </defs>
      <g>
       <use xlink:href="#mdf08e12f57" x="180" y="304.737532" style="fill: #262626; stroke: #262626; stroke-width: 0.8"/>
      </g>
     </g>
     <g id="text_14">
      <text style="fill: #262626; font: 10px 'sans-serif'; text-anchor: end" x="173" y="308.536751" transform="rotate(-0, 173, 308.536751)">−10000</text>
     </g>
    </g>
    <g id="ytick_2">
     <g id="line2d_15">
      <g>
       <use xlink:href="#mdf08e12f57" x="180" y="249.014971" style="fill: #262626; stroke: #262626; stroke-width: 0.8"/>
      </g>
     </g>
     <g id="text_15">
      <text style="fill: #262626; font: 10px 'sans-serif'; text-anchor: end" x="173" y="252.81419" transform="rotate(-0, 173, 252.81419)">−5000</text>
     </g>
    </g>
    <g id="ytick_3">
     <g id="line2d_16">
      <g>
       <use xlink:href="#mdf08e12f57" x="180" y="193.29241" style="fill: #262626; stroke: #262626; stroke-width: 0.8"/>
      </g>
     </g>
     <g id="text_16">
      <text style="fill: #262626; font: 10px 'sans-serif'; text-anchor: end" x="173" y="197.091628" transform="rotate(-0, 173, 197.091628)">0</text>
     </g>
    </g>
    <g id="ytick_4">
     <g id="line2d_17">
      <g>
       <use xlink:href="#mdf08e12f57" x="180" y="137.569848" style="fill: #262626; stroke: #262626; stroke-width: 0.8"/>
      </g>
     </g>
     <g id="text_17">
      <text style="fill: #262626; font: 10px 'sans-serif'; text-anchor: end" x="173" y="141.369067" transform="rotate(-0, 173, 141.369067)">5000</text>
     </g>
    </g>
    <g id="ytick_5">
     <g id="line2d_18">
      <g>
       <use xlink:href="#mdf08e12f57" x="180" y="81.847287" style="fill: #262626; stroke: #262626; stroke-width: 0.8"/>
      </g>
     </g>
     <g id="text_18">
      <text style="fill: #262626; font: 10px 'sans-serif'; text-anchor: end" x="173" y="85.646505" transform="rotate(-0, 173, 85.646505)">10000</text>
     </g>
    </g>
    <g id="text_19">
     <text style="fill: #262626; font: 10px 'sans-serif'; text-anchor: middle" x="126.728125" y="179.1" transform="rotate(-90, 126.728125, 179.1)">Unscaled ssGSEA score</text>
    </g>
   </g>
   <g id="PolyCollection_1">
    <defs>
     <path id="mc8d39f9372" d="M 222.923195 -78.510343 
L 222.922959 -78.510343 
L 222.922556 -80.574835 
L 222.92132 -82.639327 
L 222.918303 -84.703819 
L 222.911823 -86.768312 
L 222.898116 -88.832804 
L 222.868682 -90.897296 
L 222.807871 -92.961788 
L 222.693118 -95.02628 
L 222.497121 -97.090772 
L 222.186363 -99.155264 
L 221.72068 -101.219756 
L 221.073747 -103.284248 
L 220.269567 -105.34874 
L 219.398442 -107.413233 
L 218.589262 -109.477725 
L 217.947505 -111.542217 
L 217.508406 -113.606709 
L 217.252663 -115.671201 
L 217.149629 -117.735693 
L 217.162516 -119.800185 
L 217.230025 -121.864677 
L 217.277306 -123.929169 
L 217.257279 -125.993662 
L 217.180378 -128.058154 
L 217.098 -130.122646 
L 217.055658 -132.187138 
L 217.068169 -134.25163 
L 217.132573 -136.316122 
L 217.245492 -138.380614 
L 217.396072 -140.445106 
L 217.562792 -142.509598 
L 217.743676 -144.57409 
L 217.96927 -146.638583 
L 218.26429 -148.703075 
L 218.614605 -150.767567 
L 218.976225 -152.832059 
L 219.302207 -154.896551 
L 219.569209 -156.961043 
L 219.783457 -159.025535 
L 219.959212 -161.090027 
L 220.107499 -163.154519 
L 220.242569 -165.219012 
L 220.379995 -167.283504 
L 220.529256 -169.347996 
L 220.687084 -171.412488 
L 220.840532 -173.47698 
L 220.982749 -175.541472 
L 221.114512 -177.605964 
L 221.235813 -179.670456 
L 221.348313 -181.734948 
L 221.455595 -183.79944 
L 221.555706 -185.863933 
L 221.642937 -187.928425 
L 221.716538 -189.992917 
L 221.779965 -192.057409 
L 221.836019 -194.121901 
L 221.888968 -196.186393 
L 221.943051 -198.250885 
L 221.994842 -200.315377 
L 222.037511 -202.379869 
L 222.070813 -204.444361 
L 222.099167 -206.508854 
L 222.12534 -208.573346 
L 222.149645 -210.637838 
L 222.173054 -212.70233 
L 222.199074 -214.766822 
L 222.229428 -216.831314 
L 222.260785 -218.895806 
L 222.290672 -220.960298 
L 222.321705 -223.02479 
L 222.356054 -225.089283 
L 222.391475 -227.153775 
L 222.42531 -229.218267 
L 222.456948 -231.282759 
L 222.486274 -233.347251 
L 222.51398 -235.411743 
L 222.541347 -237.476235 
L 222.567549 -239.540727 
L 222.589684 -241.605219 
L 222.605678 -243.669711 
L 222.614959 -245.734204 
L 222.619604 -247.798696 
L 222.625865 -249.863188 
L 222.637822 -251.92768 
L 222.651824 -253.992172 
L 222.664658 -256.056664 
L 222.679588 -258.121156 
L 222.696405 -260.185648 
L 222.706696 -262.25014 
L 222.706583 -264.314632 
L 222.70709 -266.379125 
L 222.725686 -268.443617 
L 222.76639 -270.508109 
L 222.81539 -272.572601 
L 222.858198 -274.637093 
L 222.889623 -276.701585 
L 222.909236 -278.766077 
L 222.918779 -280.830569 
L 222.922121 -282.895061 
L 222.924033 -282.895061 
L 222.924033 -282.895061 
L 222.927375 -280.830569 
L 222.936918 -278.766077 
L 222.95653 -276.701585 
L 222.987956 -274.637093 
L 223.030764 -272.572601 
L 223.079764 -270.508109 
L 223.120468 -268.443617 
L 223.139064 -266.379125 
L 223.139571 -264.314632 
L 223.139458 -262.25014 
L 223.149749 -260.185648 
L 223.166566 -258.121156 
L 223.181496 -256.056664 
L 223.194329 -253.992172 
L 223.208332 -251.92768 
L 223.220289 -249.863188 
L 223.226549 -247.798696 
L 223.231195 -245.734204 
L 223.240475 -243.669711 
L 223.25647 -241.605219 
L 223.278605 -239.540727 
L 223.304807 -237.476235 
L 223.332174 -235.411743 
L 223.35988 -233.347251 
L 223.389206 -231.282759 
L 223.420844 -229.218267 
L 223.454679 -227.153775 
L 223.4901 -225.089283 
L 223.524449 -223.02479 
L 223.555481 -220.960298 
L 223.585369 -218.895806 
L 223.616725 -216.831314 
L 223.64708 -214.766822 
L 223.6731 -212.70233 
L 223.696509 -210.637838 
L 223.720814 -208.573346 
L 223.746987 -206.508854 
L 223.775341 -204.444361 
L 223.808643 -202.379869 
L 223.851312 -200.315377 
L 223.903103 -198.250885 
L 223.957186 -196.186393 
L 224.010135 -194.121901 
L 224.066189 -192.057409 
L 224.129616 -189.992917 
L 224.203217 -187.928425 
L 224.290448 -185.863933 
L 224.390559 -183.79944 
L 224.497841 -181.734948 
L 224.610341 -179.670456 
L 224.731642 -177.605964 
L 224.863405 -175.541472 
L 225.005622 -173.47698 
L 225.15907 -171.412488 
L 225.316898 -169.347996 
L 225.466159 -167.283504 
L 225.603585 -165.219012 
L 225.738655 -163.154519 
L 225.886942 -161.090027 
L 226.062696 -159.025535 
L 226.276944 -156.961043 
L 226.543947 -154.896551 
L 226.869929 -152.832059 
L 227.231548 -150.767567 
L 227.581864 -148.703075 
L 227.876884 -146.638583 
L 228.102478 -144.57409 
L 228.283362 -142.509598 
L 228.450082 -140.445106 
L 228.600662 -138.380614 
L 228.713581 -136.316122 
L 228.777985 -134.25163 
L 228.790495 -132.187138 
L 228.748154 -130.122646 
L 228.665775 -128.058154 
L 228.588875 -125.993662 
L 228.568847 -123.929169 
L 228.616129 -121.864677 
L 228.683638 -119.800185 
L 228.696525 -117.735693 
L 228.593491 -115.671201 
L 228.337748 -113.606709 
L 227.898648 -111.542217 
L 227.256892 -109.477725 
L 226.447711 -107.413233 
L 225.576587 -105.34874 
L 224.772407 -103.284248 
L 224.125474 -101.219756 
L 223.659791 -99.155264 
L 223.349033 -97.090772 
L 223.153035 -95.02628 
L 223.038283 -92.961788 
L 222.977472 -90.897296 
L 222.948038 -88.832804 
L 222.934331 -86.768312 
L 222.927851 -84.703819 
L 222.924834 -82.639327 
L 222.923597 -80.574835 
L 222.923195 -78.510343 
z
" style="stroke: #000000; stroke-width: 1.5"/>
    </defs>
    <g clip-path="url(#p62cb2f1b70)">
     <use xlink:href="#mc8d39f9372" x="0" y="360" style="fill: #221fd6; stroke: #000000; stroke-width: 1.5"/>
    </g>
   </g>
   <g id="PolyCollection_2">
    <defs>
     <path id="m392c8ee435" d="M 308.769443 -80.844812 
L 308.769018 -80.844812 
L 308.768613 -82.844408 
L 308.767675 -84.844004 
L 308.765753 -86.8436 
L 308.762077 -88.843196 
L 308.755139 -90.842792 
L 308.741898 -92.842388 
L 308.716895 -94.841984 
L 308.67177 -96.84158 
L 308.595147 -98.841176 
L 308.472571 -100.840772 
L 308.287329 -102.840368 
L 308.024307 -104.839964 
L 307.676983 -106.83956 
L 307.253343 -108.839156 
L 306.776009 -110.838752 
L 306.277216 -112.838348 
L 305.793578 -114.837944 
L 305.363317 -116.83754 
L 305.023634 -118.837136 
L 304.805434 -120.836732 
L 304.726367 -122.836328 
L 304.785595 -124.835924 
L 304.963262 -126.83552 
L 305.225146 -128.835117 
L 305.528855 -130.834713 
L 305.827747 -132.834309 
L 306.075376 -134.833905 
L 306.235644 -136.833501 
L 306.294871 -138.833097 
L 306.264737 -140.832693 
L 306.172119 -142.832289 
L 306.04504 -144.831885 
L 305.906416 -146.831481 
L 305.776126 -148.831077 
L 305.672084 -150.830673 
L 305.605806 -152.830269 
L 305.579722 -154.829865 
L 305.592738 -156.829461 
L 305.647177 -158.829057 
L 305.745854 -160.828653 
L 305.880314 -162.828249 
L 306.022761 -164.827845 
L 306.131422 -166.827441 
L 306.168271 -168.827037 
L 306.11889 -170.826633 
L 306.000588 -172.826229 
L 305.849815 -174.825825 
L 305.694756 -176.825421 
L 305.532926 -178.825017 
L 305.331832 -180.824613 
L 305.054216 -182.824209 
L 304.69222 -184.823805 
L 304.286704 -186.823401 
L 303.914709 -188.822997 
L 303.653073 -190.822593 
L 303.549483 -192.822189 
L 303.621853 -194.821785 
L 303.87192 -196.821381 
L 304.286444 -198.820978 
L 304.823909 -200.820574 
L 305.409659 -202.82017 
L 305.955932 -204.819766 
L 306.396061 -206.819362 
L 306.707208 -208.818958 
L 306.908297 -210.818554 
L 307.04089 -212.81815 
L 307.14775 -214.817746 
L 307.257441 -216.817342 
L 307.377661 -218.816938 
L 307.498371 -220.816534 
L 307.60272 -222.81613 
L 307.679234 -224.815726 
L 307.728073 -226.815322 
L 307.759031 -228.814918 
L 307.785105 -230.814514 
L 307.817338 -232.81411 
L 307.863102 -234.813706 
L 307.925662 -236.813302 
L 308.002842 -238.812898 
L 308.085605 -240.812494 
L 308.158542 -242.81209 
L 308.2038 -244.811686 
L 308.209573 -246.811282 
L 308.180428 -248.810878 
L 308.139935 -250.810474 
L 308.118353 -252.81007 
L 308.133424 -254.809666 
L 308.182516 -256.809262 
L 308.252561 -258.808858 
L 308.334037 -260.808454 
L 308.42344 -262.80805 
L 308.516045 -264.807646 
L 308.601986 -266.807242 
L 308.670841 -268.806839 
L 308.717953 -270.806435 
L 308.745598 -272.806031 
L 308.759625 -274.805627 
L 308.765811 -276.805223 
L 308.768175 -278.804819 
L 308.770286 -278.804819 
L 308.770286 -278.804819 
L 308.772651 -276.805223 
L 308.778836 -274.805627 
L 308.792864 -272.806031 
L 308.820509 -270.806435 
L 308.86762 -268.806839 
L 308.936476 -266.807242 
L 309.022417 -264.807646 
L 309.115021 -262.80805 
L 309.204425 -260.808454 
L 309.285901 -258.808858 
L 309.355946 -256.809262 
L 309.405038 -254.809666 
L 309.420109 -252.81007 
L 309.398526 -250.810474 
L 309.358033 -248.810878 
L 309.328888 -246.811282 
L 309.334661 -244.811686 
L 309.379919 -242.81209 
L 309.452857 -240.812494 
L 309.53562 -238.812898 
L 309.6128 -236.813302 
L 309.67536 -234.813706 
L 309.721124 -232.81411 
L 309.753357 -230.814514 
L 309.779431 -228.814918 
L 309.810389 -226.815322 
L 309.859228 -224.815726 
L 309.935742 -222.81613 
L 310.04009 -220.816534 
L 310.160801 -218.816938 
L 310.281021 -216.817342 
L 310.390711 -214.817746 
L 310.497571 -212.81815 
L 310.630165 -210.818554 
L 310.831254 -208.818958 
L 311.142401 -206.819362 
L 311.582529 -204.819766 
L 312.128803 -202.82017 
L 312.714553 -200.820574 
L 313.252018 -198.820978 
L 313.666541 -196.821381 
L 313.916608 -194.821785 
L 313.988978 -192.822189 
L 313.885389 -190.822593 
L 313.623752 -188.822997 
L 313.251757 -186.823401 
L 312.846242 -184.823805 
L 312.484246 -182.824209 
L 312.20663 -180.824613 
L 312.005536 -178.825017 
L 311.843705 -176.825421 
L 311.688646 -174.825825 
L 311.537873 -172.826229 
L 311.419571 -170.826633 
L 311.370191 -168.827037 
L 311.407039 -166.827441 
L 311.5157 -164.827845 
L 311.658147 -162.828249 
L 311.792608 -160.828653 
L 311.891284 -158.829057 
L 311.945723 -156.829461 
L 311.95874 -154.829865 
L 311.932656 -152.830269 
L 311.866377 -150.830673 
L 311.762336 -148.831077 
L 311.632045 -146.831481 
L 311.493421 -144.831885 
L 311.366343 -142.832289 
L 311.273724 -140.832693 
L 311.243591 -138.833097 
L 311.302817 -136.833501 
L 311.463085 -134.833905 
L 311.710715 -132.834309 
L 312.009607 -130.834713 
L 312.313316 -128.835117 
L 312.575199 -126.83552 
L 312.752866 -124.835924 
L 312.812094 -122.836328 
L 312.733027 -120.836732 
L 312.514828 -118.837136 
L 312.175145 -116.83754 
L 311.744883 -114.837944 
L 311.261245 -112.838348 
L 310.762452 -110.838752 
L 310.285119 -108.839156 
L 309.861479 -106.83956 
L 309.514154 -104.839964 
L 309.251132 -102.840368 
L 309.065891 -100.840772 
L 308.943315 -98.841176 
L 308.866692 -96.84158 
L 308.821567 -94.841984 
L 308.796564 -92.842388 
L 308.783322 -90.842792 
L 308.776385 -88.843196 
L 308.772709 -86.8436 
L 308.770787 -84.844004 
L 308.769849 -82.844408 
L 308.769443 -80.844812 
z
" style="stroke: #000000; stroke-width: 1.5"/>
    </defs>
    <g clip-path="url(#p62cb2f1b70)">
     <use xlink:href="#m392c8ee435" x="0" y="360" style="fill: #784878; stroke: #000000; stroke-width: 1.5"/>
    </g>
   </g>
   <g id="PolyCollection_3">
    <defs>
     <path id="m587be4e7c6" d="M 394.616344 -87.593091 
L 394.614425 -87.593091 
L 394.613095 -89.500723 
L 394.610439 -91.408354 
L 394.605545 -93.315985 
L 394.59699 -95.223616 
L 394.58248 -97.131248 
L 394.558442 -99.038879 
L 394.519894 -100.94651 
L 394.461023 -102.854141 
L 394.376603 -104.761773 
L 394.264001 -106.669404 
L 394.125077 -108.577035 
L 393.96719 -110.484666 
L 393.802602 -112.392298 
L 393.646184 -114.299929 
L 393.51201 -116.20756 
L 393.41002 -118.115191 
L 393.343827 -120.022823 
L 393.310319 -121.930454 
L 393.301075 -123.838085 
L 393.304964 -125.745716 
L 393.31073 -127.653348 
L 393.308523 -129.560979 
L 393.290304 -131.46861 
L 393.250175 -133.376241 
L 393.185594 -135.283873 
L 393.099221 -137.191504 
L 392.99985 -139.099135 
L 392.901025 -141.006767 
L 392.817367 -142.914398 
L 392.760115 -144.822029 
L 392.733679 -146.72966 
L 392.734332 -148.637292 
L 392.751351 -150.544923 
L 392.770477 -152.452554 
L 392.778895 -154.360185 
L 392.769844 -156.267817 
L 392.744358 -158.175448 
L 392.708619 -160.083079 
L 392.668106 -161.99071 
L 392.622204 -163.898342 
L 392.563177 -165.805973 
L 392.480574 -167.713604 
L 392.368192 -169.621235 
L 392.229065 -171.528867 
L 392.075764 -173.436498 
L 391.926589 -175.344129 
L 391.799725 -177.25176 
L 391.707223 -179.159392 
L 391.650702 -181.067023 
L 391.621199 -182.974654 
L 391.604303 -184.882285 
L 391.588065 -186.789917 
L 391.568588 -188.697548 
L 391.550041 -190.605179 
L 391.540458 -192.51281 
L 391.547221 -194.420442 
L 391.574579 -196.328073 
L 391.622809 -198.235704 
L 391.68772 -200.143335 
L 391.760289 -202.050967 
L 391.827047 -203.958598 
L 391.871595 -205.866229 
L 391.877078 -207.77386 
L 391.829171 -209.681492 
L 391.719092 -211.589123 
L 391.546018 -213.496754 
L 391.318092 -215.404385 
L 391.051372 -217.312017 
L 390.767007 -219.219648 
L 390.487968 -221.127279 
L 390.236733 -223.03491 
L 390.034099 -224.942542 
L 389.898066 -226.850173 
L 389.841793 -228.757804 
L 389.870361 -230.665435 
L 389.976788 -232.573067 
L 390.139054 -234.480698 
L 390.321978 -236.388329 
L 390.487886 -238.29596 
L 390.615056 -240.203592 
L 390.714434 -242.111223 
L 390.830714 -244.018854 
L 391.02097 -245.926485 
L 391.32076 -247.834117 
L 391.720698 -249.741748 
L 392.17171 -251.649379 
L 392.615226 -253.55701 
L 393.014266 -255.464642 
L 393.362414 -257.372273 
L 393.66914 -259.279904 
L 393.939826 -261.187535 
L 394.16862 -263.095167 
L 394.345785 -265.002798 
L 394.468181 -266.910429 
L 394.542847 -268.81806 
L 394.58306 -270.725692 
L 394.60229 -272.633323 
L 394.610532 -274.540954 
L 394.613731 -276.448585 
L 394.617038 -276.448585 
L 394.617038 -276.448585 
L 394.620237 -274.540954 
L 394.628479 -272.633323 
L 394.647709 -270.725692 
L 394.687922 -268.81806 
L 394.762588 -266.910429 
L 394.884984 -265.002798 
L 395.062149 -263.095167 
L 395.290944 -261.187535 
L 395.56163 -259.279904 
L 395.868355 -257.372273 
L 396.216504 -255.464642 
L 396.615543 -253.55701 
L 397.059059 -251.649379 
L 397.510071 -249.741748 
L 397.910009 -247.834117 
L 398.209799 -245.926485 
L 398.400055 -244.018854 
L 398.516335 -242.111223 
L 398.615713 -240.203592 
L 398.742883 -238.29596 
L 398.908791 -236.388329 
L 399.091716 -234.480698 
L 399.253982 -232.573067 
L 399.360408 -230.665435 
L 399.388976 -228.757804 
L 399.332703 -226.850173 
L 399.19667 -224.942542 
L 398.994036 -223.03491 
L 398.742802 -221.127279 
L 398.463762 -219.219648 
L 398.179397 -217.312017 
L 397.912678 -215.404385 
L 397.684751 -213.496754 
L 397.511677 -211.589123 
L 397.401598 -209.681492 
L 397.353691 -207.77386 
L 397.359175 -205.866229 
L 397.403722 -203.958598 
L 397.47048 -202.050967 
L 397.543049 -200.143335 
L 397.60796 -198.235704 
L 397.656191 -196.328073 
L 397.683548 -194.420442 
L 397.690311 -192.51281 
L 397.680729 -190.605179 
L 397.662181 -188.697548 
L 397.642704 -186.789917 
L 397.626466 -184.882285 
L 397.60957 -182.974654 
L 397.580067 -181.067023 
L 397.523547 -179.159392 
L 397.431045 -177.25176 
L 397.30418 -175.344129 
L 397.155006 -173.436498 
L 397.001705 -171.528867 
L 396.862577 -169.621235 
L 396.750195 -167.713604 
L 396.667592 -165.805973 
L 396.608565 -163.898342 
L 396.562663 -161.99071 
L 396.52215 -160.083079 
L 396.486411 -158.175448 
L 396.460925 -156.267817 
L 396.451875 -154.360185 
L 396.460292 -152.452554 
L 396.479419 -150.544923 
L 396.496437 -148.637292 
L 396.49709 -146.72966 
L 396.470654 -144.822029 
L 396.413402 -142.914398 
L 396.329744 -141.006767 
L 396.230919 -139.099135 
L 396.131548 -137.191504 
L 396.045175 -135.283873 
L 395.980594 -133.376241 
L 395.940465 -131.46861 
L 395.922246 -129.560979 
L 395.920039 -127.653348 
L 395.925806 -125.745716 
L 395.929694 -123.838085 
L 395.92045 -121.930454 
L 395.886942 -120.022823 
L 395.820749 -118.115191 
L 395.718759 -116.20756 
L 395.584586 -114.299929 
L 395.428167 -112.392298 
L 395.26358 -110.484666 
L 395.105692 -108.577035 
L 394.966769 -106.669404 
L 394.854166 -104.761773 
L 394.769747 -102.854141 
L 394.710875 -100.94651 
L 394.672328 -99.038879 
L 394.648289 -97.131248 
L 394.633779 -95.223616 
L 394.625224 -93.315985 
L 394.62033 -91.408354 
L 394.617675 -89.500723 
L 394.616344 -87.593091 
z
" style="stroke: #000000; stroke-width: 1.5"/>
    </defs>
    <g clip-path="url(#p62cb2f1b70)">
     <use xlink:href="#m587be4e7c6" x="0" y="360" style="fill: #ee8cc2; stroke: #000000; stroke-width: 1.5"/>
    </g>
   </g>
   <g id="PolyCollection_4">
    <defs>
     <path id="m6a03cbbbbe" d="M 480.46191 -111.638489 
L 480.461167 -111.638489 
L 480.460631 -113.130751 
L 480.459721 -114.623014 
L 480.458524 -116.115276 
L 480.457298 -117.607538 
L 480.456202 -119.0998 
L 480.454879 -120.592063 
L 480.452294 -122.084325 
L 480.447066 -123.576587 
L 480.438002 -125.06885 
L 480.424203 -126.561112 
L 480.40446 -128.053374 
L 480.376101 -129.545636 
L 480.333707 -131.037899 
L 480.268235 -132.530161 
L 480.167049 -134.022423 
L 480.015445 -135.514686 
L 479.801097 -137.006948 
L 479.522624 -138.49921 
L 479.198926 -139.991472 
L 478.870875 -141.483735 
L 478.590203 -142.975997 
L 478.400586 -144.468259 
L 478.322309 -145.960521 
L 478.349444 -147.452784 
L 478.459875 -148.945046 
L 478.628983 -150.437308 
L 478.835909 -151.929571 
L 479.060658 -153.421833 
L 479.280603 -154.914095 
L 479.473666 -156.406357 
L 479.625372 -157.89862 
L 479.731696 -159.390882 
L 479.79478 -160.883144 
L 479.816428 -162.375407 
L 479.795445 -163.867669 
L 479.72973 -165.359931 
L 479.62018 -166.852193 
L 479.474314 -168.344456 
L 479.308508 -169.836718 
L 479.146018 -171.32898 
L 479.00938 -172.821243 
L 478.911887 -174.313505 
L 478.854341 -175.805767 
L 478.826662 -177.298029 
L 478.809945 -178.790292 
L 478.778097 -180.282554 
L 478.699468 -181.774816 
L 478.536175 -183.267078 
L 478.243339 -184.759341 
L 477.780996 -186.251603 
L 477.147293 -187.743865 
L 476.414624 -189.236128 
L 475.730134 -190.72839 
L 475.263596 -192.220652 
L 475.129787 -193.712914 
L 475.32534 -195.205177 
L 475.701762 -196.697439 
L 475.990348 -198.189701 
L 475.89128 -199.681964 
L 475.199059 -201.174226 
L 473.889352 -202.666488 
L 472.107946 -204.15875 
L 470.086814 -205.651013 
L 468.085007 -207.143275 
L 466.413124 -208.635537 
L 465.459909 -210.1278 
L 465.580083 -211.620062 
L 466.862535 -213.112324 
L 469.001737 -214.604586 
L 471.439477 -216.096849 
L 473.665485 -217.589111 
L 475.4191 -219.081373 
L 476.678576 -220.573635 
L 477.535649 -222.065898 
L 478.093222 -223.55816 
L 478.428965 -225.050422 
L 478.595437 -226.542685 
L 478.625605 -228.034947 
L 478.534981 -229.527209 
L 478.330527 -231.019471 
L 478.039826 -232.511734 
L 477.744363 -234.003996 
L 477.570407 -235.496258 
L 477.623041 -236.988521 
L 477.91917 -238.480783 
L 478.384236 -239.973045 
L 478.907315 -241.465307 
L 479.395974 -242.95757 
L 479.795544 -244.449832 
L 480.084783 -245.942094 
L 480.268515 -247.434357 
L 480.369819 -248.926619 
L 480.418514 -250.418881 
L 480.439901 -251.911143 
L 480.449626 -253.403406 
L 480.454883 -254.895668 
L 480.458107 -256.38793 
L 480.460004 -257.880193 
L 480.460962 -259.372455 
L 480.462115 -259.372455 
L 480.462115 -259.372455 
L 480.463073 -257.880193 
L 480.46497 -256.38793 
L 480.468194 -254.895668 
L 480.47345 -253.403406 
L 480.483176 -251.911143 
L 480.504562 -250.418881 
L 480.553258 -248.926619 
L 480.654562 -247.434357 
L 480.838294 -245.942094 
L 481.127533 -244.449832 
L 481.527103 -242.95757 
L 482.015762 -241.465307 
L 482.538841 -239.973045 
L 483.003907 -238.480783 
L 483.300036 -236.988521 
L 483.35267 -235.496258 
L 483.178714 -234.003996 
L 482.883251 -232.511734 
L 482.592549 -231.019471 
L 482.388096 -229.527209 
L 482.297472 -228.034947 
L 482.32764 -226.542685 
L 482.494112 -225.050422 
L 482.829855 -223.55816 
L 483.387428 -222.065898 
L 484.244501 -220.573635 
L 485.503977 -219.081373 
L 487.257592 -217.589111 
L 489.4836 -216.096849 
L 491.92134 -214.604586 
L 494.060542 -213.112324 
L 495.342994 -211.620062 
L 495.463168 -210.1278 
L 494.509953 -208.635537 
L 492.83807 -207.143275 
L 490.836262 -205.651013 
L 488.815131 -204.15875 
L 487.033725 -202.666488 
L 485.724018 -201.174226 
L 485.031797 -199.681964 
L 484.932729 -198.189701 
L 485.221315 -196.697439 
L 485.597737 -195.205177 
L 485.79329 -193.712914 
L 485.659481 -192.220652 
L 485.192943 -190.72839 
L 484.508453 -189.236128 
L 483.775784 -187.743865 
L 483.142081 -186.251603 
L 482.679738 -184.759341 
L 482.386902 -183.267078 
L 482.223609 -181.774816 
L 482.14498 -180.282554 
L 482.113132 -178.790292 
L 482.096415 -177.298029 
L 482.068736 -175.805767 
L 482.01119 -174.313505 
L 481.913696 -172.821243 
L 481.777059 -171.32898 
L 481.614569 -169.836718 
L 481.448763 -168.344456 
L 481.302897 -166.852193 
L 481.193346 -165.359931 
L 481.127632 -163.867669 
L 481.106649 -162.375407 
L 481.128297 -160.883144 
L 481.191381 -159.390882 
L 481.297705 -157.89862 
L 481.449411 -156.406357 
L 481.642473 -154.914095 
L 481.862419 -153.421833 
L 482.087168 -151.929571 
L 482.294094 -150.437308 
L 482.463202 -148.945046 
L 482.573633 -147.452784 
L 482.600768 -145.960521 
L 482.522491 -144.468259 
L 482.332874 -142.975997 
L 482.052202 -141.483735 
L 481.724151 -139.991472 
L 481.400453 -138.49921 
L 481.12198 -137.006948 
L 480.907632 -135.514686 
L 480.756028 -134.022423 
L 480.654842 -132.530161 
L 480.58937 -131.037899 
L 480.546976 -129.545636 
L 480.518617 -128.053374 
L 480.498874 -126.561112 
L 480.485075 -125.06885 
L 480.476011 -123.576587 
L 480.470783 -122.084325 
L 480.468198 -120.592063 
L 480.466875 -119.0998 
L 480.465779 -117.607538 
L 480.464553 -116.115276 
L 480.463356 -114.623014 
L 480.462446 -113.130751 
L 480.46191 -111.638489 
z
" style="stroke: #000000; stroke-width: 1.5"/>
    </defs>
    <g clip-path="url(#p62cb2f1b70)">
     <use xlink:href="#m6a03cbbbbe" x="0" y="360" style="fill: #2c7113; stroke: #000000; stroke-width: 1.5"/>
    </g>
   </g>
   <g id="PolyCollection_5">
    <defs>
     <path id="m3774f1150b" d="M 566.30771 -90.295543 
L 566.307674 -90.295543 
L 566.307587 -92.157698 
L 566.307293 -94.019853 
L 566.306237 -95.882008 
L 566.302939 -97.744162 
L 566.295972 -99.606317 
L 566.284117 -101.468472 
L 566.265211 -103.330627 
L 566.239036 -105.192781 
L 566.202675 -107.054936 
L 566.154296 -108.917091 
L 566.099607 -110.779246 
L 566.045281 -112.6414 
L 565.993147 -114.503555 
L 565.934648 -116.36571 
L 565.859929 -118.227865 
L 565.762639 -120.09002 
L 565.644655 -121.952174 
L 565.528886 -123.814329 
L 565.429993 -125.676484 
L 565.311946 -127.538639 
L 565.15547 -129.400793 
L 565.001795 -131.262948 
L 564.871246 -133.125103 
L 564.768034 -134.987258 
L 564.708403 -136.849412 
L 564.677451 -138.711567 
L 564.612908 -140.573722 
L 564.478496 -142.435877 
L 564.283222 -144.298031 
L 564.044339 -146.160186 
L 563.807306 -148.022341 
L 563.618487 -149.884496 
L 563.496428 -151.746651 
L 563.436778 -153.608805 
L 563.443136 -155.47096 
L 563.499308 -157.333115 
L 563.517005 -159.19527 
L 563.421492 -161.057424 
L 563.239199 -162.919579 
L 563.067153 -164.781734 
L 563.000685 -166.643889 
L 562.985808 -168.506043 
L 562.887577 -170.368198 
L 562.664546 -172.230353 
L 562.411102 -174.092508 
L 562.207155 -175.954662 
L 561.982176 -177.816817 
L 561.653239 -179.678972 
L 561.228264 -181.541127 
L 560.902688 -183.403282 
L 560.862991 -185.265436 
L 560.969529 -187.127591 
L 560.998915 -188.989746 
L 560.893582 -190.851901 
L 560.625646 -192.714055 
L 560.333608 -194.57621 
L 560.309349 -196.438365 
L 560.496938 -198.30052 
L 560.61591 -200.162674 
L 560.682903 -202.024829 
L 560.843231 -203.886984 
L 561.074603 -205.749139 
L 561.239663 -207.611294 
L 561.272096 -209.473448 
L 561.291127 -211.335603 
L 561.408202 -213.197758 
L 561.683144 -215.059913 
L 562.175427 -216.922067 
L 562.840578 -218.784222 
L 563.53047 -220.646377 
L 564.088526 -222.508532 
L 564.488297 -224.370686 
L 564.802101 -226.232841 
L 565.071582 -228.094996 
L 565.289295 -229.957151 
L 565.430615 -231.819305 
L 565.463379 -233.68146 
L 565.38613 -235.543615 
L 565.279247 -237.40577 
L 565.252671 -239.267925 
L 565.345421 -241.130079 
L 565.514381 -242.992234 
L 565.68978 -244.854389 
L 565.845828 -246.716544 
L 565.978323 -248.578698 
L 566.077267 -250.440853 
L 566.154382 -252.303008 
L 566.215317 -254.165163 
L 566.25538 -256.027317 
L 566.27824 -257.889472 
L 566.292199 -259.751627 
L 566.299943 -261.613782 
L 566.303174 -263.475936 
L 566.304704 -265.338091 
L 566.305965 -267.200246 
L 566.306873 -269.062401 
L 566.30738 -270.924556 
L 566.307599 -272.78671 
L 566.307676 -274.648865 
L 566.307709 -274.648865 
L 566.307709 -274.648865 
L 566.307785 -272.78671 
L 566.308004 -270.924556 
L 566.308512 -269.062401 
L 566.309419 -267.200246 
L 566.31068 -265.338091 
L 566.312211 -263.475936 
L 566.315442 -261.613782 
L 566.323186 -259.751627 
L 566.337144 -257.889472 
L 566.360005 -256.027317 
L 566.400068 -254.165163 
L 566.461003 -252.303008 
L 566.538118 -250.440853 
L 566.637061 -248.578698 
L 566.769556 -246.716544 
L 566.925605 -244.854389 
L 567.101003 -242.992234 
L 567.269963 -241.130079 
L 567.362714 -239.267925 
L 567.336137 -237.40577 
L 567.229255 -235.543615 
L 567.152005 -233.68146 
L 567.18477 -231.819305 
L 567.32609 -229.957151 
L 567.543803 -228.094996 
L 567.813284 -226.232841 
L 568.127087 -224.370686 
L 568.526858 -222.508532 
L 569.084915 -220.646377 
L 569.774806 -218.784222 
L 570.439958 -216.922067 
L 570.932241 -215.059913 
L 571.207183 -213.197758 
L 571.324258 -211.335603 
L 571.343288 -209.473448 
L 571.375722 -207.611294 
L 571.540781 -205.749139 
L 571.772153 -203.886984 
L 571.932482 -202.024829 
L 571.999475 -200.162674 
L 572.118447 -198.30052 
L 572.306036 -196.438365 
L 572.281777 -194.57621 
L 571.989738 -192.714055 
L 571.721802 -190.851901 
L 571.616469 -188.989746 
L 571.645856 -187.127591 
L 571.752394 -185.265436 
L 571.712697 -183.403282 
L 571.38712 -181.541127 
L 570.962146 -179.678972 
L 570.633209 -177.816817 
L 570.408229 -175.954662 
L 570.204282 -174.092508 
L 569.950839 -172.230353 
L 569.727807 -170.368198 
L 569.629576 -168.506043 
L 569.614699 -166.643889 
L 569.548232 -164.781734 
L 569.376186 -162.919579 
L 569.193892 -161.057424 
L 569.098379 -159.19527 
L 569.116076 -157.333115 
L 569.172248 -155.47096 
L 569.178607 -153.608805 
L 569.118957 -151.746651 
L 568.996898 -149.884496 
L 568.808078 -148.022341 
L 568.571046 -146.160186 
L 568.332162 -144.298031 
L 568.136889 -142.435877 
L 568.002477 -140.573722 
L 567.937933 -138.711567 
L 567.906982 -136.849412 
L 567.847351 -134.987258 
L 567.744139 -133.125103 
L 567.61359 -131.262948 
L 567.459914 -129.400793 
L 567.303439 -127.538639 
L 567.185391 -125.676484 
L 567.086498 -123.814329 
L 566.97073 -121.952174 
L 566.852745 -120.09002 
L 566.755456 -118.227865 
L 566.680737 -116.36571 
L 566.622238 -114.503555 
L 566.570103 -112.6414 
L 566.515778 -110.779246 
L 566.461089 -108.917091 
L 566.412709 -107.054936 
L 566.376348 -105.192781 
L 566.350174 -103.330627 
L 566.331267 -101.468472 
L 566.319413 -99.606317 
L 566.312445 -97.744162 
L 566.309147 -95.882008 
L 566.308091 -94.019853 
L 566.307798 -92.157698 
L 566.30771 -90.295543 
z
" style="stroke: #000000; stroke-width: 1.5"/>
    </defs>
    <g clip-path="url(#p62cb2f1b70)">
     <use xlink:href="#m3774f1150b" x="0" y="360" style="fill: #30e136; stroke: #000000; stroke-width: 1.5"/>
    </g>
   </g>
   <g id="PolyCollection_6">
    <defs>
     <path id="m1cffe36dc8" d="M 652.153996 -76.893313 
L 652.153696 -76.893313 
L 652.15334 -78.877483 
L 652.152578 -80.861652 
L 652.15142 -82.845821 
L 652.149981 -84.829991 
L 652.147746 -86.81416 
L 652.142691 -88.79833 
L 652.131385 -90.782499 
L 652.109675 -92.766668 
L 652.072811 -94.750838 
L 652.016438 -96.735007 
L 651.939488 -98.719177 
L 651.844875 -100.703346 
L 651.735062 -102.687515 
L 651.608033 -104.671685 
L 651.458886 -106.655854 
L 651.281799 -108.640024 
L 651.067021 -110.624193 
L 650.803391 -112.608362 
L 650.497294 -114.592532 
L 650.184297 -116.576701 
L 649.908302 -118.560871 
L 649.698239 -120.54504 
L 649.56824 -122.529209 
L 649.515029 -124.513379 
L 649.504948 -126.497548 
L 649.478625 -128.481718 
L 649.382691 -130.465887 
L 649.206454 -132.450056 
L 648.985938 -134.434226 
L 648.76078 -136.418395 
L 648.537084 -138.402565 
L 648.314607 -140.386734 
L 648.128522 -142.370903 
L 648.025159 -144.355073 
L 648.007533 -146.339242 
L 648.035253 -148.323412 
L 648.073592 -150.307581 
L 648.121839 -152.29175 
L 648.197994 -154.27592 
L 648.315015 -156.260089 
L 648.470249 -158.244259 
L 648.645973 -160.228428 
L 648.817872 -162.212597 
L 648.958578 -164.196767 
L 649.026241 -166.180936 
L 648.958094 -168.165106 
L 648.703335 -170.149275 
L 648.284046 -172.133444 
L 647.806247 -174.117614 
L 647.380444 -176.101783 
L 647.035024 -178.085953 
L 646.718684 -180.070122 
L 646.383796 -182.054291 
L 646.07871 -184.038461 
L 645.957929 -186.02263 
L 646.167152 -188.0068 
L 646.709285 -189.990969 
L 647.434898 -191.975138 
L 648.142879 -193.959308 
L 648.679447 -195.943477 
L 648.988246 -197.927647 
L 649.13217 -199.911816 
L 649.268731 -201.895985 
L 649.539758 -203.880155 
L 649.956172 -205.864324 
L 650.40867 -207.848494 
L 650.778724 -209.832663 
L 651.016448 -211.816832 
L 651.136704 -213.801002 
L 651.179785 -215.785171 
L 651.179732 -217.769341 
L 651.156403 -219.75351 
L 651.127708 -221.737679 
L 651.120347 -223.721849 
L 651.161308 -225.706018 
L 651.255412 -227.690188 
L 651.377103 -229.674357 
L 651.491012 -231.658526 
L 651.572083 -233.642696 
L 651.606824 -235.626865 
L 651.598796 -237.611035 
L 651.578668 -239.595204 
L 651.589891 -241.579373 
L 651.656462 -243.563543 
L 651.766809 -245.547712 
L 651.88569 -247.531882 
L 651.981042 -249.516051 
L 652.043453 -251.50022 
L 652.082658 -253.48439 
L 652.110064 -255.468559 
L 652.129391 -257.452729 
L 652.140628 -259.436898 
L 652.145442 -261.421067 
L 652.147187 -263.405237 
L 652.148511 -265.389406 
L 652.150223 -267.373576 
L 652.15191 -269.357745 
L 652.15306 -271.341914 
L 652.15361 -273.326084 
L 652.154082 -273.326084 
L 652.154082 -273.326084 
L 652.154632 -271.341914 
L 652.155782 -269.357745 
L 652.157469 -267.373576 
L 652.159181 -265.389406 
L 652.160505 -263.405237 
L 652.16225 -261.421067 
L 652.167065 -259.436898 
L 652.178301 -257.452729 
L 652.197628 -255.468559 
L 652.225034 -253.48439 
L 652.264239 -251.50022 
L 652.32665 -249.516051 
L 652.422002 -247.531882 
L 652.540883 -245.547712 
L 652.651231 -243.563543 
L 652.717801 -241.579373 
L 652.729024 -239.595204 
L 652.708896 -237.611035 
L 652.700868 -235.626865 
L 652.735609 -233.642696 
L 652.81668 -231.658526 
L 652.930589 -229.674357 
L 653.052281 -227.690188 
L 653.146385 -225.706018 
L 653.187345 -223.721849 
L 653.179984 -221.737679 
L 653.151289 -219.75351 
L 653.12796 -217.769341 
L 653.127907 -215.785171 
L 653.170989 -213.801002 
L 653.291244 -211.816832 
L 653.528968 -209.832663 
L 653.899022 -207.848494 
L 654.35152 -205.864324 
L 654.767934 -203.880155 
L 655.038961 -201.895985 
L 655.175522 -199.911816 
L 655.319446 -197.927647 
L 655.628246 -195.943477 
L 656.164813 -193.959308 
L 656.872794 -191.975138 
L 657.598407 -189.990969 
L 658.14054 -188.0068 
L 658.349763 -186.02263 
L 658.228982 -184.038461 
L 657.923897 -182.054291 
L 657.589008 -180.070122 
L 657.272669 -178.085953 
L 656.927249 -176.101783 
L 656.501445 -174.117614 
L 656.023647 -172.133444 
L 655.604357 -170.149275 
L 655.349598 -168.165106 
L 655.281451 -166.180936 
L 655.349114 -164.196767 
L 655.48982 -162.212597 
L 655.661719 -160.228428 
L 655.837444 -158.244259 
L 655.992677 -156.260089 
L 656.109698 -154.27592 
L 656.185853 -152.29175 
L 656.2341 -150.307581 
L 656.272439 -148.323412 
L 656.300159 -146.339242 
L 656.282534 -144.355073 
L 656.179171 -142.370903 
L 655.993085 -140.386734 
L 655.770609 -138.402565 
L 655.546913 -136.418395 
L 655.321754 -134.434226 
L 655.101239 -132.450056 
L 654.925001 -130.465887 
L 654.829068 -128.481718 
L 654.802745 -126.497548 
L 654.792663 -124.513379 
L 654.739452 -122.529209 
L 654.609453 -120.54504 
L 654.39939 -118.560871 
L 654.123395 -116.576701 
L 653.810399 -114.592532 
L 653.504302 -112.608362 
L 653.240672 -110.624193 
L 653.025893 -108.640024 
L 652.848806 -106.655854 
L 652.699659 -104.671685 
L 652.572631 -102.687515 
L 652.462817 -100.703346 
L 652.368204 -98.719177 
L 652.291254 -96.735007 
L 652.234881 -94.750838 
L 652.198018 -92.766668 
L 652.176307 -90.782499 
L 652.165002 -88.79833 
L 652.159946 -86.81416 
L 652.157711 -84.829991 
L 652.156272 -82.845821 
L 652.155114 -80.861652 
L 652.154353 -78.877483 
L 652.153996 -76.893313 
z
" style="stroke: #000000; stroke-width: 1.5"/>
    </defs>
    <g clip-path="url(#p62cb2f1b70)">
     <use xlink:href="#m1cffe36dc8" x="0" y="360" style="fill: #df8020; stroke: #000000; stroke-width: 1.5"/>
    </g>
   </g>
   <g id="PolyCollection_7">
    <defs>
     <path id="m932ef31892" d="M 738.000016 -83.982034 
L 737.999984 -83.982034 
L 737.99989 -85.964479 
L 737.99961 -87.946924 
L 737.999211 -89.929369 
L 737.998771 -91.911813 
L 737.997943 -93.894258 
L 737.996483 -95.876703 
L 737.994386 -97.859148 
L 737.991164 -99.841593 
L 737.985522 -101.824037 
L 737.975478 -103.806482 
L 737.960076 -105.788927 
L 737.937121 -107.771372 
L 737.902904 -109.753817 
L 737.861297 -111.736262 
L 737.820983 -113.718706 
L 737.776542 -115.701151 
L 737.713049 -117.683596 
L 737.630112 -119.666041 
L 737.52595 -121.648486 
L 737.382489 -123.63093 
L 737.200271 -125.613375 
L 736.996955 -127.59582 
L 736.802089 -129.578265 
L 736.64616 -131.56071 
L 736.52312 -133.543155 
L 736.412791 -135.525599 
L 736.292617 -137.508044 
L 736.148442 -139.490489 
L 736.025145 -141.472934 
L 735.981479 -143.455379 
L 736.00555 -145.437823 
L 736.046064 -147.420268 
L 736.074085 -149.402713 
L 736.108905 -151.385158 
L 736.162011 -153.367603 
L 736.204603 -155.350048 
L 736.201869 -157.332492 
L 736.14603 -159.314937 
L 736.027224 -161.297382 
L 735.866369 -163.279827 
L 735.745423 -165.262272 
L 735.689315 -167.244717 
L 735.656919 -169.227161 
L 735.607681 -171.209606 
L 735.520992 -173.192051 
L 735.385467 -175.174496 
L 735.197689 -177.156941 
L 734.961486 -179.139385 
L 734.702162 -181.12183 
L 734.517341 -183.104275 
L 734.439683 -185.08672 
L 734.330333 -187.069165 
L 734.08228 -189.05161 
L 733.86554 -191.034054 
L 733.85448 -193.016499 
L 733.926795 -194.998944 
L 733.944735 -196.981389 
L 733.946785 -198.963834 
L 733.934393 -200.946278 
L 733.819904 -202.928723 
L 733.645367 -204.911168 
L 733.508779 -206.893613 
L 733.361824 -208.876058 
L 733.165333 -210.858503 
L 733.0194 -212.840947 
L 732.892079 -214.823392 
L 732.757868 -216.805837 
L 732.761461 -218.788282 
L 732.948586 -220.770727 
L 733.295217 -222.753171 
L 733.661512 -224.735616 
L 733.85953 -226.718061 
L 733.920541 -228.700506 
L 733.954746 -230.682951 
L 734.056222 -232.665396 
L 734.299856 -234.64784 
L 734.750783 -236.630285 
L 735.388114 -238.61273 
L 735.999424 -240.595175 
L 736.41091 -242.57762 
L 736.64532 -244.560065 
L 736.776524 -246.542509 
L 736.84783 -248.524954 
L 736.877657 -250.507399 
L 736.892193 -252.489844 
L 736.959766 -254.472289 
L 737.107717 -256.454733 
L 737.25896 -258.437178 
L 737.369977 -260.419623 
L 737.455245 -262.402068 
L 737.516711 -264.384513 
L 737.556586 -266.366958 
L 737.609773 -268.349402 
L 737.716322 -270.331847 
L 737.8414 -272.314292 
L 737.928113 -274.296737 
L 737.975072 -276.279182 
L 737.994759 -278.261626 
L 737.999447 -280.244071 
L 738.000553 -280.244071 
L 738.000553 -280.244071 
L 738.005241 -278.261626 
L 738.024928 -276.279182 
L 738.071887 -274.296737 
L 738.1586 -272.314292 
L 738.283678 -270.331847 
L 738.390227 -268.349402 
L 738.443414 -266.366958 
L 738.483289 -264.384513 
L 738.544755 -262.402068 
L 738.630023 -260.419623 
L 738.74104 -258.437178 
L 738.892283 -256.454733 
L 739.040234 -254.472289 
L 739.107807 -252.489844 
L 739.122343 -250.507399 
L 739.15217 -248.524954 
L 739.223476 -246.542509 
L 739.35468 -244.560065 
L 739.58909 -242.57762 
L 740.000576 -240.595175 
L 740.611886 -238.61273 
L 741.249217 -236.630285 
L 741.700144 -234.64784 
L 741.943778 -232.665396 
L 742.045254 -230.682951 
L 742.079459 -228.700506 
L 742.14047 -226.718061 
L 742.338488 -224.735616 
L 742.704783 -222.753171 
L 743.051414 -220.770727 
L 743.238539 -218.788282 
L 743.242132 -216.805837 
L 743.107921 -214.823392 
L 742.9806 -212.840947 
L 742.834667 -210.858503 
L 742.638176 -208.876058 
L 742.491221 -206.893613 
L 742.354633 -204.911168 
L 742.180096 -202.928723 
L 742.065607 -200.946278 
L 742.053215 -198.963834 
L 742.055265 -196.981389 
L 742.073205 -194.998944 
L 742.14552 -193.016499 
L 742.13446 -191.034054 
L 741.91772 -189.05161 
L 741.669667 -187.069165 
L 741.560317 -185.08672 
L 741.482659 -183.104275 
L 741.297838 -181.12183 
L 741.038514 -179.139385 
L 740.802311 -177.156941 
L 740.614533 -175.174496 
L 740.479008 -173.192051 
L 740.392319 -171.209606 
L 740.343081 -169.227161 
L 740.310685 -167.244717 
L 740.254577 -165.262272 
L 740.133631 -163.279827 
L 739.972776 -161.297382 
L 739.85397 -159.314937 
L 739.798131 -157.332492 
L 739.795397 -155.350048 
L 739.837989 -153.367603 
L 739.891095 -151.385158 
L 739.925915 -149.402713 
L 739.953936 -147.420268 
L 739.99445 -145.437823 
L 740.018521 -143.455379 
L 739.974855 -141.472934 
L 739.851558 -139.490489 
L 739.707383 -137.508044 
L 739.587209 -135.525599 
L 739.47688 -133.543155 
L 739.35384 -131.56071 
L 739.197911 -129.578265 
L 739.003045 -127.59582 
L 738.799729 -125.613375 
L 738.617511 -123.63093 
L 738.47405 -121.648486 
L 738.369888 -119.666041 
L 738.286951 -117.683596 
L 738.223458 -115.701151 
L 738.179017 -113.718706 
L 738.138703 -111.736262 
L 738.097096 -109.753817 
L 738.062879 -107.771372 
L 738.039924 -105.788927 
L 738.024522 -103.806482 
L 738.014478 -101.824037 
L 738.008836 -99.841593 
L 738.005614 -97.859148 
L 738.003517 -95.876703 
L 738.002057 -93.894258 
L 738.001229 -91.911813 
L 738.000789 -89.929369 
L 738.00039 -87.946924 
L 738.00011 -85.964479 
L 738.000016 -83.982034 
z
" style="stroke: #000000; stroke-width: 1.5"/>
    </defs>
    <g clip-path="url(#p62cb2f1b70)">
     <use xlink:href="#m932ef31892" x="0" y="360" style="fill: #107070; stroke: #000000; stroke-width: 1.5"/>
    </g>
   </g>
   <g id="PolyCollection_8">
    <defs>
     <path id="m1a3407ed68" d="M 823.84624 -115.401572 
L 823.846068 -115.401572 
L 823.845867 -117.048883 
L 823.845588 -118.696193 
L 823.845438 -120.343503 
L 823.845329 -121.990814 
L 823.844832 -123.638124 
L 823.843917 -125.285435 
L 823.842722 -126.932745 
L 823.840479 -128.580056 
L 823.835583 -130.227366 
L 823.82546 -131.874677 
L 823.806364 -133.521987 
L 823.7735 -135.169298 
L 823.717792 -136.816608 
L 823.625978 -138.463918 
L 823.490745 -140.111229 
L 823.31628 -141.758539 
L 823.111877 -143.40585 
L 822.895642 -145.05316 
L 822.694928 -146.700471 
L 822.517958 -148.347781 
L 822.346545 -149.995092 
L 822.163439 -151.642402 
L 821.968364 -153.289713 
L 821.78733 -154.937023 
L 821.662673 -156.584333 
L 821.609461 -158.231644 
L 821.601179 -159.878954 
L 821.60223 -161.526265 
L 821.586722 -163.173575 
L 821.550608 -164.820886 
L 821.529868 -166.468196 
L 821.562049 -168.115507 
L 821.623311 -169.762817 
L 821.650347 -171.410127 
L 821.60379 -173.057438 
L 821.486533 -174.704748 
L 821.327455 -176.352059 
L 821.155111 -177.999369 
L 820.97032 -179.64668 
L 820.744515 -181.29399 
L 820.437497 -182.941301 
L 819.995871 -184.588611 
L 819.391453 -186.235922 
L 818.652888 -187.883232 
L 817.84265 -189.530542 
L 817.079731 -191.177853 
L 816.526969 -192.825163 
L 816.307258 -194.472474 
L 816.42964 -196.119784 
L 816.765973 -197.767095 
L 817.185054 -199.414405 
L 817.638809 -201.061716 
L 818.020802 -202.709026 
L 818.151466 -204.356337 
L 817.959364 -206.003647 
L 817.544648 -207.650957 
L 817.101523 -209.298268 
L 816.817597 -210.945578 
L 816.778981 -212.592889 
L 816.938016 -214.240199 
L 817.189341 -215.88751 
L 817.465897 -217.53482 
L 817.757458 -219.182131 
L 818.054161 -220.829441 
L 818.305799 -222.476752 
L 818.513696 -224.124062 
L 818.791401 -225.771372 
L 819.232965 -227.418683 
L 819.813984 -229.065993 
L 820.464728 -230.713304 
L 821.146143 -232.360614 
L 821.818149 -234.007925 
L 822.416111 -235.655235 
L 822.890033 -237.302546 
L 823.219086 -238.949856 
L 823.405573 -240.597167 
L 823.489852 -242.244477 
L 823.53591 -243.891787 
L 823.585378 -245.539098 
L 823.641467 -247.186408 
L 823.689793 -248.833719 
L 823.722731 -250.481029 
L 823.742243 -252.12834 
L 823.751779 -253.77565 
L 823.755656 -255.422961 
L 823.758408 -257.070271 
L 823.760937 -258.717582 
L 823.761094 -260.364892 
L 823.759252 -262.012202 
L 823.761449 -263.659513 
L 823.772838 -265.306823 
L 823.789709 -266.954134 
L 823.803176 -268.601444 
L 823.810417 -270.248755 
L 823.81735 -271.896065 
L 823.827856 -273.543376 
L 823.83801 -275.190686 
L 823.843734 -276.837997 
L 823.845685 -278.485307 
L 823.846623 -278.485307 
L 823.846623 -278.485307 
L 823.848574 -276.837997 
L 823.854297 -275.190686 
L 823.864451 -273.543376 
L 823.874958 -271.896065 
L 823.881891 -270.248755 
L 823.889132 -268.601444 
L 823.902599 -266.954134 
L 823.91947 -265.306823 
L 823.930859 -263.659513 
L 823.933056 -262.012202 
L 823.931214 -260.364892 
L 823.931371 -258.717582 
L 823.9339 -257.070271 
L 823.936652 -255.422961 
L 823.940529 -253.77565 
L 823.950065 -252.12834 
L 823.969577 -250.481029 
L 824.002514 -248.833719 
L 824.050841 -247.186408 
L 824.10693 -245.539098 
L 824.156398 -243.891787 
L 824.202456 -242.244477 
L 824.286735 -240.597167 
L 824.473221 -238.949856 
L 824.802275 -237.302546 
L 825.276197 -235.655235 
L 825.874159 -234.007925 
L 826.546165 -232.360614 
L 827.22758 -230.713304 
L 827.878323 -229.065993 
L 828.459343 -227.418683 
L 828.900907 -225.771372 
L 829.178611 -224.124062 
L 829.386509 -222.476752 
L 829.638147 -220.829441 
L 829.934849 -219.182131 
L 830.226411 -217.53482 
L 830.502966 -215.88751 
L 830.754292 -214.240199 
L 830.913327 -212.592889 
L 830.874711 -210.945578 
L 830.590785 -209.298268 
L 830.14766 -207.650957 
L 829.732944 -206.003647 
L 829.540842 -204.356337 
L 829.671506 -202.709026 
L 830.053499 -201.061716 
L 830.507254 -199.414405 
L 830.926335 -197.767095 
L 831.262667 -196.119784 
L 831.385049 -194.472474 
L 831.165339 -192.825163 
L 830.612576 -191.177853 
L 829.849658 -189.530542 
L 829.03942 -187.883232 
L 828.300855 -186.235922 
L 827.696436 -184.588611 
L 827.25481 -182.941301 
L 826.947793 -181.29399 
L 826.721987 -179.64668 
L 826.537197 -177.999369 
L 826.364853 -176.352059 
L 826.205775 -174.704748 
L 826.088518 -173.057438 
L 826.04196 -171.410127 
L 826.068997 -169.762817 
L 826.130259 -168.115507 
L 826.16244 -166.468196 
L 826.1417 -164.820886 
L 826.105586 -163.173575 
L 826.090078 -161.526265 
L 826.091128 -159.878954 
L 826.082847 -158.231644 
L 826.029634 -156.584333 
L 825.904978 -154.937023 
L 825.723944 -153.289713 
L 825.528869 -151.642402 
L 825.345763 -149.995092 
L 825.17435 -148.347781 
L 824.99738 -146.700471 
L 824.796666 -145.05316 
L 824.58043 -143.40585 
L 824.376028 -141.758539 
L 824.201563 -140.111229 
L 824.066329 -138.463918 
L 823.974516 -136.816608 
L 823.918807 -135.169298 
L 823.885944 -133.521987 
L 823.866848 -131.874677 
L 823.856725 -130.227366 
L 823.851829 -128.580056 
L 823.849585 -126.932745 
L 823.848391 -125.285435 
L 823.847476 -123.638124 
L 823.846979 -121.990814 
L 823.84687 -120.343503 
L 823.84672 -118.696193 
L 823.846441 -117.048883 
L 823.84624 -115.401572 
z
" style="stroke: #000000; stroke-width: 1.5"/>
    </defs>
    <g clip-path="url(#p62cb2f1b70)">
     <use xlink:href="#m1a3407ed68" x="0" y="360" style="fill: #2080df; stroke: #000000; stroke-width: 1.5"/>
    </g>
   </g>
   <g id="PolyCollection_9">
    <defs>
     <path id="m750125a122" d="M 909.694591 -158.641535 
L 909.690024 -158.641535 
L 909.68655 -159.578791 
L 909.680358 -160.516047 
L 909.6717 -161.453303 
L 909.662313 -162.390559 
L 909.654452 -163.327815 
L 909.649026 -164.265071 
L 909.644288 -165.202327 
L 909.635052 -166.139583 
L 909.610286 -167.076839 
L 909.548285 -168.014096 
L 909.412869 -168.951352 
L 909.157257 -169.888608 
L 908.741199 -170.825864 
L 908.158905 -171.76312 
L 907.461968 -172.700376 
L 906.75589 -173.637632 
L 906.164982 -174.574888 
L 905.786836 -175.512144 
L 905.664537 -176.4494 
L 905.785636 -177.386656 
L 906.097468 -178.323912 
L 906.527193 -179.261168 
L 907.001207 -180.198424 
L 907.45983 -181.13568 
L 907.862613 -182.072936 
L 908.183992 -183.010192 
L 908.404064 -183.947448 
L 908.498318 -184.884704 
L 908.428385 -185.82196 
L 908.142011 -186.759216 
L 907.594548 -187.696472 
L 906.788053 -188.633728 
L 905.794193 -189.570985 
L 904.722733 -190.508241 
L 903.64655 -191.445497 
L 902.556218 -192.382753 
L 901.404982 -193.320009 
L 900.206549 -194.257265 
L 899.07911 -195.194521 
L 898.185601 -196.131777 
L 897.633739 -197.069033 
L 897.429236 -198.006289 
L 897.503812 -198.943545 
L 897.771246 -199.880801 
L 898.166254 -200.818057 
L 898.654863 -201.755313 
L 899.220213 -202.692569 
L 899.833291 -203.629825 
L 900.432168 -204.567081 
L 900.931634 -205.504337 
L 901.255323 -206.441593 
L 901.36388 -207.378849 
L 901.267092 -208.316105 
L 901.022912 -209.253361 
L 900.722944 -210.190617 
L 900.464326 -211.127874 
L 900.321505 -212.06513 
L 900.335731 -213.002386 
L 900.522792 -213.939642 
L 900.882226 -214.876898 
L 901.39556 -215.814154 
L 902.0172 -216.75141 
L 902.671633 -217.688666 
L 903.27033 -218.625922 
L 903.746305 -219.563178 
L 904.080272 -220.500434 
L 904.293627 -221.43769 
L 904.419095 -222.374946 
L 904.483285 -223.312202 
L 904.51321 -224.249458 
L 904.544966 -225.186714 
L 904.614614 -226.12397 
L 904.740685 -227.061226 
L 904.921369 -227.998482 
L 905.152008 -228.935738 
L 905.443975 -229.872994 
L 905.822353 -230.81025 
L 906.30156 -231.747506 
L 906.862432 -232.684763 
L 907.453495 -233.622019 
L 908.014031 -234.559275 
L 908.497678 -235.496531 
L 908.882042 -236.433787 
L 909.166085 -237.371043 
L 909.362621 -238.308299 
L 909.490475 -239.245555 
L 909.568866 -240.182811 
L 909.614792 -241.120067 
L 909.641811 -242.057323 
L 909.658979 -242.994579 
L 909.670788 -243.931835 
L 909.678751 -244.869091 
L 909.683519 -245.806347 
L 909.686056 -246.743603 
L 909.687555 -247.680859 
L 909.68884 -248.618115 
L 909.690092 -249.555371 
L 909.691126 -250.492627 
L 909.691793 -251.429883 
L 909.692823 -251.429883 
L 909.692823 -251.429883 
L 909.693489 -250.492627 
L 909.694524 -249.555371 
L 909.695776 -248.618115 
L 909.69706 -247.680859 
L 909.698559 -246.743603 
L 909.701096 -245.806347 
L 909.705864 -244.869091 
L 909.713827 -243.931835 
L 909.725637 -242.994579 
L 909.742805 -242.057323 
L 909.769823 -241.120067 
L 909.815749 -240.182811 
L 909.89414 -239.245555 
L 910.021994 -238.308299 
L 910.21853 -237.371043 
L 910.502574 -236.433787 
L 910.886938 -235.496531 
L 911.370584 -234.559275 
L 911.93112 -233.622019 
L 912.522184 -232.684763 
L 913.083055 -231.747506 
L 913.562263 -230.81025 
L 913.94064 -229.872994 
L 914.232607 -228.935738 
L 914.463247 -227.998482 
L 914.64393 -227.061226 
L 914.770001 -226.12397 
L 914.839649 -225.186714 
L 914.871406 -224.249458 
L 914.90133 -223.312202 
L 914.96552 -222.374946 
L 915.090989 -221.43769 
L 915.304344 -220.500434 
L 915.638311 -219.563178 
L 916.114285 -218.625922 
L 916.712982 -217.688666 
L 917.367416 -216.75141 
L 917.989056 -215.814154 
L 918.502389 -214.876898 
L 918.861823 -213.939642 
L 919.048884 -213.002386 
L 919.063111 -212.06513 
L 918.920289 -211.127874 
L 918.661671 -210.190617 
L 918.361704 -209.253361 
L 918.117523 -208.316105 
L 918.020735 -207.378849 
L 918.129293 -206.441593 
L 918.452982 -205.504337 
L 918.952448 -204.567081 
L 919.551324 -203.629825 
L 920.164403 -202.692569 
L 920.729753 -201.755313 
L 921.218361 -200.818057 
L 921.61337 -199.880801 
L 921.880803 -198.943545 
L 921.95538 -198.006289 
L 921.750877 -197.069033 
L 921.199014 -196.131777 
L 920.305505 -195.194521 
L 919.178066 -194.257265 
L 917.979634 -193.320009 
L 916.828397 -192.382753 
L 915.738065 -191.445497 
L 914.661882 -190.508241 
L 913.590422 -189.570985 
L 912.596562 -188.633728 
L 911.790067 -187.696472 
L 911.242604 -186.759216 
L 910.95623 -185.82196 
L 910.886297 -184.884704 
L 910.980551 -183.947448 
L 911.200624 -183.010192 
L 911.522002 -182.072936 
L 911.924786 -181.13568 
L 912.383408 -180.198424 
L 912.857422 -179.261168 
L 913.287147 -178.323912 
L 913.59898 -177.386656 
L 913.720078 -176.4494 
L 913.59778 -175.512144 
L 913.219633 -174.574888 
L 912.628726 -173.637632 
L 911.922647 -172.700376 
L 911.22571 -171.76312 
L 910.643417 -170.825864 
L 910.227358 -169.888608 
L 909.971747 -168.951352 
L 909.83633 -168.014096 
L 909.774329 -167.076839 
L 909.749564 -166.139583 
L 909.740328 -165.202327 
L 909.735589 -164.265071 
L 909.730163 -163.327815 
L 909.722303 -162.390559 
L 909.712915 -161.453303 
L 909.704258 -160.516047 
L 909.698065 -159.578791 
L 909.694591 -158.641535 
z
" style="stroke: #000000; stroke-width: 1.5"/>
    </defs>
    <g clip-path="url(#p62cb2f1b70)">
     <use xlink:href="#m750125a122" x="0" y="360" style="fill: #dfc120; stroke: #000000; stroke-width: 1.5"/>
    </g>
   </g>
   <g id="PolyCollection_10">
    <defs>
     <path id="md3502ad0ac" d="M 995.538549 -77.491098 
L 995.538374 -77.491098 
L 995.538119 -79.419165 
L 995.537568 -81.347232 
L 995.536716 -83.275299 
L 995.535422 -85.203366 
L 995.532753 -87.131433 
L 995.52604 -89.059501 
L 995.511124 -90.987568 
L 995.48434 -92.915635 
L 995.441304 -94.843702 
L 995.374337 -96.771769 
L 995.278691 -98.699836 
L 995.162283 -100.627903 
L 995.040424 -102.555971 
L 994.92441 -104.484038 
L 994.824779 -106.412105 
L 994.751824 -108.340172 
L 994.714626 -110.268239 
L 994.724825 -112.196306 
L 994.786627 -114.124374 
L 994.885926 -116.052441 
L 994.995055 -117.980508 
L 995.084499 -119.908575 
L 995.130379 -121.836642 
L 995.124205 -123.764709 
L 995.08364 -125.692776 
L 995.039329 -127.620844 
L 995.008435 -129.548911 
L 994.987909 -131.476978 
L 994.970184 -133.405045 
L 994.953516 -135.333112 
L 994.933181 -137.261179 
L 994.896532 -139.189246 
L 994.83577 -141.117314 
L 994.768766 -143.045381 
L 994.736601 -144.973448 
L 994.761571 -146.901515 
L 994.82017 -148.829582 
L 994.870357 -150.757649 
L 994.881452 -152.685716 
L 994.832709 -154.613784 
L 994.714267 -156.541851 
L 994.534185 -158.469918 
L 994.31289 -160.397985 
L 994.078428 -162.326052 
L 993.852155 -164.254119 
L 993.639897 -166.182186 
L 993.453165 -168.110254 
L 993.290168 -170.038321 
L 993.064914 -171.966388 
L 992.597759 -173.894455 
L 991.744814 -175.822522 
L 990.57098 -177.750589 
L 989.354399 -179.678656 
L 988.408588 -181.606724 
L 987.951102 -183.534791 
L 988.003283 -185.462858 
L 988.322867 -187.390925 
L 988.627485 -189.318992 
L 988.81728 -191.247059 
L 988.98392 -193.175127 
L 989.414557 -195.103194 
L 990.270599 -197.031261 
L 991.218528 -198.959328 
L 991.766722 -200.887395 
L 991.747573 -202.815462 
L 991.326518 -204.743529 
L 990.833307 -206.671597 
L 990.513189 -208.599664 
L 990.253744 -210.527731 
L 989.743607 -212.455798 
L 989.013963 -214.383865 
L 988.585693 -216.311932 
L 988.907906 -218.239999 
L 989.831317 -220.168067 
L 990.852951 -222.096134 
L 991.677467 -224.024201 
L 992.293146 -225.952268 
L 992.750123 -227.880335 
L 993.092841 -229.808402 
L 993.372716 -231.736469 
L 993.627574 -233.664537 
L 993.883976 -235.592604 
L 994.159898 -237.520671 
L 994.44884 -239.448738 
L 994.728412 -241.376805 
L 994.973609 -243.304872 
L 995.163172 -245.232939 
L 995.292688 -247.161007 
L 995.375415 -249.089074 
L 995.42319 -251.017141 
L 995.443729 -252.945208 
L 995.451536 -254.873275 
L 995.462413 -256.801342 
L 995.482335 -258.729409 
L 995.50613 -260.657477 
L 995.524645 -262.585544 
L 995.534176 -264.513611 
L 995.537495 -266.441678 
L 995.538303 -268.369745 
L 995.53862 -268.369745 
L 995.53862 -268.369745 
L 995.539428 -266.441678 
L 995.542747 -264.513611 
L 995.552278 -262.585544 
L 995.570793 -260.657477 
L 995.594588 -258.729409 
L 995.61451 -256.801342 
L 995.625387 -254.873275 
L 995.633194 -252.945208 
L 995.653734 -251.017141 
L 995.701508 -249.089074 
L 995.784235 -247.161007 
L 995.913751 -245.232939 
L 996.103314 -243.304872 
L 996.348511 -241.376805 
L 996.628083 -239.448738 
L 996.917025 -237.520671 
L 997.192947 -235.592604 
L 997.449349 -233.664537 
L 997.704207 -231.736469 
L 997.984082 -229.808402 
L 998.326801 -227.880335 
L 998.783778 -225.952268 
L 999.399456 -224.024201 
L 1000.223972 -222.096134 
L 1001.245606 -220.168067 
L 1002.169018 -218.239999 
L 1002.49123 -216.311932 
L 1002.06296 -214.383865 
L 1001.333316 -212.455798 
L 1000.823179 -210.527731 
L 1000.563734 -208.599664 
L 1000.243616 -206.671597 
L 999.750405 -204.743529 
L 999.32935 -202.815462 
L 999.310201 -200.887395 
L 999.858396 -198.959328 
L 1000.806324 -197.031261 
L 1001.662366 -195.103194 
L 1002.093003 -193.175127 
L 1002.259643 -191.247059 
L 1002.449439 -189.318992 
L 1002.754056 -187.390925 
L 1003.07364 -185.462858 
L 1003.125821 -183.534791 
L 1002.668335 -181.606724 
L 1001.722524 -179.678656 
L 1000.505943 -177.750589 
L 999.332109 -175.822522 
L 998.479165 -173.894455 
L 998.012009 -171.966388 
L 997.786755 -170.038321 
L 997.623758 -168.110254 
L 997.437026 -166.182186 
L 997.224768 -164.254119 
L 996.998495 -162.326052 
L 996.764033 -160.397985 
L 996.542738 -158.469918 
L 996.362656 -156.541851 
L 996.244214 -154.613784 
L 996.195471 -152.685716 
L 996.206566 -150.757649 
L 996.256753 -148.829582 
L 996.315352 -146.901515 
L 996.340322 -144.973448 
L 996.308157 -143.045381 
L 996.241153 -141.117314 
L 996.180391 -139.189246 
L 996.143742 -137.261179 
L 996.123407 -135.333112 
L 996.106739 -133.405045 
L 996.089014 -131.476978 
L 996.068488 -129.548911 
L 996.037594 -127.620844 
L 995.993283 -125.692776 
L 995.952718 -123.764709 
L 995.946544 -121.836642 
L 995.992425 -119.908575 
L 996.081868 -117.980508 
L 996.190997 -116.052441 
L 996.290296 -114.124374 
L 996.352098 -112.196306 
L 996.362297 -110.268239 
L 996.325099 -108.340172 
L 996.252144 -106.412105 
L 996.152513 -104.484038 
L 996.036499 -102.555971 
L 995.91464 -100.627903 
L 995.798232 -98.699836 
L 995.702586 -96.771769 
L 995.635619 -94.843702 
L 995.592583 -92.915635 
L 995.565799 -90.987568 
L 995.550883 -89.059501 
L 995.54417 -87.131433 
L 995.541501 -85.203366 
L 995.540207 -83.275299 
L 995.539355 -81.347232 
L 995.538804 -79.419165 
L 995.538549 -77.491098 
z
" style="stroke: #000000; stroke-width: 1.5"/>
    </defs>
    <g clip-path="url(#p62cb2f1b70)">
     <use xlink:href="#md3502ad0ac" x="0" y="360" style="fill: #df2020; stroke: #000000; stroke-width: 1.5"/>
    </g>
   </g>
   <g id="PolyCollection_11">
    <defs>
     <path id="m68e10e80fb" d="M 1081.384642 -82.949658 
L 1081.384589 -82.949658 
L 1081.38447 -84.880492 
L 1081.384439 -86.811327 
L 1081.384552 -88.742161 
L 1081.38449 -90.672995 
L 1081.384426 -92.603829 
L 1081.384529 -94.534664 
L 1081.38444 -96.465498 
L 1081.384062 -98.396332 
L 1081.383264 -100.327166 
L 1081.382801 -102.258001 
L 1081.382833 -104.188835 
L 1081.382158 -106.119669 
L 1081.380321 -108.050503 
L 1081.377355 -109.981338 
L 1081.371853 -111.912172 
L 1081.361676 -113.843006 
L 1081.347344 -115.77384 
L 1081.326751 -117.704674 
L 1081.291805 -119.635509 
L 1081.247256 -121.566343 
L 1081.206057 -123.497177 
L 1081.16554 -125.428011 
L 1081.114587 -127.358846 
L 1081.058336 -129.28968 
L 1081.016468 -131.220514 
L 1080.985037 -133.151348 
L 1080.954459 -135.082183 
L 1080.912823 -137.013017 
L 1080.819139 -138.943851 
L 1080.694914 -140.874685 
L 1080.557543 -142.80552 
L 1080.399313 -144.736354 
L 1080.227207 -146.667188 
L 1080.02938 -148.598022 
L 1079.828709 -150.528857 
L 1079.629809 -152.459691 
L 1079.448869 -154.390525 
L 1079.242443 -156.321359 
L 1078.981937 -158.252193 
L 1078.718783 -160.183028 
L 1078.496456 -162.113862 
L 1078.20376 -164.044696 
L 1077.803468 -165.97553 
L 1077.308008 -167.906365 
L 1076.791093 -169.837199 
L 1076.377339 -171.768033 
L 1076.049187 -173.698867 
L 1075.72417 -175.629702 
L 1075.508449 -177.560536 
L 1075.3698 -179.49137 
L 1075.066278 -181.422204 
L 1074.664984 -183.353039 
L 1074.437943 -185.283873 
L 1074.446092 -187.214707 
L 1074.541372 -189.145541 
L 1074.561306 -191.076376 
L 1074.55299 -193.00721 
L 1074.567152 -194.938044 
L 1074.579443 -196.868878 
L 1074.608625 -198.799712 
L 1074.565992 -200.730547 
L 1074.555995 -202.661381 
L 1074.548264 -204.592215 
L 1074.752532 -206.523049 
L 1075.348236 -208.453884 
L 1076.134584 -210.384718 
L 1077.00657 -212.315552 
L 1077.764797 -214.246386 
L 1078.238832 -216.177221 
L 1078.592841 -218.108055 
L 1078.863445 -220.038889 
L 1079.076114 -221.969723 
L 1079.316198 -223.900558 
L 1079.629608 -225.831392 
L 1079.98455 -227.762226 
L 1080.266332 -229.69306 
L 1080.442201 -231.623895 
L 1080.582586 -233.554729 
L 1080.745409 -235.485563 
L 1080.899384 -237.416397 
L 1081.010746 -239.347231 
L 1081.100008 -241.278066 
L 1081.183116 -243.2089 
L 1081.252533 -245.139734 
L 1081.298132 -247.070568 
L 1081.325613 -249.001403 
L 1081.339514 -250.932237 
L 1081.347838 -252.863071 
L 1081.355261 -254.793905 
L 1081.361598 -256.72474 
L 1081.367828 -258.655574 
L 1081.36855 -260.586408 
L 1081.368442 -262.517242 
L 1081.372332 -264.448077 
L 1081.377634 -266.378911 
L 1081.380004 -268.309745 
L 1081.381381 -270.240579 
L 1081.38359 -272.171414 
L 1081.384515 -274.102248 
L 1081.384716 -274.102248 
L 1081.384716 -274.102248 
L 1081.385641 -272.171414 
L 1081.38785 -270.240579 
L 1081.389226 -268.309745 
L 1081.391597 -266.378911 
L 1081.396899 -264.448077 
L 1081.400788 -262.517242 
L 1081.400681 -260.586408 
L 1081.401403 -258.655574 
L 1081.407632 -256.72474 
L 1081.413969 -254.793905 
L 1081.421393 -252.863071 
L 1081.429717 -250.932237 
L 1081.443618 -249.001403 
L 1081.471099 -247.070568 
L 1081.516698 -245.139734 
L 1081.586115 -243.2089 
L 1081.669222 -241.278066 
L 1081.758484 -239.347231 
L 1081.869847 -237.416397 
L 1082.023822 -235.485563 
L 1082.186644 -233.554729 
L 1082.32703 -231.623895 
L 1082.502899 -229.69306 
L 1082.784681 -227.762226 
L 1083.139623 -225.831392 
L 1083.453032 -223.900558 
L 1083.693116 -221.969723 
L 1083.905786 -220.038889 
L 1084.17639 -218.108055 
L 1084.530399 -216.177221 
L 1085.004433 -214.246386 
L 1085.762661 -212.315552 
L 1086.634647 -210.384718 
L 1087.420995 -208.453884 
L 1088.016699 -206.523049 
L 1088.220967 -204.592215 
L 1088.213235 -202.661381 
L 1088.203239 -200.730547 
L 1088.160606 -198.799712 
L 1088.189788 -196.868878 
L 1088.202079 -194.938044 
L 1088.21624 -193.00721 
L 1088.207925 -191.076376 
L 1088.227858 -189.145541 
L 1088.323139 -187.214707 
L 1088.331288 -185.283873 
L 1088.104246 -183.353039 
L 1087.702953 -181.422204 
L 1087.399431 -179.49137 
L 1087.260782 -177.560536 
L 1087.045061 -175.629702 
L 1086.720044 -173.698867 
L 1086.391891 -171.768033 
L 1085.978138 -169.837199 
L 1085.461223 -167.906365 
L 1084.965763 -165.97553 
L 1084.565471 -164.044696 
L 1084.272775 -162.113862 
L 1084.050448 -160.183028 
L 1083.787294 -158.252193 
L 1083.526787 -156.321359 
L 1083.320362 -154.390525 
L 1083.139421 -152.459691 
L 1082.940522 -150.528857 
L 1082.739851 -148.598022 
L 1082.542024 -146.667188 
L 1082.369918 -144.736354 
L 1082.211688 -142.80552 
L 1082.074317 -140.874685 
L 1081.950092 -138.943851 
L 1081.856408 -137.013017 
L 1081.814772 -135.082183 
L 1081.784194 -133.151348 
L 1081.752763 -131.220514 
L 1081.710895 -129.28968 
L 1081.654643 -127.358846 
L 1081.603691 -125.428011 
L 1081.563174 -123.497177 
L 1081.521974 -121.566343 
L 1081.477426 -119.635509 
L 1081.44248 -117.704674 
L 1081.421887 -115.77384 
L 1081.407555 -113.843006 
L 1081.397378 -111.912172 
L 1081.391875 -109.981338 
L 1081.38891 -108.050503 
L 1081.387073 -106.119669 
L 1081.386398 -104.188835 
L 1081.38643 -102.258001 
L 1081.385966 -100.327166 
L 1081.385168 -98.396332 
L 1081.384791 -96.465498 
L 1081.384701 -94.534664 
L 1081.384805 -92.603829 
L 1081.384741 -90.672995 
L 1081.384679 -88.742161 
L 1081.384792 -86.811327 
L 1081.384761 -84.880492 
L 1081.384642 -82.949658 
z
" style="stroke: #000000; stroke-width: 1.5"/>
    </defs>
    <g clip-path="url(#p62cb2f1b70)">
     <use xlink:href="#m68e10e80fb" x="0" y="360" style="fill: #57e4be; stroke: #000000; stroke-width: 1.5"/>
    </g>
   </g>
   <g id="PolyCollection_12">
    <defs>
     <path id="m2cffbd47dd" d="M 1167.230772 -73.865336 
L 1167.230767 -73.865336 
L 1167.230741 -75.848857 
L 1167.230758 -77.832377 
L 1167.230629 -79.815897 
L 1167.230675 -81.799417 
L 1167.230558 -83.782937 
L 1167.230633 -85.766457 
L 1167.230499 -87.749977 
L 1167.230385 -89.733498 
L 1167.230111 -91.717018 
L 1167.229821 -93.700538 
L 1167.229696 -95.684058 
L 1167.229013 -97.667578 
L 1167.228057 -99.651098 
L 1167.226567 -101.634618 
L 1167.225102 -103.618139 
L 1167.223233 -105.601659 
L 1167.222366 -107.585179 
L 1167.222043 -109.568699 
L 1167.221389 -111.552219 
L 1167.220675 -113.535739 
L 1167.220926 -115.519259 
L 1167.219933 -117.502779 
L 1167.220075 -119.4863 
L 1167.219719 -121.46982 
L 1167.219125 -123.45334 
L 1167.215756 -125.43686 
L 1167.210635 -127.42038 
L 1167.203483 -129.4039 
L 1167.193769 -131.38742 
L 1167.183056 -133.370941 
L 1167.16979 -135.354461 
L 1167.139811 -137.337981 
L 1167.108244 -139.321501 
L 1167.089607 -141.305021 
L 1167.054545 -143.288541 
L 1167.01052 -145.272061 
L 1166.952329 -147.255581 
L 1166.874949 -149.239102 
L 1166.803214 -151.222622 
L 1166.752657 -153.206142 
L 1166.671089 -155.189662 
L 1166.55318 -157.173182 
L 1166.428143 -159.156702 
L 1166.339333 -161.140222 
L 1166.332995 -163.123743 
L 1166.276758 -165.107263 
L 1166.180781 -167.090783 
L 1166.068791 -169.074303 
L 1165.882708 -171.057823 
L 1165.591067 -173.041343 
L 1165.314401 -175.024863 
L 1164.979972 -177.008384 
L 1164.629616 -178.991904 
L 1164.294242 -180.975424 
L 1163.937526 -182.958944 
L 1163.46658 -184.942464 
L 1162.847331 -186.925984 
L 1162.25586 -188.909504 
L 1161.621076 -190.893024 
L 1160.983585 -192.876545 
L 1160.218437 -194.860065 
L 1159.407707 -196.843585 
L 1158.766891 -198.827105 
L 1158.239367 -200.810625 
L 1157.90513 -202.794145 
L 1157.546182 -204.777665 
L 1157.195755 -206.761186 
L 1157.032956 -208.744706 
L 1157.207956 -210.728226 
L 1157.580614 -212.711746 
L 1157.876672 -214.695266 
L 1158.504462 -216.678786 
L 1159.258207 -218.662306 
L 1160.54026 -220.645827 
L 1161.82998 -222.629347 
L 1162.875012 -224.612867 
L 1163.884204 -226.596387 
L 1164.677922 -228.579907 
L 1165.268956 -230.563427 
L 1165.736358 -232.546947 
L 1166.110463 -234.530467 
L 1166.434403 -236.513988 
L 1166.699751 -238.497508 
L 1166.863265 -240.481028 
L 1166.940325 -242.464548 
L 1167.014824 -244.448068 
L 1167.092653 -246.431588 
L 1167.142155 -248.415108 
L 1167.173212 -250.398629 
L 1167.187198 -252.382149 
L 1167.192755 -254.365669 
L 1167.199803 -256.349189 
L 1167.198519 -258.332709 
L 1167.193575 -260.316229 
L 1167.204872 -262.299749 
L 1167.220921 -264.28327 
L 1167.223771 -266.26679 
L 1167.227004 -268.25031 
L 1167.230719 -270.23383 
L 1167.230819 -270.23383 
L 1167.230819 -270.23383 
L 1167.234534 -268.25031 
L 1167.237767 -266.26679 
L 1167.240617 -264.28327 
L 1167.256667 -262.299749 
L 1167.267964 -260.316229 
L 1167.26302 -258.332709 
L 1167.261735 -256.349189 
L 1167.268784 -254.365669 
L 1167.274341 -252.382149 
L 1167.288326 -250.398629 
L 1167.319384 -248.415108 
L 1167.368885 -246.431588 
L 1167.446714 -244.448068 
L 1167.521214 -242.464548 
L 1167.598273 -240.481028 
L 1167.761788 -238.497508 
L 1168.027135 -236.513988 
L 1168.351075 -234.530467 
L 1168.725181 -232.546947 
L 1169.192583 -230.563427 
L 1169.783616 -228.579907 
L 1170.577334 -226.596387 
L 1171.586527 -224.612867 
L 1172.631559 -222.629347 
L 1173.921278 -220.645827 
L 1175.203332 -218.662306 
L 1175.957077 -216.678786 
L 1176.584867 -214.695266 
L 1176.880924 -212.711746 
L 1177.253582 -210.728226 
L 1177.428582 -208.744706 
L 1177.265784 -206.761186 
L 1176.915356 -204.777665 
L 1176.556408 -202.794145 
L 1176.222172 -200.810625 
L 1175.694647 -198.827105 
L 1175.053831 -196.843585 
L 1174.243102 -194.860065 
L 1173.477953 -192.876545 
L 1172.840463 -190.893024 
L 1172.205679 -188.909504 
L 1171.614208 -186.925984 
L 1170.994958 -184.942464 
L 1170.524013 -182.958944 
L 1170.167296 -180.975424 
L 1169.831922 -178.991904 
L 1169.481566 -177.008384 
L 1169.147137 -175.024863 
L 1168.870472 -173.041343 
L 1168.57883 -171.057823 
L 1168.392748 -169.074303 
L 1168.280757 -167.090783 
L 1168.184781 -165.107263 
L 1168.128543 -163.123743 
L 1168.122205 -161.140222 
L 1168.033396 -159.156702 
L 1167.908359 -157.173182 
L 1167.79045 -155.189662 
L 1167.708881 -153.206142 
L 1167.658325 -151.222622 
L 1167.58659 -149.239102 
L 1167.50921 -147.255581 
L 1167.451019 -145.272061 
L 1167.406994 -143.288541 
L 1167.371931 -141.305021 
L 1167.353295 -139.321501 
L 1167.321728 -137.337981 
L 1167.291748 -135.354461 
L 1167.278482 -133.370941 
L 1167.267769 -131.38742 
L 1167.258055 -129.4039 
L 1167.250904 -127.42038 
L 1167.245782 -125.43686 
L 1167.242413 -123.45334 
L 1167.24182 -121.46982 
L 1167.241463 -119.4863 
L 1167.241605 -117.502779 
L 1167.240612 -115.519259 
L 1167.240863 -113.535739 
L 1167.240149 -111.552219 
L 1167.239496 -109.568699 
L 1167.239172 -107.585179 
L 1167.238306 -105.601659 
L 1167.236436 -103.618139 
L 1167.234971 -101.634618 
L 1167.233481 -99.651098 
L 1167.232525 -97.667578 
L 1167.231842 -95.684058 
L 1167.231718 -93.700538 
L 1167.231427 -91.717018 
L 1167.231153 -89.733498 
L 1167.231039 -87.749977 
L 1167.230905 -85.766457 
L 1167.230981 -83.782937 
L 1167.230863 -81.799417 
L 1167.23091 -79.815897 
L 1167.23078 -77.832377 
L 1167.230798 -75.848857 
L 1167.230772 -73.865336 
z
" style="stroke: #000000; stroke-width: 1.5"/>
    </defs>
    <g clip-path="url(#p62cb2f1b70)">
     <use xlink:href="#m2cffbd47dd" x="0" y="360" style="fill: #95aa8f; stroke: #000000; stroke-width: 1.5"/>
    </g>
   </g>
   <g id="PolyCollection_13">
    <defs>
     <path id="m07c7bcb5ab" d="M 1253.076975 -155.87288 
L 1253.076871 -155.87288 
L 1253.076566 -156.652293 
L 1253.076405 -157.431707 
L 1253.075788 -158.211121 
L 1253.073705 -158.990534 
L 1253.073127 -159.769948 
L 1253.066921 -160.549362 
L 1253.063096 -161.328775 
L 1253.058396 -162.108189 
L 1253.048856 -162.887602 
L 1253.017669 -163.667016 
L 1252.991842 -164.44643 
L 1252.956248 -165.225843 
L 1252.924506 -166.005257 
L 1252.871682 -166.784671 
L 1252.740874 -167.564084 
L 1252.576565 -168.343498 
L 1252.292095 -169.122911 
L 1251.909966 -169.902325 
L 1251.318682 -170.681739 
L 1250.416923 -171.461152 
L 1249.269719 -172.240566 
L 1247.759854 -173.01998 
L 1245.851318 -173.799393 
L 1243.677346 -174.578807 
L 1241.203894 -175.35822 
L 1238.234025 -176.137634 
L 1234.587858 -176.917048 
L 1230.502302 -177.696461 
L 1226.742859 -178.475875 
L 1224.110073 -179.255289 
L 1222.145521 -180.034702 
L 1220.03624 -180.814116 
L 1218.738462 -181.59353 
L 1219.147417 -182.372943 
L 1220.701962 -183.152357 
L 1223.188029 -183.93177 
L 1226.297681 -184.711184 
L 1229.781849 -185.490598 
L 1233.163644 -186.270011 
L 1236.442694 -187.049425 
L 1239.686955 -187.828839 
L 1242.429747 -188.608252 
L 1244.38369 -189.387666 
L 1246.139138 -190.167079 
L 1247.750885 -190.946493 
L 1249.056388 -191.725907 
L 1249.986011 -192.50532 
L 1250.718503 -193.284734 
L 1251.253015 -194.064148 
L 1251.602192 -194.843561 
L 1251.952021 -195.622975 
L 1252.182542 -196.402388 
L 1252.323451 -197.181802 
L 1252.467115 -197.961216 
L 1252.592393 -198.740629 
L 1252.659636 -199.520043 
L 1252.724587 -200.299457 
L 1252.775765 -201.07887 
L 1252.849637 -201.858284 
L 1252.903406 -202.637698 
L 1252.918771 -203.417111 
L 1252.939937 -204.196525 
L 1252.970146 -204.975938 
L 1252.981668 -205.755352 
L 1252.992513 -206.534766 
L 1252.997367 -207.314179 
L 1252.996905 -208.093593 
L 1253.007171 -208.873007 
L 1253.011537 -209.65242 
L 1253.025022 -210.431834 
L 1253.029083 -211.211247 
L 1253.033444 -211.990661 
L 1253.032232 -212.770075 
L 1253.028789 -213.549488 
L 1253.024828 -214.328902 
L 1253.035018 -215.108316 
L 1253.036395 -215.887729 
L 1253.038779 -216.667143 
L 1253.051073 -217.446556 
L 1253.059879 -218.22597 
L 1253.060386 -219.005384 
L 1253.062099 -219.784797 
L 1253.060644 -220.564211 
L 1253.065552 -221.343625 
L 1253.067848 -222.123038 
L 1253.06596 -222.902452 
L 1253.062731 -223.681866 
L 1253.059991 -224.461279 
L 1253.064441 -225.240693 
L 1253.067364 -226.020106 
L 1253.068027 -226.79952 
L 1253.06483 -227.578934 
L 1253.062059 -228.358347 
L 1253.063026 -229.137761 
L 1253.066409 -229.917175 
L 1253.071599 -230.696588 
L 1253.076373 -231.476002 
L 1253.076234 -232.255415 
L 1253.076866 -233.034829 
L 1253.07698 -233.034829 
L 1253.07698 -233.034829 
L 1253.077612 -232.255415 
L 1253.077473 -231.476002 
L 1253.082247 -230.696588 
L 1253.087437 -229.917175 
L 1253.09082 -229.137761 
L 1253.091787 -228.358347 
L 1253.089016 -227.578934 
L 1253.08582 -226.79952 
L 1253.086482 -226.020106 
L 1253.089405 -225.240693 
L 1253.093855 -224.461279 
L 1253.091115 -223.681866 
L 1253.087886 -222.902452 
L 1253.085998 -222.123038 
L 1253.088294 -221.343625 
L 1253.093203 -220.564211 
L 1253.091747 -219.784797 
L 1253.09346 -219.005384 
L 1253.093967 -218.22597 
L 1253.102773 -217.446556 
L 1253.115067 -216.667143 
L 1253.117451 -215.887729 
L 1253.118828 -215.108316 
L 1253.129018 -214.328902 
L 1253.125057 -213.549488 
L 1253.121614 -212.770075 
L 1253.120402 -211.990661 
L 1253.124763 -211.211247 
L 1253.128824 -210.431834 
L 1253.142309 -209.65242 
L 1253.146675 -208.873007 
L 1253.156941 -208.093593 
L 1253.156479 -207.314179 
L 1253.161333 -206.534766 
L 1253.172178 -205.755352 
L 1253.1837 -204.975938 
L 1253.21391 -204.196525 
L 1253.235075 -203.417111 
L 1253.25044 -202.637698 
L 1253.304209 -201.858284 
L 1253.378081 -201.07887 
L 1253.429259 -200.299457 
L 1253.49421 -199.520043 
L 1253.561453 -198.740629 
L 1253.686731 -197.961216 
L 1253.830395 -197.181802 
L 1253.971304 -196.402388 
L 1254.201825 -195.622975 
L 1254.551654 -194.843561 
L 1254.900831 -194.064148 
L 1255.435343 -193.284734 
L 1256.167835 -192.50532 
L 1257.097459 -191.725907 
L 1258.402961 -190.946493 
L 1260.014708 -190.167079 
L 1261.770156 -189.387666 
L 1263.724099 -188.608252 
L 1266.466891 -187.828839 
L 1269.711152 -187.049425 
L 1272.990202 -186.270011 
L 1276.371997 -185.490598 
L 1279.856165 -184.711184 
L 1282.965817 -183.93177 
L 1285.451884 -183.152357 
L 1287.00643 -182.372943 
L 1287.415385 -181.59353 
L 1286.117606 -180.814116 
L 1284.008325 -180.034702 
L 1282.043773 -179.255289 
L 1279.410987 -178.475875 
L 1275.651544 -177.696461 
L 1271.565988 -176.917048 
L 1267.919821 -176.137634 
L 1264.949952 -175.35822 
L 1262.4765 -174.578807 
L 1260.302529 -173.799393 
L 1258.393992 -173.01998 
L 1256.884127 -172.240566 
L 1255.736923 -171.461152 
L 1254.835164 -170.681739 
L 1254.24388 -169.902325 
L 1253.861751 -169.122911 
L 1253.577281 -168.343498 
L 1253.412972 -167.564084 
L 1253.282165 -166.784671 
L 1253.22934 -166.005257 
L 1253.197598 -165.225843 
L 1253.162004 -164.44643 
L 1253.136177 -163.667016 
L 1253.10499 -162.887602 
L 1253.09545 -162.108189 
L 1253.09075 -161.328775 
L 1253.086925 -160.549362 
L 1253.080719 -159.769948 
L 1253.080141 -158.990534 
L 1253.078058 -158.211121 
L 1253.077442 -157.431707 
L 1253.07728 -156.652293 
L 1253.076975 -155.87288 
z
" style="stroke: #000000; stroke-width: 1.5"/>
    </defs>
    <g clip-path="url(#p62cb2f1b70)">
     <use xlink:href="#m07c7bcb5ab" x="0" y="360" style="stroke: #000000; stroke-width: 1.5"/>
    </g>
   </g>
   <g id="line2d_19">
    <path d="M 222.923077 275.127929 
L 222.923077 137.26171 
" clip-path="url(#p62cb2f1b70)" style="fill: none; stroke: #000000; stroke-width: 1.5; stroke-linecap: round"/>
   </g>
   <g id="line2d_20">
    <path d="M 222.923077 237.522301 
L 222.923077 197.414485 
" clip-path="url(#p62cb2f1b70)" style="fill: none; stroke: #000000; stroke-width: 4.5; stroke-linecap: round"/>
   </g>
   <g id="line2d_21">
    <path d="M 308.769231 270.588966 
L 308.769231 89.761404 
" clip-path="url(#p62cb2f1b70)" style="fill: none; stroke: #000000; stroke-width: 1.5; stroke-linecap: round"/>
   </g>
   <g id="line2d_22">
    <path d="M 308.769231 223.012082 
L 308.769231 164.203417 
" clip-path="url(#p62cb2f1b70)" style="fill: none; stroke: #000000; stroke-width: 4.5; stroke-linecap: round"/>
   </g>
   <g id="line2d_23">
    <path d="M 394.615385 262.439416 
L 394.615385 93.518907 
" clip-path="url(#p62cb2f1b70)" style="fill: none; stroke: #000000; stroke-width: 1.5; stroke-linecap: round"/>
   </g>
   <g id="line2d_24">
    <path d="M 394.615385 189.361539 
L 394.615385 129.415848 
" clip-path="url(#p62cb2f1b70)" style="fill: none; stroke: #000000; stroke-width: 4.5; stroke-linecap: round"/>
   </g>
   <g id="line2d_25">
    <path d="M 480.461538 198.54903 
L 480.461538 115.368036 
" clip-path="url(#p62cb2f1b70)" style="fill: none; stroke: #000000; stroke-width: 1.5; stroke-linecap: round"/>
   </g>
   <g id="line2d_26">
    <path d="M 480.461538 167.30314 
L 480.461538 146.455656 
" clip-path="url(#p62cb2f1b70)" style="fill: none; stroke: #000000; stroke-width: 4.5; stroke-linecap: round"/>
   </g>
   <g id="line2d_27">
    <path d="M 566.307692 252.614837 
L 566.307692 94.67764 
" clip-path="url(#p62cb2f1b70)" style="fill: none; stroke: #000000; stroke-width: 1.5; stroke-linecap: round"/>
   </g>
   <g id="line2d_28">
    <path d="M 566.307692 193.341723 
L 566.307692 153.825716 
" clip-path="url(#p62cb2f1b70)" style="fill: none; stroke: #000000; stroke-width: 4.5; stroke-linecap: round"/>
   </g>
   <g id="line2d_29">
    <path d="M 652.153846 276.544473 
L 652.153846 103.923343 
" clip-path="url(#p62cb2f1b70)" style="fill: none; stroke: #000000; stroke-width: 1.5; stroke-linecap: round"/>
   </g>
   <g id="line2d_30">
    <path d="M 652.153846 216.183973 
L 652.153846 171.224833 
" clip-path="url(#p62cb2f1b70)" style="fill: none; stroke: #000000; stroke-width: 4.5; stroke-linecap: round"/>
   </g>
   <g id="line2d_31">
    <path d="M 738 255.523622 
L 738 83.777214 
" clip-path="url(#p62cb2f1b70)" style="fill: none; stroke: #000000; stroke-width: 1.5; stroke-linecap: round"/>
   </g>
   <g id="line2d_32">
    <path d="M 738 185.038901 
L 738 138.038291 
" clip-path="url(#p62cb2f1b70)" style="fill: none; stroke: #000000; stroke-width: 4.5; stroke-linecap: round"/>
   </g>
   <g id="line2d_33">
    <path d="M 823.846154 218.642574 
L 823.846154 99.233518 
" clip-path="url(#p62cb2f1b70)" style="fill: none; stroke: #000000; stroke-width: 1.5; stroke-linecap: round"/>
   </g>
   <g id="line2d_34">
    <path d="M 823.846154 173.859588 
L 823.846154 144.003758 
" clip-path="url(#p62cb2f1b70)" style="fill: none; stroke: #000000; stroke-width: 4.5; stroke-linecap: round"/>
   </g>
   <g id="line2d_35">
    <path d="M 909.692308 192.66876 
L 909.692308 116.172737 
" clip-path="url(#p62cb2f1b70)" style="fill: none; stroke: #000000; stroke-width: 1.5; stroke-linecap: round"/>
   </g>
   <g id="line2d_36">
    <path d="M 909.692308 163.835732 
L 909.692308 144.421736 
" clip-path="url(#p62cb2f1b70)" style="fill: none; stroke: #000000; stroke-width: 4.5; stroke-linecap: round"/>
   </g>
   <g id="line2d_37">
    <path d="M 995.538462 230.269784 
L 995.538462 96.894073 
" clip-path="url(#p62cb2f1b70)" style="fill: none; stroke: #000000; stroke-width: 1.5; stroke-linecap: round"/>
   </g>
   <g id="line2d_38">
    <path d="M 995.538462 179.337057 
L 995.538462 145.381809 
" clip-path="url(#p62cb2f1b70)" style="fill: none; stroke: #000000; stroke-width: 4.5; stroke-linecap: round"/>
   </g>
   <g id="line2d_39">
    <path d="M 1081.384615 229.250048 
L 1081.384615 111.133811 
" clip-path="url(#p62cb2f1b70)" style="fill: none; stroke: #000000; stroke-width: 1.5; stroke-linecap: round"/>
   </g>
   <g id="line2d_40">
    <path d="M 1081.384615 184.947142 
L 1081.384615 155.411448 
" clip-path="url(#p62cb2f1b70)" style="fill: none; stroke: #000000; stroke-width: 4.5; stroke-linecap: round"/>
   </g>
   <g id="line2d_41">
    <path d="M 1167.230769 198.785747 
L 1167.230769 112.676034 
" clip-path="url(#p62cb2f1b70)" style="fill: none; stroke: #000000; stroke-width: 1.5; stroke-linecap: round"/>
   </g>
   <g id="line2d_42">
    <path d="M 1167.230769 166.4946 
L 1167.230769 144.967167 
" clip-path="url(#p62cb2f1b70)" style="fill: none; stroke: #000000; stroke-width: 4.5; stroke-linecap: round"/>
   </g>
   <g id="line2d_43">
    <path d="M 1253.076923 190.572213 
L 1253.076923 165.557189 
" clip-path="url(#p62cb2f1b70)" style="fill: none; stroke: #000000; stroke-width: 1.5; stroke-linecap: round"/>
   </g>
   <g id="line2d_44">
    <path d="M 1253.076923 181.192313 
L 1253.076923 174.938254 
" clip-path="url(#p62cb2f1b70)" style="fill: none; stroke: #000000; stroke-width: 4.5; stroke-linecap: round"/>
   </g>
   <g id="line2d_45">
    <path d="M 180 93.338397 
L 1296 93.338397 
" clip-path="url(#p62cb2f1b70)" style="fill: none; stroke-dasharray: 5.55,2.4; stroke-dashoffset: 0; stroke: #ff0000; stroke-opacity: 0.2; stroke-width: 1.5"/>
   </g>
   <g id="line2d_46">
    <path d="M 180 220.55572 
L 1296 220.55572 
" clip-path="url(#p62cb2f1b70)" style="fill: none; stroke-dasharray: 5.55,2.4; stroke-dashoffset: 0; stroke: #ff0000; stroke-opacity: 0.2; stroke-width: 1.5"/>
   </g>
   <g id="patch_3">
    <path d="M 180 315 
L 180 43.2 
" style="fill: none; stroke: #262626; stroke-width: 0.8; stroke-linejoin: miter; stroke-linecap: square"/>
   </g>
   <g id="patch_4">
    <path d="M 1296 315 
L 1296 43.2 
" style="fill: none; stroke: #262626; stroke-width: 0.8; stroke-linejoin: miter; stroke-linecap: square"/>
   </g>
   <g id="patch_5">
    <path d="M 180 315 
L 1296 315 
" style="fill: none; stroke: #262626; stroke-width: 0.8; stroke-linejoin: miter; stroke-linecap: square"/>
   </g>
   <g id="patch_6">
    <path d="M 180 43.2 
L 1296 43.2 
" style="fill: none; stroke: #262626; stroke-width: 0.8; stroke-linejoin: miter; stroke-linecap: square"/>
   </g>
   <g id="PathCollection_1">
    <defs>
     <path id="m6e70825bec" d="M 0 1.5 
C 0.397805 1.5 0.77937 1.341951 1.06066 1.06066 
C 1.341951 0.77937 1.5 0.397805 1.5 0 
C 1.5 -0.397805 1.341951 -0.77937 1.06066 -1.06066 
C 0.77937 -1.341951 0.397805 -1.5 0 -1.5 
C -0.397805 -1.5 -0.77937 -1.341951 -1.06066 -1.06066 
C -1.341951 -0.77937 -1.5 -0.397805 -1.5 0 
C -1.5 0.397805 -1.341951 0.77937 -1.06066 1.06066 
C -0.77937 1.341951 -0.397805 1.5 0 1.5 
z
" style="stroke: #000000"/>
    </defs>
    <g clip-path="url(#p62cb2f1b70)">
     <use xlink:href="#m6e70825bec" x="222.923077" y="220.55572" style="fill: #ffffff; stroke: #000000"/>
    </g>
   </g>
   <g id="PathCollection_2">
    <g clip-path="url(#p62cb2f1b70)">
     <use xlink:href="#m6e70825bec" x="308.769231" y="188.165882" style="fill: #ffffff; stroke: #000000"/>
    </g>
   </g>
   <g id="PathCollection_3">
    <g clip-path="url(#p62cb2f1b70)">
     <use xlink:href="#m6e70825bec" x="394.615385" y="156.356047" style="fill: #ffffff; stroke: #000000"/>
    </g>
   </g>
   <g id="PathCollection_4">
    <g clip-path="url(#p62cb2f1b70)">
     <use xlink:href="#m6e70825bec" x="480.461538" y="151.957158" style="fill: #ffffff; stroke: #000000"/>
    </g>
   </g>
   <g id="PathCollection_5">
    <g clip-path="url(#p62cb2f1b70)">
     <use xlink:href="#m6e70825bec" x="566.307692" y="171.106619" style="fill: #ffffff; stroke: #000000"/>
    </g>
   </g>
   <g id="PathCollection_6">
    <g clip-path="url(#p62cb2f1b70)">
     <use xlink:href="#m6e70825bec" x="652.153846" y="189.339243" style="fill: #ffffff; stroke: #000000"/>
    </g>
   </g>
   <g id="PathCollection_7">
    <g clip-path="url(#p62cb2f1b70)">
     <use xlink:href="#m6e70825bec" x="738" y="158.317291" style="fill: #ffffff; stroke: #000000"/>
    </g>
   </g>
   <g id="PathCollection_8">
    <g clip-path="url(#p62cb2f1b70)">
     <use xlink:href="#m6e70825bec" x="823.846154" y="159.321077" style="fill: #ffffff; stroke: #000000"/>
    </g>
   </g>
   <g id="PathCollection_9">
    <g clip-path="url(#p62cb2f1b70)">
     <use xlink:href="#m6e70825bec" x="909.692308" y="155.468358" style="fill: #ffffff; stroke: #000000"/>
    </g>
   </g>
   <g id="PathCollection_10">
    <g clip-path="url(#p62cb2f1b70)">
     <use xlink:href="#m6e70825bec" x="995.538462" y="165.739418" style="fill: #ffffff; stroke: #000000"/>
    </g>
   </g>
   <g id="PathCollection_11">
    <g clip-path="url(#p62cb2f1b70)">
     <use xlink:href="#m6e70825bec" x="1081.384615" y="169.784418" style="fill: #ffffff; stroke: #000000"/>
    </g>
   </g>
   <g id="PathCollection_12">
    <g clip-path="url(#p62cb2f1b70)">
     <use xlink:href="#m6e70825bec" x="1167.230769" y="154.86349" style="fill: #ffffff; stroke: #000000"/>
    </g>
   </g>
   <g id="PathCollection_13">
    <g clip-path="url(#p62cb2f1b70)">
     <use xlink:href="#m6e70825bec" x="1253.076923" y="178.102375" style="fill: #ffffff; stroke: #000000"/>
    </g>
   </g>
   <g id="patch_7">
    <path d="M 300.184615 71.397412 
L 300.184615 67.82 
L 231.507692 67.82 
L 231.507692 71.397412 
" style="fill: none; stroke: #000000; stroke-linecap: round"/>
   </g>
   <g id="text_20">
    <text style="fill: #262626; font: 16px 'sans-serif'; text-anchor: middle" x="265.846154" y="67.748333" transform="rotate(-0, 265.846154, 67.748333)">***</text>
   </g>
   <g id="patch_8">
    <path d="M 386.030769 71.397412 
L 386.030769 67.82 
L 317.353846 67.82 
L 317.353846 71.397412 
" style="fill: none; stroke: #000000; stroke-linecap: round"/>
   </g>
   <g id="text_21">
    <text style="fill: #262626; font: 16px 'sans-serif'; text-anchor: middle" x="351.692308" y="67.748333" transform="rotate(-0, 351.692308, 67.748333)">***</text>
   </g>
   <g id="patch_9">
    <path d="M 471.876923 71.397412 
L 471.876923 67.82 
L 403.2 67.82 
L 403.2 71.397412 
" style="fill: none; stroke: #000000; stroke-linecap: round"/>
   </g>
   <g id="text_22">
    <text style="fill: #262626; font: 16px 'sans-serif'; text-anchor: middle" x="437.538462" y="67.748333" transform="rotate(-0, 437.538462, 67.748333)">*</text>
   </g>
   <g id="patch_10">
    <path d="M 557.723077 71.397412 
L 557.723077 67.82 
L 489.046154 67.82 
L 489.046154 71.397412 
" style="fill: none; stroke: #000000; stroke-linecap: round"/>
   </g>
   <g id="text_23">
    <text style="fill: #262626; font: 16px 'sans-serif'; text-anchor: middle" x="523.384615" y="67.748333" transform="rotate(-0, 523.384615, 67.748333)">***</text>
   </g>
   <g id="patch_11">
    <path d="M 643.569231 71.397412 
L 643.569231 67.82 
L 574.892308 67.82 
L 574.892308 71.397412 
" style="fill: none; stroke: #000000; stroke-linecap: round"/>
   </g>
   <g id="text_24">
    <text style="fill: #262626; font: 16px 'sans-serif'; text-anchor: middle" x="609.230769" y="67.748333" transform="rotate(-0, 609.230769, 67.748333)">***</text>
   </g>
   <g id="patch_12">
    <path d="M 729.415385 71.397412 
L 729.415385 67.82 
L 660.738462 67.82 
L 660.738462 71.397412 
" style="fill: none; stroke: #000000; stroke-linecap: round"/>
   </g>
   <g id="text_25">
    <text style="fill: #262626; font: 16px 'sans-serif'; text-anchor: middle" x="695.076923" y="67.748333" transform="rotate(-0, 695.076923, 67.748333)">***</text>
   </g>
   <g id="patch_13">
    <path d="M 815.261538 71.397412 
L 815.261538 67.82 
L 746.584615 67.82 
L 746.584615 71.397412 
" style="fill: none; stroke: #000000; stroke-linecap: round"/>
   </g>
   <g id="text_26">
    <text style="fill: #262626; font: 16px 'sans-serif'; text-anchor: middle" x="780.923077" y="63.721667" transform="rotate(-0, 780.923077, 63.721667)">-</text>
   </g>
   <g id="patch_14">
    <path d="M 901.107692 71.397412 
L 901.107692 67.82 
L 832.430769 67.82 
L 832.430769 71.397412 
" style="fill: none; stroke: #000000; stroke-linecap: round"/>
   </g>
   <g id="text_27">
    <text style="fill: #262626; font: 16px 'sans-serif'; text-anchor: middle" x="866.769231" y="67.748333" transform="rotate(-0, 866.769231, 67.748333)">***</text>
   </g>
   <g id="patch_15">
    <path d="M 986.953846 71.397412 
L 986.953846 67.82 
L 918.276923 67.82 
L 918.276923 71.397412 
" style="fill: none; stroke: #000000; stroke-linecap: round"/>
   </g>
   <g id="text_28">
    <text style="fill: #262626; font: 16px 'sans-serif'; text-anchor: middle" x="952.615385" y="67.748333" transform="rotate(-0, 952.615385, 67.748333)">***</text>
   </g>
   <g id="patch_16">
    <path d="M 1072.8 71.397412 
L 1072.8 67.82 
L 1004.123077 67.82 
L 1004.123077 71.397412 
" style="fill: none; stroke: #000000; stroke-linecap: round"/>
   </g>
   <g id="text_29">
    <text style="fill: #262626; font: 16px 'sans-serif'; text-anchor: middle" x="1038.461538" y="67.748333" transform="rotate(-0, 1038.461538, 67.748333)">***</text>
   </g>
   <g id="patch_17">
    <path d="M 1158.646154 71.397412 
L 1158.646154 67.82 
L 1089.969231 67.82 
L 1089.969231 71.397412 
" style="fill: none; stroke: #000000; stroke-linecap: round"/>
   </g>
   <g id="text_30">
    <text style="fill: #262626; font: 16px 'sans-serif'; text-anchor: middle" x="1124.307692" y="67.748333" transform="rotate(-0, 1124.307692, 67.748333)">***</text>
   </g>
   <g id="patch_18">
    <path d="M 1244.492308 71.397412 
L 1244.492308 67.82 
L 1175.815385 67.82 
L 1175.815385 71.397412 
" style="fill: none; stroke: #000000; stroke-linecap: round"/>
   </g>
   <g id="text_31">
    <text style="fill: #262626; font: 16px 'sans-serif'; text-anchor: middle" x="1210.153846" y="67.748333" transform="rotate(-0, 1210.153846, 67.748333)">***</text>
   </g>
   <g id="text_32">
    <text style="fill: #ff0000; opacity: 0.5; font: 10px 'sans-serif'; text-anchor: middle" x="909.692308" y="96.097772" transform="rotate(-0, 909.692308, 96.097772)">BG FGES median in GOIs</text>
   </g>
   <g id="text_33">
    <text style="fill: #ff0000; opacity: 0.5; font: 10px 'sans-serif'; text-anchor: middle" x="265.846154" y="223.315095" transform="rotate(-0, 265.846154, 223.315095)">BG FGES median in Controls</text>
   </g>
   <g id="text_34">
    <text style="fill: #262626; font: 12px 'sans-serif'; text-anchor: middle" x="738" y="37.2" transform="rotate(-0, 738, 37.2)">Comparison of cell type Fges, Controls</text>
   </g>
  </g>
 </g>
 <defs>
  <clipPath id="p62cb2f1b70">
   <rect x="180" y="43.2" width="1116" height="271.8"/>
  </clipPath>
 </defs>
</svg>
