<?xml version="1.0" encoding="utf-8" standalone="no"?>
<!DOCTYPE svg PUBLIC "-//W3C//DTD SVG 1.1//EN"
  "http://www.w3.org/Graphics/SVG/1.1/DTD/svg11.dtd">
<svg xmlns:xlink="http://www.w3.org/1999/xlink" width="432pt" height="252pt" viewBox="0 0 432 252" xmlns="http://www.w3.org/2000/svg" version="1.1">
 <metadata>
  <rdf:RDF xmlns:dc="http://purl.org/dc/elements/1.1/" xmlns:cc="http://creativecommons.org/ns#" xmlns:rdf="http://www.w3.org/1999/02/22-rdf-syntax-ns#">
   <cc:Work>
    <dc:type rdf:resource="http://purl.org/dc/dcmitype/StillImage"/>
    <dc:date>2023-12-08T10:05:07.177692</dc:date>
    <dc:format>image/svg+xml</dc:format>
    <dc:creator>
     <cc:Agent>
      <dc:title>Matplotlib v3.8.1, https://matplotlib.org/</dc:title>
     </cc:Agent>
    </dc:creator>
   </cc:Work>
  </rdf:RDF>
 </metadata>
 <defs>
  <style type="text/css">*{stroke-linejoin: round; stroke-linecap: butt}</style>
 </defs>
 <g id="figure_1">
  <g id="patch_1">
   <path d="M 0 252 
L 432 252 
L 432 0 
L 0 0 
z
" style="fill: #ffffff"/>
  </g>
  <g id="axes_1">
   <g id="patch_2">
    <path d="M 42.625 214.4 
L 224.96 214.4 
L 224.96 5 
L 42.625 5 
z
" style="fill: #ffffff"/>
   </g>
   <g id="matplotlib.axis_1">
    <g id="xtick_1">
     <g id="line2d_1">
      <defs>
       <path id="m3ad82f7ad1" d="M 0 0 
L 0 3.5 
" style="stroke: #262626; stroke-width: 0.8"/>
      </defs>
      <g>
       <use xlink:href="#m3ad82f7ad1" x="72.716586" y="214.4" style="fill: #262626; stroke: #262626; stroke-width: 0.8"/>
      </g>
     </g>
     <g id="text_1">
      <text style="fill: #262626; font: 10px 'Arial', 'DejaVu Sans', 'Liberation Sans', 'Bitstream Vera Sans', sans-serif; text-anchor: middle" x="72.716586" y="228.998437" transform="rotate(-0 72.716586 228.998437)">0.05</text>
     </g>
    </g>
    <g id="xtick_2">
     <g id="line2d_2">
      <g>
       <use xlink:href="#m3ad82f7ad1" x="105.275196" y="214.4" style="fill: #262626; stroke: #262626; stroke-width: 0.8"/>
      </g>
     </g>
     <g id="text_2">
      <text style="fill: #262626; font: 10px 'Arial', 'DejaVu Sans', 'Liberation Sans', 'Bitstream Vera Sans', sans-serif; text-anchor: middle" x="105.275196" y="228.998437" transform="rotate(-0 105.275196 228.998437)">0.10</text>
     </g>
    </g>
    <g id="xtick_3">
     <g id="line2d_3">
      <g>
       <use xlink:href="#m3ad82f7ad1" x="137.833805" y="214.4" style="fill: #262626; stroke: #262626; stroke-width: 0.8"/>
      </g>
     </g>
     <g id="text_3">
      <text style="fill: #262626; font: 10px 'Arial', 'DejaVu Sans', 'Liberation Sans', 'Bitstream Vera Sans', sans-serif; text-anchor: middle" x="137.833805" y="228.998437" transform="rotate(-0 137.833805 228.998437)">0.15</text>
     </g>
    </g>
    <g id="xtick_4">
     <g id="line2d_4">
      <g>
       <use xlink:href="#m3ad82f7ad1" x="170.392415" y="214.4" style="fill: #262626; stroke: #262626; stroke-width: 0.8"/>
      </g>
     </g>
     <g id="text_4">
      <text style="fill: #262626; font: 10px 'Arial', 'DejaVu Sans', 'Liberation Sans', 'Bitstream Vera Sans', sans-serif; text-anchor: middle" x="170.392415" y="228.998437" transform="rotate(-0 170.392415 228.998437)">0.20</text>
     </g>
    </g>
    <g id="xtick_5">
     <g id="line2d_5">
      <g>
       <use xlink:href="#m3ad82f7ad1" x="202.951025" y="214.4" style="fill: #262626; stroke: #262626; stroke-width: 0.8"/>
      </g>
     </g>
     <g id="text_5">
      <text style="fill: #262626; font: 10px 'Arial', 'DejaVu Sans', 'Liberation Sans', 'Bitstream Vera Sans', sans-serif; text-anchor: middle" x="202.951025" y="228.998437" transform="rotate(-0 202.951025 228.998437)">0.25</text>
     </g>
    </g>
    <g id="text_6">
     <text style="fill: #262626; font: 10px 'Arial', 'DejaVu Sans', 'Liberation Sans', 'Bitstream Vera Sans', sans-serif; text-anchor: middle" x="133.7925" y="242.676562" transform="rotate(-0 133.7925 242.676562)">Coeffient of variation of ranks in GOI</text>
    </g>
   </g>
   <g id="matplotlib.axis_2">
    <g id="ytick_1">
     <g id="line2d_6">
      <defs>
       <path id="m3922933bcd" d="M 0 0 
L -3.5 0 
" style="stroke: #262626; stroke-width: 0.8"/>
      </defs>
      <g>
       <use xlink:href="#m3922933bcd" x="42.625" y="211.71675" style="fill: #262626; stroke: #262626; stroke-width: 0.8"/>
      </g>
     </g>
     <g id="text_7">
      <text style="fill: #262626; font: 10px 'Arial', 'DejaVu Sans', 'Liberation Sans', 'Bitstream Vera Sans', sans-serif; text-anchor: end" x="35.625" y="215.515969" transform="rotate(-0 35.625 215.515969)">0.4</text>
     </g>
    </g>
    <g id="ytick_2">
     <g id="line2d_7">
      <g>
       <use xlink:href="#m3922933bcd" x="42.625" y="181.583734" style="fill: #262626; stroke: #262626; stroke-width: 0.8"/>
      </g>
     </g>
     <g id="text_8">
      <text style="fill: #262626; font: 10px 'Arial', 'DejaVu Sans', 'Liberation Sans', 'Bitstream Vera Sans', sans-serif; text-anchor: end" x="35.625" y="185.382953" transform="rotate(-0 35.625 185.382953)">0.5</text>
     </g>
    </g>
    <g id="ytick_3">
     <g id="line2d_8">
      <g>
       <use xlink:href="#m3922933bcd" x="42.625" y="151.450718" style="fill: #262626; stroke: #262626; stroke-width: 0.8"/>
      </g>
     </g>
     <g id="text_9">
      <text style="fill: #262626; font: 10px 'Arial', 'DejaVu Sans', 'Liberation Sans', 'Bitstream Vera Sans', sans-serif; text-anchor: end" x="35.625" y="155.249937" transform="rotate(-0 35.625 155.249937)">0.6</text>
     </g>
    </g>
    <g id="ytick_4">
     <g id="line2d_9">
      <g>
       <use xlink:href="#m3922933bcd" x="42.625" y="121.317702" style="fill: #262626; stroke: #262626; stroke-width: 0.8"/>
      </g>
     </g>
     <g id="text_10">
      <text style="fill: #262626; font: 10px 'Arial', 'DejaVu Sans', 'Liberation Sans', 'Bitstream Vera Sans', sans-serif; text-anchor: end" x="35.625" y="125.116921" transform="rotate(-0 35.625 125.116921)">0.7</text>
     </g>
    </g>
    <g id="ytick_5">
     <g id="line2d_10">
      <g>
       <use xlink:href="#m3922933bcd" x="42.625" y="91.184686" style="fill: #262626; stroke: #262626; stroke-width: 0.8"/>
      </g>
     </g>
     <g id="text_11">
      <text style="fill: #262626; font: 10px 'Arial', 'DejaVu Sans', 'Liberation Sans', 'Bitstream Vera Sans', sans-serif; text-anchor: end" x="35.625" y="94.983905" transform="rotate(-0 35.625 94.983905)">0.8</text>
     </g>
    </g>
    <g id="ytick_6">
     <g id="line2d_11">
      <g>
       <use xlink:href="#m3922933bcd" x="42.625" y="61.051671" style="fill: #262626; stroke: #262626; stroke-width: 0.8"/>
      </g>
     </g>
     <g id="text_12">
      <text style="fill: #262626; font: 10px 'Arial', 'DejaVu Sans', 'Liberation Sans', 'Bitstream Vera Sans', sans-serif; text-anchor: end" x="35.625" y="64.850889" transform="rotate(-0 35.625 64.850889)">0.9</text>
     </g>
    </g>
    <g id="ytick_7">
     <g id="line2d_12">
      <g>
       <use xlink:href="#m3922933bcd" x="42.625" y="30.918655" style="fill: #262626; stroke: #262626; stroke-width: 0.8"/>
      </g>
     </g>
     <g id="text_13">
      <text style="fill: #262626; font: 10px 'Arial', 'DejaVu Sans', 'Liberation Sans', 'Bitstream Vera Sans', sans-serif; text-anchor: end" x="35.625" y="34.717874" transform="rotate(-0 35.625 34.717874)">1.0</text>
     </g>
    </g>
    <g id="text_14">
     <text style="fill: #262626; font: 10px 'Arial', 'DejaVu Sans', 'Liberation Sans', 'Bitstream Vera Sans', sans-serif; text-anchor: middle" x="13.642188" y="109.7" transform="rotate(-90 13.642188 109.7)">Weighted F1-score (GOI vs Controls)</text>
    </g>
   </g>
   <g id="LineCollection_1">
    <path d="M 124.769586 135.913055 
L 197.643023 135.913055 
" clip-path="url(#p0025bbaadf)" style="fill: none; stroke: #b6b6b4"/>
   </g>
   <g id="LineCollection_2">
    <path d="M 161.206304 191.056958 
L 161.206304 80.769153 
" clip-path="url(#p0025bbaadf)" style="fill: none; stroke: #b6b6b4"/>
   </g>
   <g id="line2d_13">
    <defs>
     <path id="m147a53fdeb" d="M 0 3 
L 0 -3 
" style="stroke: #b6b6b4"/>
    </defs>
    <g clip-path="url(#p0025bbaadf)">
     <use xlink:href="#m147a53fdeb" x="124.769586" y="135.913055" style="fill: #b6b6b4; stroke: #b6b6b4"/>
    </g>
   </g>
   <g id="line2d_14">
    <g clip-path="url(#p0025bbaadf)">
     <use xlink:href="#m147a53fdeb" x="197.643023" y="135.913055" style="fill: #b6b6b4; stroke: #b6b6b4"/>
    </g>
   </g>
   <g id="line2d_15">
    <defs>
     <path id="mf46f941b55" d="M 3 0 
L -3 -0 
" style="stroke: #b6b6b4"/>
    </defs>
    <g clip-path="url(#p0025bbaadf)">
     <use xlink:href="#mf46f941b55" x="161.206304" y="191.056958" style="fill: #b6b6b4; stroke: #b6b6b4"/>
    </g>
   </g>
   <g id="line2d_16">
    <g clip-path="url(#p0025bbaadf)">
     <use xlink:href="#mf46f941b55" x="161.206304" y="80.769153" style="fill: #b6b6b4; stroke: #b6b6b4"/>
    </g>
   </g>
   <g id="LineCollection_3">
    <path d="M 162.037414 163.821689 
L 216.672045 163.821689 
" clip-path="url(#p0025bbaadf)" style="fill: none; stroke: #b6b6b4"/>
   </g>
   <g id="LineCollection_4">
    <path d="M 189.35473 204.881818 
L 189.35473 122.76156 
" clip-path="url(#p0025bbaadf)" style="fill: none; stroke: #b6b6b4"/>
   </g>
   <g id="line2d_17">
    <g clip-path="url(#p0025bbaadf)">
     <use xlink:href="#m147a53fdeb" x="162.037414" y="163.821689" style="fill: #b6b6b4; stroke: #b6b6b4"/>
    </g>
   </g>
   <g id="line2d_18">
    <g clip-path="url(#p0025bbaadf)">
     <use xlink:href="#m147a53fdeb" x="216.672045" y="163.821689" style="fill: #b6b6b4; stroke: #b6b6b4"/>
    </g>
   </g>
   <g id="line2d_19">
    <g clip-path="url(#p0025bbaadf)">
     <use xlink:href="#mf46f941b55" x="189.35473" y="204.881818" style="fill: #b6b6b4; stroke: #b6b6b4"/>
    </g>
   </g>
   <g id="line2d_20">
    <g clip-path="url(#p0025bbaadf)">
     <use xlink:href="#mf46f941b55" x="189.35473" y="122.76156" style="fill: #b6b6b4; stroke: #b6b6b4"/>
    </g>
   </g>
   <g id="LineCollection_5">
    <path d="M 86.298598 55.009223 
L 182.787263 55.009223 
" clip-path="url(#p0025bbaadf)" style="fill: none; stroke: #b6b6b4"/>
   </g>
   <g id="LineCollection_6">
    <path d="M 134.542931 95.500264 
L 134.542931 14.518182 
" clip-path="url(#p0025bbaadf)" style="fill: none; stroke: #b6b6b4"/>
   </g>
   <g id="line2d_21">
    <g clip-path="url(#p0025bbaadf)">
     <use xlink:href="#m147a53fdeb" x="86.298598" y="55.009223" style="fill: #b6b6b4; stroke: #b6b6b4"/>
    </g>
   </g>
   <g id="line2d_22">
    <g clip-path="url(#p0025bbaadf)">
     <use xlink:href="#m147a53fdeb" x="182.787263" y="55.009223" style="fill: #b6b6b4; stroke: #b6b6b4"/>
    </g>
   </g>
   <g id="line2d_23">
    <g clip-path="url(#p0025bbaadf)">
     <use xlink:href="#mf46f941b55" x="134.542931" y="95.500264" style="fill: #b6b6b4; stroke: #b6b6b4"/>
    </g>
   </g>
   <g id="line2d_24">
    <g clip-path="url(#p0025bbaadf)">
     <use xlink:href="#mf46f941b55" x="134.542931" y="14.518182" style="fill: #b6b6b4; stroke: #b6b6b4"/>
    </g>
   </g>
   <g id="LineCollection_7">
    <path d="M 85.443399 48.57208 
L 171.573598 48.57208 
" clip-path="url(#p0025bbaadf)" style="fill: none; stroke: #b6b6b4"/>
   </g>
   <g id="LineCollection_8">
    <path d="M 128.508498 76.047699 
L 128.508498 21.096461 
" clip-path="url(#p0025bbaadf)" style="fill: none; stroke: #b6b6b4"/>
   </g>
   <g id="line2d_25">
    <g clip-path="url(#p0025bbaadf)">
     <use xlink:href="#m147a53fdeb" x="85.443399" y="48.57208" style="fill: #b6b6b4; stroke: #b6b6b4"/>
    </g>
   </g>
   <g id="line2d_26">
    <g clip-path="url(#p0025bbaadf)">
     <use xlink:href="#m147a53fdeb" x="171.573598" y="48.57208" style="fill: #b6b6b4; stroke: #b6b6b4"/>
    </g>
   </g>
   <g id="line2d_27">
    <g clip-path="url(#p0025bbaadf)">
     <use xlink:href="#mf46f941b55" x="128.508498" y="76.047699" style="fill: #b6b6b4; stroke: #b6b6b4"/>
    </g>
   </g>
   <g id="line2d_28">
    <g clip-path="url(#p0025bbaadf)">
     <use xlink:href="#mf46f941b55" x="128.508498" y="21.096461" style="fill: #b6b6b4; stroke: #b6b6b4"/>
    </g>
   </g>
   <g id="LineCollection_9">
    <path d="M 125.744989 71.523164 
L 204.717075 71.523164 
" clip-path="url(#p0025bbaadf)" style="fill: none; stroke: #b6b6b4"/>
   </g>
   <g id="LineCollection_10">
    <path d="M 165.231032 110.713 
L 165.231032 32.333328 
" clip-path="url(#p0025bbaadf)" style="fill: none; stroke: #b6b6b4"/>
   </g>
   <g id="line2d_29">
    <g clip-path="url(#p0025bbaadf)">
     <use xlink:href="#m147a53fdeb" x="125.744989" y="71.523164" style="fill: #b6b6b4; stroke: #b6b6b4"/>
    </g>
   </g>
   <g id="line2d_30">
    <g clip-path="url(#p0025bbaadf)">
     <use xlink:href="#m147a53fdeb" x="204.717075" y="71.523164" style="fill: #b6b6b4; stroke: #b6b6b4"/>
    </g>
   </g>
   <g id="line2d_31">
    <g clip-path="url(#p0025bbaadf)">
     <use xlink:href="#mf46f941b55" x="165.231032" y="110.713" style="fill: #b6b6b4; stroke: #b6b6b4"/>
    </g>
   </g>
   <g id="line2d_32">
    <g clip-path="url(#p0025bbaadf)">
     <use xlink:href="#mf46f941b55" x="165.231032" y="32.333328" style="fill: #b6b6b4; stroke: #b6b6b4"/>
    </g>
   </g>
   <g id="LineCollection_11">
    <path d="M 95.509064 84.420428 
L 193.047176 84.420428 
" clip-path="url(#p0025bbaadf)" style="fill: none; stroke: #b6b6b4"/>
   </g>
   <g id="LineCollection_12">
    <path d="M 144.27812 132.720677 
L 144.27812 36.120178 
" clip-path="url(#p0025bbaadf)" style="fill: none; stroke: #b6b6b4"/>
   </g>
   <g id="line2d_33">
    <g clip-path="url(#p0025bbaadf)">
     <use xlink:href="#m147a53fdeb" x="95.509064" y="84.420428" style="fill: #b6b6b4; stroke: #b6b6b4"/>
    </g>
   </g>
   <g id="line2d_34">
    <g clip-path="url(#p0025bbaadf)">
     <use xlink:href="#m147a53fdeb" x="193.047176" y="84.420428" style="fill: #b6b6b4; stroke: #b6b6b4"/>
    </g>
   </g>
   <g id="line2d_35">
    <g clip-path="url(#p0025bbaadf)">
     <use xlink:href="#mf46f941b55" x="144.27812" y="132.720677" style="fill: #b6b6b4; stroke: #b6b6b4"/>
    </g>
   </g>
   <g id="line2d_36">
    <g clip-path="url(#p0025bbaadf)">
     <use xlink:href="#mf46f941b55" x="144.27812" y="36.120178" style="fill: #b6b6b4; stroke: #b6b6b4"/>
    </g>
   </g>
   <g id="LineCollection_13">
    <path d="M 104.394172 90.030406 
L 201.974434 90.030406 
" clip-path="url(#p0025bbaadf)" style="fill: none; stroke: #b6b6b4"/>
   </g>
   <g id="LineCollection_14">
    <path d="M 153.184303 128.522591 
L 153.184303 51.538222 
" clip-path="url(#p0025bbaadf)" style="fill: none; stroke: #b6b6b4"/>
   </g>
   <g id="line2d_37">
    <g clip-path="url(#p0025bbaadf)">
     <use xlink:href="#m147a53fdeb" x="104.394172" y="90.030406" style="fill: #b6b6b4; stroke: #b6b6b4"/>
    </g>
   </g>
   <g id="line2d_38">
    <g clip-path="url(#p0025bbaadf)">
     <use xlink:href="#m147a53fdeb" x="201.974434" y="90.030406" style="fill: #b6b6b4; stroke: #b6b6b4"/>
    </g>
   </g>
   <g id="line2d_39">
    <g clip-path="url(#p0025bbaadf)">
     <use xlink:href="#mf46f941b55" x="153.184303" y="128.522591" style="fill: #b6b6b4; stroke: #b6b6b4"/>
    </g>
   </g>
   <g id="line2d_40">
    <g clip-path="url(#p0025bbaadf)">
     <use xlink:href="#mf46f941b55" x="153.184303" y="51.538222" style="fill: #b6b6b4; stroke: #b6b6b4"/>
    </g>
   </g>
   <g id="LineCollection_15">
    <path d="M 50.912955 37.98192 
L 119.505421 37.98192 
" clip-path="url(#p0025bbaadf)" style="fill: none; stroke: #b6b6b4"/>
   </g>
   <g id="LineCollection_16">
    <path d="M 85.209188 44.696178 
L 85.209188 31.267662 
" clip-path="url(#p0025bbaadf)" style="fill: none; stroke: #b6b6b4"/>
   </g>
   <g id="line2d_41">
    <g clip-path="url(#p0025bbaadf)">
     <use xlink:href="#m147a53fdeb" x="50.912955" y="37.98192" style="fill: #b6b6b4; stroke: #b6b6b4"/>
    </g>
   </g>
   <g id="line2d_42">
    <g clip-path="url(#p0025bbaadf)">
     <use xlink:href="#m147a53fdeb" x="119.505421" y="37.98192" style="fill: #b6b6b4; stroke: #b6b6b4"/>
    </g>
   </g>
   <g id="line2d_43">
    <g clip-path="url(#p0025bbaadf)">
     <use xlink:href="#mf46f941b55" x="85.209188" y="44.696178" style="fill: #b6b6b4; stroke: #b6b6b4"/>
    </g>
   </g>
   <g id="line2d_44">
    <g clip-path="url(#p0025bbaadf)">
     <use xlink:href="#mf46f941b55" x="85.209188" y="31.267662" style="fill: #b6b6b4; stroke: #b6b6b4"/>
    </g>
   </g>
   <g id="LineCollection_17">
    <path d="M 106.213708 66.489188 
L 189.540816 66.489188 
" clip-path="url(#p0025bbaadf)" style="fill: none; stroke: #b6b6b4"/>
   </g>
   <g id="LineCollection_18">
    <path d="M 147.877262 96.588184 
L 147.877262 36.390192 
" clip-path="url(#p0025bbaadf)" style="fill: none; stroke: #b6b6b4"/>
   </g>
   <g id="line2d_45">
    <g clip-path="url(#p0025bbaadf)">
     <use xlink:href="#m147a53fdeb" x="106.213708" y="66.489188" style="fill: #b6b6b4; stroke: #b6b6b4"/>
    </g>
   </g>
   <g id="line2d_46">
    <g clip-path="url(#p0025bbaadf)">
     <use xlink:href="#m147a53fdeb" x="189.540816" y="66.489188" style="fill: #b6b6b4; stroke: #b6b6b4"/>
    </g>
   </g>
   <g id="line2d_47">
    <g clip-path="url(#p0025bbaadf)">
     <use xlink:href="#mf46f941b55" x="147.877262" y="96.588184" style="fill: #b6b6b4; stroke: #b6b6b4"/>
    </g>
   </g>
   <g id="line2d_48">
    <g clip-path="url(#p0025bbaadf)">
     <use xlink:href="#mf46f941b55" x="147.877262" y="36.390192" style="fill: #b6b6b4; stroke: #b6b6b4"/>
    </g>
   </g>
   <g id="LineCollection_19">
    <path d="M 86.637588 52.8316 
L 194.562937 52.8316 
" clip-path="url(#p0025bbaadf)" style="fill: none; stroke: #b6b6b4"/>
   </g>
   <g id="LineCollection_20">
    <path d="M 140.600263 82.792486 
L 140.600263 22.870714 
" clip-path="url(#p0025bbaadf)" style="fill: none; stroke: #b6b6b4"/>
   </g>
   <g id="line2d_49">
    <g clip-path="url(#p0025bbaadf)">
     <use xlink:href="#m147a53fdeb" x="86.637588" y="52.8316" style="fill: #b6b6b4; stroke: #b6b6b4"/>
    </g>
   </g>
   <g id="line2d_50">
    <g clip-path="url(#p0025bbaadf)">
     <use xlink:href="#m147a53fdeb" x="194.562937" y="52.8316" style="fill: #b6b6b4; stroke: #b6b6b4"/>
    </g>
   </g>
   <g id="line2d_51">
    <g clip-path="url(#p0025bbaadf)">
     <use xlink:href="#mf46f941b55" x="140.600263" y="82.792486" style="fill: #b6b6b4; stroke: #b6b6b4"/>
    </g>
   </g>
   <g id="line2d_52">
    <g clip-path="url(#p0025bbaadf)">
     <use xlink:href="#mf46f941b55" x="140.600263" y="22.870714" style="fill: #b6b6b4; stroke: #b6b6b4"/>
    </g>
   </g>
   <g id="LineCollection_21">
    <path d="M 57.026289 38.810172 
L 173.030301 38.810172 
" clip-path="url(#p0025bbaadf)" style="fill: none; stroke: #b6b6b4"/>
   </g>
   <g id="LineCollection_22">
    <path d="M 115.028295 46.505356 
L 115.028295 31.114987 
" clip-path="url(#p0025bbaadf)" style="fill: none; stroke: #b6b6b4"/>
   </g>
   <g id="line2d_53">
    <g clip-path="url(#p0025bbaadf)">
     <use xlink:href="#m147a53fdeb" x="57.026289" y="38.810172" style="fill: #b6b6b4; stroke: #b6b6b4"/>
    </g>
   </g>
   <g id="line2d_54">
    <g clip-path="url(#p0025bbaadf)">
     <use xlink:href="#m147a53fdeb" x="173.030301" y="38.810172" style="fill: #b6b6b4; stroke: #b6b6b4"/>
    </g>
   </g>
   <g id="line2d_55">
    <g clip-path="url(#p0025bbaadf)">
     <use xlink:href="#mf46f941b55" x="115.028295" y="46.505356" style="fill: #b6b6b4; stroke: #b6b6b4"/>
    </g>
   </g>
   <g id="line2d_56">
    <g clip-path="url(#p0025bbaadf)">
     <use xlink:href="#mf46f941b55" x="115.028295" y="31.114987" style="fill: #b6b6b4; stroke: #b6b6b4"/>
    </g>
   </g>
   <g id="line2d_57">
    <path d="M 42.625 181.583734 
L 224.96 181.583734 
" clip-path="url(#p0025bbaadf)" style="fill: none; stroke-dasharray: 5.55,2.4; stroke-dashoffset: 0; stroke: #dc143c; stroke-opacity: 0.5; stroke-width: 1.5"/>
   </g>
   <g id="line2d_58">
    <defs>
     <path id="mcef9bbc245" d="M 0 3 
C 0.795609 3 1.55874 2.683901 2.12132 2.12132 
C 2.683901 1.55874 3 0.795609 3 0 
C 3 -0.795609 2.683901 -1.55874 2.12132 -2.12132 
C 1.55874 -2.683901 0.795609 -3 0 -3 
C -0.795609 -3 -1.55874 -2.683901 -2.12132 -2.12132 
C -2.683901 -1.55874 -3 -0.795609 -3 0 
C -3 0.795609 -2.683901 1.55874 -2.12132 2.12132 
C -1.55874 2.683901 -0.795609 3 0 3 
z
" style="stroke: #93ae8b"/>
    </defs>
    <g clip-path="url(#p0025bbaadf)">
     <use xlink:href="#mcef9bbc245" x="161.206304" y="135.913055" style="fill: #93ae8b; stroke: #93ae8b"/>
    </g>
   </g>
   <g id="line2d_59">
    <defs>
     <path id="m8991bfe726" d="M 0 3 
C 0.795609 3 1.55874 2.683901 2.12132 2.12132 
C 2.683901 1.55874 3 0.795609 3 0 
C 3 -0.795609 2.683901 -1.55874 2.12132 -2.12132 
C 1.55874 -2.683901 0.795609 -3 0 -3 
C -0.795609 -3 -1.55874 -2.683901 -2.12132 -2.12132 
C -2.683901 -1.55874 -3 -0.795609 -3 0 
C -3 0.795609 -2.683901 1.55874 -2.12132 2.12132 
C -1.55874 2.683901 -0.795609 3 0 3 
z
" style="stroke: #000000"/>
    </defs>
    <g clip-path="url(#p0025bbaadf)">
     <use xlink:href="#m8991bfe726" x="189.35473" y="163.821689" style="stroke: #000000"/>
    </g>
   </g>
   <g id="line2d_60">
    <defs>
     <path id="m63b0609bd1" d="M 0 3 
C 0.795609 3 1.55874 2.683901 2.12132 2.12132 
C 2.683901 1.55874 3 0.795609 3 0 
C 3 -0.795609 2.683901 -1.55874 2.12132 -2.12132 
C 1.55874 -2.683901 0.795609 -3 0 -3 
C -0.795609 -3 -1.55874 -2.683901 -2.12132 -2.12132 
C -2.683901 -1.55874 -3 -0.795609 -3 0 
C -3 0.795609 -2.683901 1.55874 -2.12132 2.12132 
C -1.55874 2.683901 -0.795609 3 0 3 
z
" style="stroke: #df7ffe"/>
    </defs>
    <g clip-path="url(#p0025bbaadf)">
     <use xlink:href="#m63b0609bd1" x="134.542931" y="55.009223" style="fill: #df7ffe; stroke: #df7ffe"/>
    </g>
   </g>
   <g id="line2d_61">
    <defs>
     <path id="m1ecdfea8fb" d="M 0 3 
C 0.795609 3 1.55874 2.683901 2.12132 2.12132 
C 2.683901 1.55874 3 0.795609 3 0 
C 3 -0.795609 2.683901 -1.55874 2.12132 -2.12132 
C 1.55874 -2.683901 0.795609 -3 0 -3 
C -0.795609 -3 -1.55874 -2.683901 -2.12132 -2.12132 
C -2.683901 -1.55874 -3 -0.795609 -3 0 
C -3 0.795609 -2.683901 1.55874 -2.12132 2.12132 
C -1.55874 2.683901 -0.795609 3 0 3 
z
" style="stroke: #12ff1b"/>
    </defs>
    <g clip-path="url(#p0025bbaadf)">
     <use xlink:href="#m1ecdfea8fb" x="128.508498" y="48.57208" style="fill: #12ff1b; stroke: #12ff1b"/>
    </g>
   </g>
   <g id="line2d_62">
    <defs>
     <path id="m6ec557d40d" d="M 0 3 
C 0.795609 3 1.55874 2.683901 2.12132 2.12132 
C 2.683901 1.55874 3 0.795609 3 0 
C 3 -0.795609 2.683901 -1.55874 2.12132 -2.12132 
C 1.55874 -2.683901 0.795609 -3 0 -3 
C -0.795609 -3 -1.55874 -2.683901 -2.12132 -2.12132 
C -2.683901 -1.55874 -3 -0.795609 -3 0 
C -3 0.795609 -2.683901 1.55874 -2.12132 2.12132 
C -1.55874 2.683901 -0.795609 3 0 3 
z
" style="stroke: #40fbc9"/>
    </defs>
    <g clip-path="url(#p0025bbaadf)">
     <use xlink:href="#m6ec557d40d" x="165.231032" y="71.523164" style="fill: #40fbc9; stroke: #40fbc9"/>
    </g>
   </g>
   <g id="line2d_63">
    <defs>
     <path id="m65cc8b9a41" d="M 0 3 
C 0.795609 3 1.55874 2.683901 2.12132 2.12132 
C 2.683901 1.55874 3 0.795609 3 0 
C 3 -0.795609 2.683901 -1.55874 2.12132 -2.12132 
C 1.55874 -2.683901 0.795609 -3 0 -3 
C -0.795609 -3 -1.55874 -2.683901 -2.12132 -2.12132 
C -2.683901 -1.55874 -3 -0.795609 -3 0 
C -3 0.795609 -2.683901 1.55874 -2.12132 2.12132 
C -1.55874 2.683901 -0.795609 3 0 3 
z
" style="stroke: #008080"/>
    </defs>
    <g clip-path="url(#p0025bbaadf)">
     <use xlink:href="#m65cc8b9a41" x="144.27812" y="84.420428" style="fill: #008080; stroke: #008080"/>
    </g>
   </g>
   <g id="line2d_64">
    <defs>
     <path id="mb2168dd2e4" d="M 0 3 
C 0.795609 3 1.55874 2.683901 2.12132 2.12132 
C 2.683901 1.55874 3 0.795609 3 0 
C 3 -0.795609 2.683901 -1.55874 2.12132 -2.12132 
C 1.55874 -2.683901 0.795609 -3 0 -3 
C -0.795609 -3 -1.55874 -2.683901 -2.12132 -2.12132 
C -2.683901 -1.55874 -3 -0.795609 -3 0 
C -3 0.795609 -2.683901 1.55874 -2.12132 2.12132 
C -1.55874 2.683901 -0.795609 3 0 3 
z
" style="stroke: #0500f5"/>
    </defs>
    <g clip-path="url(#p0025bbaadf)">
     <use xlink:href="#mb2168dd2e4" x="153.184303" y="90.030406" style="fill: #0500f5; stroke: #0500f5"/>
    </g>
   </g>
   <g id="line2d_65">
    <defs>
     <path id="mf348c9c0a0" d="M 0 3 
C 0.795609 3 1.55874 2.683901 2.12132 2.12132 
C 2.683901 1.55874 3 0.795609 3 0 
C 3 -0.795609 2.683901 -1.55874 2.12132 -2.12132 
C 1.55874 -2.683901 0.795609 -3 0 -3 
C -0.795609 -3 -1.55874 -2.683901 -2.12132 -2.12132 
C -2.683901 -1.55874 -3 -0.795609 -3 0 
C -3 0.795609 -2.683901 1.55874 -2.12132 2.12132 
C -1.55874 2.683901 -0.795609 3 0 3 
z
" style="stroke: #ff0000"/>
    </defs>
    <g clip-path="url(#p0025bbaadf)">
     <use xlink:href="#mf348c9c0a0" x="85.209188" y="37.98192" style="fill: #ff0000; stroke: #ff0000"/>
    </g>
   </g>
   <g id="line2d_66">
    <defs>
     <path id="m91c1efc28c" d="M 0 3 
C 0.795609 3 1.55874 2.683901 2.12132 2.12132 
C 2.683901 1.55874 3 0.795609 3 0 
C 3 -0.795609 2.683901 -1.55874 2.12132 -2.12132 
C 1.55874 -2.683901 0.795609 -3 0 -3 
C -0.795609 -3 -1.55874 -2.683901 -2.12132 -2.12132 
C -2.683901 -1.55874 -3 -0.795609 -3 0 
C -3 0.795609 -2.683901 1.55874 -2.12132 2.12132 
C -1.55874 2.683901 -0.795609 3 0 3 
z
" style="stroke: #0080ff"/>
    </defs>
    <g clip-path="url(#p0025bbaadf)">
     <use xlink:href="#m91c1efc28c" x="147.877262" y="66.489188" style="fill: #0080ff; stroke: #0080ff"/>
    </g>
   </g>
   <g id="line2d_67">
    <defs>
     <path id="m230d1a474d" d="M 0 3 
C 0.795609 3 1.55874 2.683901 2.12132 2.12132 
C 2.683901 1.55874 3 0.795609 3 0 
C 3 -0.795609 2.683901 -1.55874 2.12132 -2.12132 
C 1.55874 -2.683901 0.795609 -3 0 -3 
C -0.795609 -3 -1.55874 -2.683901 -2.12132 -2.12132 
C -2.683901 -1.55874 -3 -0.795609 -3 0 
C -3 0.795609 -2.683901 1.55874 -2.12132 2.12132 
C -1.55874 2.683901 -0.795609 3 0 3 
z
" style="stroke: #ff8000"/>
    </defs>
    <g clip-path="url(#p0025bbaadf)">
     <use xlink:href="#m230d1a474d" x="140.600263" y="52.8316" style="fill: #ff8000; stroke: #ff8000"/>
    </g>
   </g>
   <g id="line2d_68">
    <defs>
     <path id="m40087490c5" d="M 0 3 
C 0.795609 3 1.55874 2.683901 2.12132 2.12132 
C 2.683901 1.55874 3 0.795609 3 0 
C 3 -0.795609 2.683901 -1.55874 2.12132 -2.12132 
C 1.55874 -2.683901 0.795609 -3 0 -3 
C -0.795609 -3 -1.55874 -2.683901 -2.12132 -2.12132 
C -2.683901 -1.55874 -3 -0.795609 -3 0 
C -3 0.795609 -2.683901 1.55874 -2.12132 2.12132 
C -1.55874 2.683901 -0.795609 3 0 3 
z
" style="stroke: #804080"/>
    </defs>
    <g clip-path="url(#p0025bbaadf)">
     <use xlink:href="#m40087490c5" x="115.028295" y="38.810172" style="fill: #804080; stroke: #804080"/>
    </g>
   </g>
   <g id="patch_3">
    <path d="M 42.625 214.4 
L 42.625 5 
" style="fill: none; stroke: #262626; stroke-width: 0.8; stroke-linejoin: miter; stroke-linecap: square"/>
   </g>
   <g id="patch_4">
    <path d="M 224.96 214.4 
L 224.96 5 
" style="fill: none; stroke: #262626; stroke-width: 0.8; stroke-linejoin: miter; stroke-linecap: square"/>
   </g>
   <g id="patch_5">
    <path d="M 42.625 214.4 
L 224.96 214.4 
" style="fill: none; stroke: #262626; stroke-width: 0.8; stroke-linejoin: miter; stroke-linecap: square"/>
   </g>
   <g id="patch_6">
    <path d="M 42.625 5 
L 224.96 5 
" style="fill: none; stroke: #262626; stroke-width: 0.8; stroke-linejoin: miter; stroke-linecap: square"/>
   </g>
   <g id="text_15">
    <text style="fill: #dc143c; font: 6.5px 'Arial', 'DejaVu Sans', 'Liberation Sans', 'Bitstream Vera Sans', sans-serif; text-anchor: start" x="52.650578" y="180.077083" transform="rotate(-0 52.650578 180.077083)">Random Prediction</text>
   </g>
   <g id="text_16">
    <text style="fill: #262626; font: 12px 'Arial', 'DejaVu Sans', 'Liberation Sans', 'Bitstream Vera Sans', sans-serif; text-anchor: middle" x="133.7925" y="-1" transform="rotate(-0 133.7925 -1)">Comparison for FGES types</text>
   </g>
   <g id="legend_1">
    <g id="patch_7">
     <path d="M 241.07675 176.128125 
L 417.8705 176.128125 
Q 419.8705 176.128125 419.8705 174.128125 
L 419.8705 12 
Q 419.8705 10 417.8705 10 
L 241.07675 10 
Q 239.07675 10 239.07675 12 
L 239.07675 174.128125 
Q 239.07675 176.128125 241.07675 176.128125 
z
" style="fill: #ffffff; opacity: 0.8; stroke: #cccccc; stroke-linejoin: miter"/>
    </g>
    <g id="LineCollection_23">
     <path d="M 248.07675 18.098437 
L 258.07675 18.098437 
" style="fill: none; stroke: #b6b6b4"/>
    </g>
    <g id="LineCollection_24">
     <path d="M 253.07675 23.098437 
L 253.07675 13.098437 
" style="fill: none; stroke: #b6b6b4"/>
    </g>
    <g id="line2d_69">
     <g>
      <use xlink:href="#m147a53fdeb" x="248.07675" y="18.098437" style="fill: #b6b6b4; stroke: #b6b6b4"/>
     </g>
    </g>
    <g id="line2d_70">
     <g>
      <use xlink:href="#m147a53fdeb" x="258.07675" y="18.098437" style="fill: #b6b6b4; stroke: #b6b6b4"/>
     </g>
    </g>
    <g id="line2d_71">
     <g>
      <use xlink:href="#mf46f941b55" x="253.07675" y="23.098437" style="fill: #b6b6b4; stroke: #b6b6b4"/>
     </g>
    </g>
    <g id="line2d_72">
     <g>
      <use xlink:href="#mf46f941b55" x="253.07675" y="13.098437" style="fill: #b6b6b4; stroke: #b6b6b4"/>
     </g>
    </g>
    <g id="line2d_73"/>
    <g id="line2d_74">
     <g>
      <use xlink:href="#mf348c9c0a0" x="253.07675" y="18.098437" style="fill: #ff0000; stroke: #ff0000"/>
     </g>
    </g>
    <g id="text_17">
     <text style="fill: #262626; font: 10px 'Arial', 'DejaVu Sans', 'Liberation Sans', 'Bitstream Vera Sans', sans-serif; text-anchor: start" x="271.07675" y="21.598437" transform="rotate(-0 271.07675 21.598437)">Internal</text>
    </g>
    <g id="LineCollection_25">
     <path d="M 248.07675 32.776563 
L 258.07675 32.776563 
" style="fill: none; stroke: #b6b6b4"/>
    </g>
    <g id="LineCollection_26">
     <path d="M 253.07675 37.776563 
L 253.07675 27.776563 
" style="fill: none; stroke: #b6b6b4"/>
    </g>
    <g id="line2d_75">
     <g>
      <use xlink:href="#m147a53fdeb" x="248.07675" y="32.776563" style="fill: #b6b6b4; stroke: #b6b6b4"/>
     </g>
    </g>
    <g id="line2d_76">
     <g>
      <use xlink:href="#m147a53fdeb" x="258.07675" y="32.776563" style="fill: #b6b6b4; stroke: #b6b6b4"/>
     </g>
    </g>
    <g id="line2d_77">
     <g>
      <use xlink:href="#mf46f941b55" x="253.07675" y="37.776563" style="fill: #b6b6b4; stroke: #b6b6b4"/>
     </g>
    </g>
    <g id="line2d_78">
     <g>
      <use xlink:href="#mf46f941b55" x="253.07675" y="27.776563" style="fill: #b6b6b4; stroke: #b6b6b4"/>
     </g>
    </g>
    <g id="line2d_79"/>
    <g id="line2d_80">
     <g>
      <use xlink:href="#m40087490c5" x="253.07675" y="32.776563" style="fill: #804080; stroke: #804080"/>
     </g>
    </g>
    <g id="text_18">
     <text style="fill: #262626; font: 10px 'Arial', 'DejaVu Sans', 'Liberation Sans', 'Bitstream Vera Sans', sans-serif; text-anchor: start" x="271.07675" y="36.276563" transform="rotate(-0 271.07675 36.276563)">Nirmal</text>
    </g>
    <g id="LineCollection_27">
     <path d="M 248.07675 47.454688 
L 258.07675 47.454688 
" style="fill: none; stroke: #b6b6b4"/>
    </g>
    <g id="LineCollection_28">
     <path d="M 253.07675 52.454688 
L 253.07675 42.454688 
" style="fill: none; stroke: #b6b6b4"/>
    </g>
    <g id="line2d_81">
     <g>
      <use xlink:href="#m147a53fdeb" x="248.07675" y="47.454688" style="fill: #b6b6b4; stroke: #b6b6b4"/>
     </g>
    </g>
    <g id="line2d_82">
     <g>
      <use xlink:href="#m147a53fdeb" x="258.07675" y="47.454688" style="fill: #b6b6b4; stroke: #b6b6b4"/>
     </g>
    </g>
    <g id="line2d_83">
     <g>
      <use xlink:href="#mf46f941b55" x="253.07675" y="52.454688" style="fill: #b6b6b4; stroke: #b6b6b4"/>
     </g>
    </g>
    <g id="line2d_84">
     <g>
      <use xlink:href="#mf46f941b55" x="253.07675" y="42.454688" style="fill: #b6b6b4; stroke: #b6b6b4"/>
     </g>
    </g>
    <g id="line2d_85"/>
    <g id="line2d_86">
     <g>
      <use xlink:href="#m230d1a474d" x="253.07675" y="47.454688" style="fill: #ff8000; stroke: #ff8000"/>
     </g>
    </g>
    <g id="text_19">
     <text style="fill: #262626; font: 10px 'Arial', 'DejaVu Sans', 'Liberation Sans', 'Bitstream Vera Sans', sans-serif; text-anchor: start" x="271.07675" y="50.954688" transform="rotate(-0 271.07675 50.954688)">Bindea</text>
    </g>
    <g id="LineCollection_29">
     <path d="M 248.07675 62.132812 
L 258.07675 62.132812 
" style="fill: none; stroke: #b6b6b4"/>
    </g>
    <g id="LineCollection_30">
     <path d="M 253.07675 67.132812 
L 253.07675 57.132812 
" style="fill: none; stroke: #b6b6b4"/>
    </g>
    <g id="line2d_87">
     <g>
      <use xlink:href="#m147a53fdeb" x="248.07675" y="62.132812" style="fill: #b6b6b4; stroke: #b6b6b4"/>
     </g>
    </g>
    <g id="line2d_88">
     <g>
      <use xlink:href="#m147a53fdeb" x="258.07675" y="62.132812" style="fill: #b6b6b4; stroke: #b6b6b4"/>
     </g>
    </g>
    <g id="line2d_89">
     <g>
      <use xlink:href="#mf46f941b55" x="253.07675" y="67.132812" style="fill: #b6b6b4; stroke: #b6b6b4"/>
     </g>
    </g>
    <g id="line2d_90">
     <g>
      <use xlink:href="#mf46f941b55" x="253.07675" y="57.132812" style="fill: #b6b6b4; stroke: #b6b6b4"/>
     </g>
    </g>
    <g id="line2d_91"/>
    <g id="line2d_92">
     <g>
      <use xlink:href="#m1ecdfea8fb" x="253.07675" y="62.132812" style="fill: #12ff1b; stroke: #12ff1b"/>
     </g>
    </g>
    <g id="text_20">
     <text style="fill: #262626; font: 10px 'Arial', 'DejaVu Sans', 'Liberation Sans', 'Bitstream Vera Sans', sans-serif; text-anchor: start" x="271.07675" y="65.632812" transform="rotate(-0 271.07675 65.632812)">xCell</text>
    </g>
    <g id="LineCollection_31">
     <path d="M 248.07675 76.810938 
L 258.07675 76.810938 
" style="fill: none; stroke: #b6b6b4"/>
    </g>
    <g id="LineCollection_32">
     <path d="M 253.07675 81.810938 
L 253.07675 71.810938 
" style="fill: none; stroke: #b6b6b4"/>
    </g>
    <g id="line2d_93">
     <g>
      <use xlink:href="#m147a53fdeb" x="248.07675" y="76.810938" style="fill: #b6b6b4; stroke: #b6b6b4"/>
     </g>
    </g>
    <g id="line2d_94">
     <g>
      <use xlink:href="#m147a53fdeb" x="258.07675" y="76.810938" style="fill: #b6b6b4; stroke: #b6b6b4"/>
     </g>
    </g>
    <g id="line2d_95">
     <g>
      <use xlink:href="#mf46f941b55" x="253.07675" y="81.810938" style="fill: #b6b6b4; stroke: #b6b6b4"/>
     </g>
    </g>
    <g id="line2d_96">
     <g>
      <use xlink:href="#mf46f941b55" x="253.07675" y="71.810938" style="fill: #b6b6b4; stroke: #b6b6b4"/>
     </g>
    </g>
    <g id="line2d_97"/>
    <g id="line2d_98">
     <g>
      <use xlink:href="#m6ec557d40d" x="253.07675" y="76.810938" style="fill: #40fbc9; stroke: #40fbc9"/>
     </g>
    </g>
    <g id="text_21">
     <text style="fill: #262626; font: 10px 'Arial', 'DejaVu Sans', 'Liberation Sans', 'Bitstream Vera Sans', sans-serif; text-anchor: start" x="271.07675" y="80.310938" transform="rotate(-0 271.07675 80.310938)">Gene_Ontology</text>
    </g>
    <g id="LineCollection_33">
     <path d="M 248.07675 91.767188 
L 258.07675 91.767188 
" style="fill: none; stroke: #b6b6b4"/>
    </g>
    <g id="LineCollection_34">
     <path d="M 253.07675 96.767188 
L 253.07675 86.767188 
" style="fill: none; stroke: #b6b6b4"/>
    </g>
    <g id="line2d_99">
     <g>
      <use xlink:href="#m147a53fdeb" x="248.07675" y="91.767188" style="fill: #b6b6b4; stroke: #b6b6b4"/>
     </g>
    </g>
    <g id="line2d_100">
     <g>
      <use xlink:href="#m147a53fdeb" x="258.07675" y="91.767188" style="fill: #b6b6b4; stroke: #b6b6b4"/>
     </g>
    </g>
    <g id="line2d_101">
     <g>
      <use xlink:href="#mf46f941b55" x="253.07675" y="96.767188" style="fill: #b6b6b4; stroke: #b6b6b4"/>
     </g>
    </g>
    <g id="line2d_102">
     <g>
      <use xlink:href="#mf46f941b55" x="253.07675" y="86.767188" style="fill: #b6b6b4; stroke: #b6b6b4"/>
     </g>
    </g>
    <g id="line2d_103"/>
    <g id="line2d_104">
     <g>
      <use xlink:href="#mb2168dd2e4" x="253.07675" y="91.767188" style="fill: #0500f5; stroke: #0500f5"/>
     </g>
    </g>
    <g id="text_22">
     <text style="fill: #262626; font: 10px 'Arial', 'DejaVu Sans', 'Liberation Sans', 'Bitstream Vera Sans', sans-serif; text-anchor: start" x="271.07675" y="95.267188" transform="rotate(-0 271.07675 95.267188)">Human_Phenotype_Ontology</text>
    </g>
    <g id="LineCollection_35">
     <path d="M 248.07675 106.723437 
L 258.07675 106.723437 
" style="fill: none; stroke: #b6b6b4"/>
    </g>
    <g id="LineCollection_36">
     <path d="M 253.07675 111.723437 
L 253.07675 101.723437 
" style="fill: none; stroke: #b6b6b4"/>
    </g>
    <g id="line2d_105">
     <g>
      <use xlink:href="#m147a53fdeb" x="248.07675" y="106.723437" style="fill: #b6b6b4; stroke: #b6b6b4"/>
     </g>
    </g>
    <g id="line2d_106">
     <g>
      <use xlink:href="#m147a53fdeb" x="258.07675" y="106.723437" style="fill: #b6b6b4; stroke: #b6b6b4"/>
     </g>
    </g>
    <g id="line2d_107">
     <g>
      <use xlink:href="#mf46f941b55" x="253.07675" y="111.723437" style="fill: #b6b6b4; stroke: #b6b6b4"/>
     </g>
    </g>
    <g id="line2d_108">
     <g>
      <use xlink:href="#mf46f941b55" x="253.07675" y="101.723437" style="fill: #b6b6b4; stroke: #b6b6b4"/>
     </g>
    </g>
    <g id="line2d_109"/>
    <g id="line2d_110">
     <g>
      <use xlink:href="#m91c1efc28c" x="253.07675" y="106.723437" style="fill: #0080ff; stroke: #0080ff"/>
     </g>
    </g>
    <g id="text_23">
     <text style="fill: #262626; font: 10px 'Arial', 'DejaVu Sans', 'Liberation Sans', 'Bitstream Vera Sans', sans-serif; text-anchor: start" x="271.07675" y="110.223437" transform="rotate(-0 271.07675 110.223437)">WikiPathways</text>
    </g>
    <g id="LineCollection_37">
     <path d="M 248.07675 121.401562 
L 258.07675 121.401562 
" style="fill: none; stroke: #b6b6b4"/>
    </g>
    <g id="LineCollection_38">
     <path d="M 253.07675 126.401562 
L 253.07675 116.401562 
" style="fill: none; stroke: #b6b6b4"/>
    </g>
    <g id="line2d_111">
     <g>
      <use xlink:href="#m147a53fdeb" x="248.07675" y="121.401562" style="fill: #b6b6b4; stroke: #b6b6b4"/>
     </g>
    </g>
    <g id="line2d_112">
     <g>
      <use xlink:href="#m147a53fdeb" x="258.07675" y="121.401562" style="fill: #b6b6b4; stroke: #b6b6b4"/>
     </g>
    </g>
    <g id="line2d_113">
     <g>
      <use xlink:href="#mf46f941b55" x="253.07675" y="126.401562" style="fill: #b6b6b4; stroke: #b6b6b4"/>
     </g>
    </g>
    <g id="line2d_114">
     <g>
      <use xlink:href="#mf46f941b55" x="253.07675" y="116.401562" style="fill: #b6b6b4; stroke: #b6b6b4"/>
     </g>
    </g>
    <g id="line2d_115"/>
    <g id="line2d_116">
     <g>
      <use xlink:href="#m63b0609bd1" x="253.07675" y="121.401562" style="fill: #df7ffe; stroke: #df7ffe"/>
     </g>
    </g>
    <g id="text_24">
     <text style="fill: #262626; font: 10px 'Arial', 'DejaVu Sans', 'Liberation Sans', 'Bitstream Vera Sans', sans-serif; text-anchor: start" x="271.07675" y="124.901562" transform="rotate(-0 271.07675 124.901562)">MSigDb_Single_Cell</text>
    </g>
    <g id="LineCollection_39">
     <path d="M 248.07675 136.357812 
L 258.07675 136.357812 
" style="fill: none; stroke: #b6b6b4"/>
    </g>
    <g id="LineCollection_40">
     <path d="M 253.07675 141.357812 
L 253.07675 131.357812 
" style="fill: none; stroke: #b6b6b4"/>
    </g>
    <g id="line2d_117">
     <g>
      <use xlink:href="#m147a53fdeb" x="248.07675" y="136.357812" style="fill: #b6b6b4; stroke: #b6b6b4"/>
     </g>
    </g>
    <g id="line2d_118">
     <g>
      <use xlink:href="#m147a53fdeb" x="258.07675" y="136.357812" style="fill: #b6b6b4; stroke: #b6b6b4"/>
     </g>
    </g>
    <g id="line2d_119">
     <g>
      <use xlink:href="#mf46f941b55" x="253.07675" y="141.357812" style="fill: #b6b6b4; stroke: #b6b6b4"/>
     </g>
    </g>
    <g id="line2d_120">
     <g>
      <use xlink:href="#mf46f941b55" x="253.07675" y="131.357812" style="fill: #b6b6b4; stroke: #b6b6b4"/>
     </g>
    </g>
    <g id="line2d_121"/>
    <g id="line2d_122">
     <g>
      <use xlink:href="#m65cc8b9a41" x="253.07675" y="136.357812" style="fill: #008080; stroke: #008080"/>
     </g>
    </g>
    <g id="text_25">
     <text style="fill: #262626; font: 10px 'Arial', 'DejaVu Sans', 'Liberation Sans', 'Bitstream Vera Sans', sans-serif; text-anchor: start" x="271.07675" y="139.857812" transform="rotate(-0 271.07675 139.857812)">MSigDb_Other</text>
    </g>
    <g id="LineCollection_41">
     <path d="M 248.07675 151.314062 
L 258.07675 151.314062 
" style="fill: none; stroke: #b6b6b4"/>
    </g>
    <g id="LineCollection_42">
     <path d="M 253.07675 156.314062 
L 253.07675 146.314062 
" style="fill: none; stroke: #b6b6b4"/>
    </g>
    <g id="line2d_123">
     <g>
      <use xlink:href="#m147a53fdeb" x="248.07675" y="151.314062" style="fill: #b6b6b4; stroke: #b6b6b4"/>
     </g>
    </g>
    <g id="line2d_124">
     <g>
      <use xlink:href="#m147a53fdeb" x="258.07675" y="151.314062" style="fill: #b6b6b4; stroke: #b6b6b4"/>
     </g>
    </g>
    <g id="line2d_125">
     <g>
      <use xlink:href="#mf46f941b55" x="253.07675" y="156.314062" style="fill: #b6b6b4; stroke: #b6b6b4"/>
     </g>
    </g>
    <g id="line2d_126">
     <g>
      <use xlink:href="#mf46f941b55" x="253.07675" y="146.314062" style="fill: #b6b6b4; stroke: #b6b6b4"/>
     </g>
    </g>
    <g id="line2d_127"/>
    <g id="line2d_128">
     <g>
      <use xlink:href="#mcef9bbc245" x="253.07675" y="151.314062" style="fill: #93ae8b; stroke: #93ae8b"/>
     </g>
    </g>
    <g id="text_26">
     <text style="fill: #262626; font: 10px 'Arial', 'DejaVu Sans', 'Liberation Sans', 'Bitstream Vera Sans', sans-serif; text-anchor: start" x="271.07675" y="154.814062" transform="rotate(-0 271.07675 154.814062)">MSigDb_Dif_Expression</text>
    </g>
    <g id="LineCollection_43">
     <path d="M 248.07675 166.270312 
L 258.07675 166.270312 
" style="fill: none; stroke: #b6b6b4"/>
    </g>
    <g id="LineCollection_44">
     <path d="M 253.07675 171.270312 
L 253.07675 161.270312 
" style="fill: none; stroke: #b6b6b4"/>
    </g>
    <g id="line2d_129">
     <g>
      <use xlink:href="#m147a53fdeb" x="248.07675" y="166.270312" style="fill: #b6b6b4; stroke: #b6b6b4"/>
     </g>
    </g>
    <g id="line2d_130">
     <g>
      <use xlink:href="#m147a53fdeb" x="258.07675" y="166.270312" style="fill: #b6b6b4; stroke: #b6b6b4"/>
     </g>
    </g>
    <g id="line2d_131">
     <g>
      <use xlink:href="#mf46f941b55" x="253.07675" y="171.270312" style="fill: #b6b6b4; stroke: #b6b6b4"/>
     </g>
    </g>
    <g id="line2d_132">
     <g>
      <use xlink:href="#mf46f941b55" x="253.07675" y="161.270312" style="fill: #b6b6b4; stroke: #b6b6b4"/>
     </g>
    </g>
    <g id="line2d_133"/>
    <g id="line2d_134">
     <g>
      <use xlink:href="#m8991bfe726" x="253.07675" y="166.270312" style="stroke: #000000"/>
     </g>
    </g>
    <g id="text_27">
     <text style="fill: #262626; font: 10px 'Arial', 'DejaVu Sans', 'Liberation Sans', 'Bitstream Vera Sans', sans-serif; text-anchor: start" x="271.07675" y="169.770312" transform="rotate(-0 271.07675 169.770312)">Random_FGES</text>
    </g>
   </g>
  </g>
 </g>
 <defs>
  <clipPath id="p0025bbaadf">
   <rect x="42.625" y="5" width="182.335" height="209.4"/>
  </clipPath>
 </defs>
</svg>
